<?xml version="1.0" encoding="utf-8"?>
<!-- Generator: Adobe Illustrator 23.1.1, SVG Export Plug-In . SVG Version: 6.00 Build 0)  -->
<svg version="1.1" id="Lager_1" xmlns="http://www.w3.org/2000/svg" xmlns:xlink="http://www.w3.org/1999/xlink" x="0px" y="0px"
	 viewBox="0 0 28 28" style="enable-background:new 0 0 28 28;" xml:space="preserve">
<style type="text/css">
	.st0{display:none;fill:#8C8C8C;}
	.st1{fill:#FFFFFF;}
</style>
<polygon id="icon-close_x5F_nav" class="st0" points="46,-15.2 43.2,-18 14,11.2 -15.2,-18 -18,-15.2 11.2,14 -18,43.2 -15.2,46 
	14,16.8 43.2,46 46,43.2 16.8,14 "/>
<path id="icon-close_x5F_kickstarter" class="st1" d="M14,0C6.3,0,0,6.3,0,14s6.3,14,14,14s14-6.3,14-14S21.7,0,14,0z M21,18.9
	L18.9,21L14,16.1L9.1,21L7,18.9l4.9-4.9L7,9.1L9.1,7l4.9,4.9L18.9,7L21,9.1L16.1,14L21,18.9z"/>
</svg>
