<?xml version="1.0" encoding="utf-8"?>
<!-- Generator: Adobe Illustrator 23.0.6, SVG Export Plug-In . SVG Version: 6.00 Build 0)  -->
<svg version="1.1" id="Lager_1" xmlns="http://www.w3.org/2000/svg" xmlns:xlink="http://www.w3.org/1999/xlink" x="0px" y="0px"
	 viewBox="0 0 283.5 51.7" style="enable-background:new 0 0 283.5 51.7;" xml:space="preserve">
<style type="text/css">
	.st0{fill:#FFFFFF;}
</style>
<g>
	<path class="st0" d="M283.5,0.6v11.8h-2V4.6l-3.1,7.8h-2l-3.2-8v8h-1.9V0.6h2.5l3.6,9.5l3.7-9.5H283.5z M260.4,0.6h9.3v1.8H266v10
		h-2v-10h-3.6V0.6L260.4,0.6z"/>
	<g>
		<path class="st0" d="M0,28.1h5c0.8,6.4,4.5,10.3,12.7,10.3c5.7,0,10.8-2.1,10.8-7.6c0-3.4-1.7-5.5-7.2-6.8L13,22.1
			C7.5,20.8,1.2,18.7,1.2,11C1.2,4.3,7.7,0,16,0c9.7,0,14.5,4.9,15.6,13.5h-5c-1-6.5-4.9-9.1-10.5-9.1c-5.3,0-9.7,2.2-9.7,6.6
			c0,4.1,3.3,5.6,8.5,6.8l7.8,1.7c5.2,1.1,11,3.7,11,11.1c0,8.3-7.4,12.2-16,12.2C6.2,42.8,0.4,36.4,0,28.1z"/>
		<path class="st0" d="M36.7,30.8V12.4h4.8v18.2c0,5.3,3,8.1,7.2,8.1c4,0,8.3-3.2,8.3-9.1V12.3h4.8v29.5H57v-4.1
			c-2.1,3.2-5.6,5-9.8,5C41.3,42.8,36.7,38.6,36.7,30.8z"/>
		<path class="st0" d="M101,24.2h17.3c-0.4-5.7-3.3-8.5-8.3-8.5C104.5,15.6,101.8,19.5,101,24.2z M122.9,28.2h-22.1
			c0.3,5.5,2.9,10.4,9.1,10.4c4.8,0,7-2.5,8-6.1h4.8c-1.3,6.1-5.7,10.1-12.8,10.1c-8.6,0-14-6.6-14-15.5s5.5-15.5,14-15.5
			C116.8,11.6,123.6,15.7,122.9,28.2z"/>
		<path class="st0" d="M126.3,12.4h4.8v5c1.9-3.3,5.1-5,8.1-5h3.1v4.5h-3.8c-4.1,0-7.5,3.1-7.5,9v16h-4.8L126.3,12.4L126.3,12.4z"/>
		<path class="st0" d="M145.5,0.6h4.8v41.3h-4.8V0.6z"/>
		<path class="st0" d="M173.4,27.1l-8.4,1.3c-4.6,0.7-6.6,2.3-6.6,5.4s2.4,4.9,6.1,4.9c5.3,0,8.9-3.9,8.9-9.9V27.1z M174.2,41.9
			c-0.2-1.5-0.4-3.2-0.5-5.2c-2.2,3.9-5.8,5.9-10.4,5.9c-6.1,0-10-3.4-10-8.7c0-6.8,5.9-8.5,14.2-9.5l5.9-0.7v-0.5
			c0-5.5-2-7.9-6.9-7.9c-4.1,0-6.8,2.2-7.1,6h-5.2c0.6-6,5.3-9.9,12.2-9.9c8.3,0,11.8,3.7,11.8,12.4v7.9c0,4.6,0.3,7.7,0.9,10.1
			L174.2,41.9L174.2,41.9z"/>
		<path class="st0" d="M196.8,37.9v4H192c-5,0-7.3-2.3-7.3-7.2V16.3h-5.2v-4h5.2V4.8h4.8v7.5h6.6v4h-6.6v18.1c0,2.5,0.7,3.4,3,3.4
			L196.8,37.9L196.8,37.9z"/>
		<path class="st0" d="M199.7,12.4h4.8v29.5h-4.8V12.4z M199.4,0.6h5.6v6.3h-5.6V0.6z"/>
		<path class="st0" d="M234.5,12.4l-10.7,29.5h-6.1L207,12.4h5l8.8,25.3l8.8-25.3H234.5z"/>
		<path class="st0" d="M238.4,24.2h17.3c-0.4-5.7-3.3-8.5-8.3-8.5C241.9,15.6,239.2,19.5,238.4,24.2z M260.3,28.2h-22.1
			c0.3,5.5,2.9,10.4,9.1,10.4c4.8,0,7-2.5,8-6.1h4.8c-1.3,6.1-5.7,10.1-12.8,10.1c-8.6,0-14-6.6-14-15.5s5.5-15.5,14-15.5
			C254.2,11.6,261,15.7,260.3,28.2z"/>
		<path class="st0" d="M88.6,27.2c0-6.6-3.1-11.7-8.8-11.7c-6.4,0-9.4,5.7-9.4,11.6s2.9,11.6,9.4,11.6
			C85.5,38.7,88.6,33.8,88.6,27.2z M65.9,12.4h4.8v4.5c2.1-3.5,5.7-5.3,9.7-5.3c7.5,0,13.1,6.4,13.1,15.6s-5.6,15.6-13.1,15.6
			c-4,0-7.4-1.7-9.7-5.4v14.3h-4.8V12.4z"/>
	</g>
</g>
</svg>
