<?xml version="1.0" encoding="utf-8"?>
<!-- Generator: Adobe Illustrator 23.0.1, SVG Export Plug-In . SVG Version: 6.00 Build 0)  -->
<svg version="1.1" id="Layer_1" xmlns="http://www.w3.org/2000/svg" xmlns:xlink="http://www.w3.org/1999/xlink" x="0px" y="0px"
	 viewBox="0 0 345.8 28.3" style="enable-background:new 0 0 345.8 28.3;" xml:space="preserve">
<style type="text/css">
	.st0{fill:none;stroke:#010101;stroke-width:0.2835;stroke-linecap:round;stroke-linejoin:round;stroke-miterlimit:10;}
</style>
<path class="st0" d="M345.3,20.4l-0.2,3.1 M0.9,23.5l-0.2-3.1 M295.4,10l-0.1-1.6 M281.9,8.4l-0.1,1.6 M312.8,8.4l-0.1,1.6
	 M326.4,10l-0.1-1.6 M233.7,10l-0.1-1.6 M220.1,8.4L220,10 M251.1,8.4L251,10 M264.5,10l-0.1-1.6 M173.7,8.4l-0.1,1.6 M187.3,10
	l-0.1-1.6 M218.3,10l-0.1-1.6 M204.6,8.4l-0.1,1.6 M125.6,10l-0.1-1.6 M111.9,8.4l-0.1,1.6 M156.4,10l-0.1-1.6 M142.9,8.4l-0.1,1.6
	 M310.9,10l-0.1-1.6 M297.3,8.4l-0.1,1.6 M280,10l-0.1-1.6 M266.4,8.4l-0.1,1.6 M235.6,8.4l-0.1,1.6 M249.2,10l-0.1-1.6 M189.2,8.4
	l-0.1,1.6 M202.8,10l-0.1-1.6 M127.5,8.4l-0.1,1.6 M171.9,10l-0.1-1.6 M158.3,8.4l-0.1,1.6 M141,10L141,8.4 M311,7l0,1 M316.9,7.9
	l0-0.9 M275.9,7l0,0.9 M293.5,7l0,0.9 M255.1,7.9l0-0.9 M249.3,7l0,0.9 M281.8,7.9l0-0.9 M299.3,7.9l0-0.9 M235.4,7.9l0-1 M229.6,7
	l0,0.9 M202.9,7l0,1 M208.7,7.9l0-0.9 M141.1,7l0,0.9 M185.4,7l0,0.9 M191.2,7.9l0-0.9 M167.8,7l0,0.9 M146.9,7.9l0-0.9 M173.6,7.9
	l0-0.9 M127.3,7.9l0-1 M121.5,7l0,0.9 M328.3,8.4l-0.1,1.6 M341.9,10l-0.1-1.6 M110.2,10l-0.1-1.6 M79.2,10l-0.1-1.6 M65.6,8.4
	L65.5,10 M96.5,8.4L96.4,10 M81,8.4L81,10 M94.6,10l-0.1-1.6 M63.7,10l-0.1-1.6 M50.1,8.4L50.1,10 M77.2,7l0,0.9 M83,7.9L83,7
	 M100.6,7.9l0-0.9 M94.8,7l0,1 M59.7,7l0,0.9 M65.5,7.9l0-0.9 M265.2,9.6L265.2,9.6l-0.2,0h0 M111.4,9.6h-0.7 M238.6,5.6h-2.8
	 M238.7,7.9l0-2.3 M301.1,5.6l0,2.3 M304.7,7.9l0-2.3 M32.5,5.6h-0.3 M32.1,8.9h0.2 M32.1,8.9l0,0.2L32,9.3l-0.2,0.3l-0.2,0.2
	L31.6,10 M248.8,5.6h-3.1 M245.6,5.6l0,2.3 M220.4,5.6l0,2.3 M223.9,7.9l0-2.3 M111.6,8l0-2.4 M108,5.6l0,2.3 M110.6,8.9h0.7
	 M140.6,5.6h-0.3 M140.3,5.6l0,2.3 M150.9,5.6l0,2.3 M154.4,7.9l0-2.3 M165,7.9l0-2.3 M161.4,5.6l0,2.3 M256.2,5.6l0,2.3 M259.7,7.9
	l0-2.3 M213.4,7.9l0-2.3 M209.8,5.6l0,2.3 M197.3,7.9l0-2.3 M193.7,5.6l0,2.3 M9,8.9l0,0.2L8.9,9.3L8.7,9.7L8.5,9.9L8.5,10 M13.1,10
	L13.1,10l-0.2-0.3l-0.2-0.3l-0.1-0.2l0-0.2 M18.8,8.9l0,0.2l-0.1,0.2l-0.2,0.3l-0.2,0.2L18.3,10 M22.9,10L22.9,10l-0.2-0.3l-0.2-0.3
	l-0.1-0.2l0-0.2 M325.8,7.9l0-2.3 M322.2,5.6l0,2.3 M336.3,7.9l0-2.3 M332.7,5.6l0,2.3 M74.4,7.9l0-2.3 M70.8,5.6l0,2.3 M178.2,5.6
	l0,2.3 M181.8,7.9l0-2.3 M275.5,5.6h-1.7 M273.7,5.6l0,2.3 M128.4,5.6h-0.7 M128.4,7.9l0-2.3 M289.2,5.6l0,2.3 M293,5.6L293,5.6
	l-0.3,0 M292.8,7.9l0-2.3 M40.2,7.8L40.2,7.8H40h-0.4H39h-0.7h-0.8h-0.7h-0.6h-0.4 M35.7,7.8h-0.2h0 M35.4,7.2L35.4,7.2h0.2
	 M35.6,7.2H36h0.6h0.8h0.8H39h0.6h0.4h0.2h0 M40.3,1.3h-0.1h-0.5h-0.8h-0.9H37h-0.8h-0.6h-0.2h0 M96.1,2.8L96.1,2.8H96h-0.4H95h-0.8
	h-1H92h-1.2h-1.2h-1.1h-1h-0.8h-0.6h-0.4h-0.1 M19.9,2.8L19.9,2.8h-0.3h-0.5h-0.7h-0.9h-1.1h-1.1h-1.2h-1.1h-1.1h-0.9h-0.7H9.7H9.4
	h0 M13.3,9.5h0.2h1.2h1.2h1.1h1h0.2 M57.5,2.8L57.5,2.8h-0.1H57h-0.6h-0.8h-1h-1.1h-1.2H51h-1.1h-1h-0.8h-0.6h-0.4h-0.1 M46.8,9.5
	h0.1h0.4h0.6h0.8h1h0 M35.6,2.8H33 M35.7,9.5L35.7,9.5l-0.1,0l-0.1,0 M43.1,2.8L43.1,2.8h-0.4h-0.6h-0.8h-1h-0.2 M32.7,2.8h-0.2h0
	 M32.4,9.5L32.4,9.5h0.2 M39.9,9.5h0.3h1h0.8h0.6h0.4h0.2h0 M13.9,26.8L13.9,26.8h0.4h0.5h0.8h0.9h1.1h1.1h1.2h1.1H22h0.9h0.8h0.5
	h0.3h0.1 M321.4,26.8L321.4,26.8h0.3h0.5h0.7h0.9h1h1.1h1.2h1.1h1.1h0.9h0.8h0.6h0.3h0.1 M339.7,26.8h-4.9 M340.4,26.6l-0.3,0.1
	l-0.4,0.1 M11.2,26.8H6.2 M5.5,26.6l0.3,0.1l0.4,0.1 M335.5,26.6l-0.3,0.1l-0.3,0 M334.8,26.8h-0.5h-0.7h-0.9h-1 M10.5,26.6l0.3,0.1
	l0.4,0 M14.1,26.8h-1h-0.9h-0.7h-0.5 M331.8,26.7L331.8,26.7 M14.1,26.7L14.1,26.7 M331.8,26.8H14.1 M345.1,23.6l-0.2,0.3l-0.3,0.2
	 M0.9,23.6l0.2,0.3l0.3,0.2 M340.4,26.6l4.2-2.6 M344.6,24.1l0.2-3.1 M335.5,26.6l4.9,0 M1.2,20.9l0.2,3.1 M1.4,24.1l4.2,2.6
	 M5.5,26.6l4.9,0 M14.1,26.7h317.7 M335.5,26.6l9.3-5.7 M341.5,20.8l-9.6,6 M331.8,26.7l1.2,0l1.1,0l0.8,0l0.5-0.1 M4.5,20.8l9.6,6
	 M10.5,26.6l-9.3-5.7 M10.5,26.6l0.5,0.1l0.8,0l1.1,0l1.2,0 M341.5,20.8H4.5 M4.5,20.4v0.2v0.2 M4.5,20.8l-1.4,0l-0.6,0l-0.5,0
	l-0.4,0l-0.3,0l-0.1,0.1 M345.3,20.4l-0.2,0.3l-0.3,0.2 M341.5,20.4v0.2v0.2 M344.8,20.9l-0.1-0.1l-0.3,0l-0.4,0l-0.5,0l-0.6,0
	l-1.4,0 M345.1,23.5L345.1,23.5 M0.9,23.6L0.9,23.6 M0.7,20.4L0.7,20.4L0.7,20.4l0.3,0l0.5,0h0.6l0.8,0l0.8,0l0.8,0 M4.5,20.4H173
	h168.5 M341.5,20.4l0.8,0l0.8,0l0.8,0h0.6l0.5,0l0.3,0l0,0l0,0 M345.4,23L345.4,23v-0.5v-0.4v-0.4v-0.4v-0.4v-0.4V20 M341.9,20h-5.7
	h-22.8h-22.8h-22.8h-22.8h-45.7h-22.8h-22.8h-45.7H84.9H44.5H4.1 M0.6,20v0.2v0.3v0.3v0.3v0.3V22v0.4V23 M4.1,10.5V20 M0.6,20v-9.5
	 M0.6,20l0.2,0l0.6,0l0.9,0l1.1,0h0.8 M344.8,10l0.5,0.5 M341.9,10h0.6h0.6h0.5h0.5h0.4h0.3h0.2h0.1 M345.4,10.5V20 M345.4,10.5
	L345.4,10.5h-0.3h-0.3h-0.4h-0.5h-0.6h-0.7h-0.7 M341.9,20v-9.5 M341.9,20l1.2,0l1,0l0.8,0l0.4,0l0.1,0 M341.9,10.5H4.1 M341.9,10
	v0.5 M4.1,10h337.7 M1.1,10l-0.5,0.5 M4.1,10.5H3.4H2.8H2.2H1.6H1.2H0.9H0.7H0.6 M4.1,10v0.5 M1.1,10L1.1,10h0.2h0.3H2h0.5H3h0.6
	h0.6 M251.1,7.9h13.4 M281.9,7.9h13.5 M326.4,7.9l0.1,0l0.1,0l0.1,0l0.1,0.1l0.1,0.1l0,0.1l0,0.1l0,0.1 M312.2,8.4L312.2,8.4l0-0.2
	l0-0.1l0.1-0.1l0.1-0.1l0.1,0l0.1,0l0.1,0 M295.9,8.4L295.9,8.4l0-0.2l0-0.1L295.7,8L295.7,8l-0.1,0l-0.1,0l-0.1,0 M295.4,8.4
	L295.4,8.4V8.2V8.1V8V8v0v0v0 M312.8,8.4L312.8,8.4V8.2V8.1V8V8v0v0v0 M326.4,7.9L326.4,7.9L326.4,7.9L326.4,7.9V8v0.1v0.1v0.1v0.1
	 M312.8,7.9h13.6 M251.1,8.4L251.1,8.4V8.2V8.1V8V8v0v0v0 M250.5,8.4L250.5,8.4l0-0.2l0-0.1l0.1-0.1l0.1-0.1l0.1,0l0.1,0l0.1,0
	 M281.9,8.4L281.9,8.4V8.2V8.1V8V8v0v0v0 M281.3,8.4L281.3,8.4l0-0.2l0-0.1l0.1-0.1l0.1-0.1l0.1,0l0.1,0l0.1,0 M264.5,7.9L264.5,7.9
	L264.5,7.9L264.5,7.9V8v0.1v0.1v0.1v0.1 M264.5,7.9L264.5,7.9l0.2,0l0.1,0l0.1,0.1l0.1,0.1l0,0.1l0,0.1l0,0.1 M234.2,8.4L234.2,8.4
	l0-0.2l0-0.1L234,8L234,8l-0.1,0l-0.1,0l-0.1,0 M219.5,8.4L219.5,8.4l0-0.2l0-0.1l0.1-0.1l0.1-0.1l0.1,0l0.1,0l0.1,0 M233.7,8.4
	L233.7,8.4V8.2V8.1V8V8v0v0v0 M220.1,7.9h13.6 M220.1,8.4L220.1,8.4V8.2V8.1V8V8v0v0v0 M312.8,8.4l-0.1,0l-0.1,0l-0.1,0h-0.1h-0.1
	l0,0l0,0l0,0 M312.2,10l0.1-1.6 M295.9,8.4L296,10 M295.9,8.4L295.9,8.4L295.9,8.4L295.9,8.4l-0.2,0h-0.1l-0.1,0l-0.1,0l-0.1,0
	 M295.4,8.4h-13.5 M281.9,8.4l-0.1,0l-0.1,0l-0.1,0h-0.1h-0.1l0,0l0,0l0,0 M281.3,10l0.1-1.6 M326.4,8.4h-13.6 M326.9,8.4l0.1,1.6
	 M326.9,8.4L326.9,8.4L326.9,8.4L326.9,8.4l-0.2,0h-0.1l-0.1,0l-0.1,0l-0.1,0 M264.5,8.4h-13.4 M234.2,8.4l0.1,1.6 M234.2,8.4
	L234.2,8.4L234.2,8.4L234.2,8.4l-0.2,0H234l-0.1,0l-0.1,0l-0.1,0 M220.1,8.4l-0.1,0l-0.1,0l-0.1,0h-0.1h-0.1l0,0l0,0l0,0 M219.5,10
	l0.1-1.6 M233.7,8.4h-13.6 M251.1,8.4l-0.1,0l-0.1,0l-0.1,0h-0.1h-0.1l0,0l0,0l0,0 M250.5,10l0.1-1.6 M265,8.4l0.1,1.6 M265,8.4
	L265,8.4L265,8.4L265,8.4l-0.2,0h-0.1l-0.1,0l-0.1,0l-0.1,0 M204.1,8.4L204.1,8.4l0-0.2l0-0.1l0.1-0.1l0.1-0.1l0.1,0l0.1,0l0.1,0
	 M142.9,7.9h13.4 M156.4,7.9L156.4,7.9L156.4,7.9L156.4,7.9V8v0.1v0.1v0.1v0.1 M156.4,7.9l0.1,0l0.1,0l0.1,0l0.1,0.1l0.1,0.1l0,0.1
	l0,0.1l0,0.1 M142.9,8.4L142.9,8.4V8.2V8.1V8V8v0v0v0 M142.4,8.4L142.4,8.4l0-0.2l0-0.1l0.1-0.1l0.1-0.1l0.1,0l0.1,0l0.1,0
	 M173.7,7.9h13.5 M187.8,8.4L187.8,8.4l0-0.2l0-0.1L187.6,8L187.5,8l-0.1,0l-0.1,0l-0.1,0 M187.2,8.4L187.2,8.4V8.2V8.1V8V8v0v0v0
	 M173.7,8.4L173.7,8.4V8.2V8.1V8V8v0v0v0 M173.2,8.4L173.2,8.4l0-0.2l0-0.1l0.1-0.1l0.1-0.1l0.1,0l0.1,0l0.1,0 M218.2,7.9l0.1,0
	l0.1,0l0.1,0l0.1,0.1l0.1,0.1l0,0.1l0,0.1l0,0.1 M204.6,8.4L204.6,8.4V8.2V8.1V8V8v0v0v0 M218.2,7.9L218.2,7.9L218.2,7.9L218.2,7.9
	V8v0.1v0.1v0.1v0.1 M204.6,7.9h13.6 M126.1,8.4L126.1,8.4l0-0.2l0-0.1L125.9,8L125.8,8l-0.1,0l-0.1,0l-0.1,0 M111.4,8.4L111.4,8.4
	l0-0.2l0-0.1l0.1-0.1l0.1-0.1l0.1,0l0.1,0l0.1,0 M125.5,8.4L125.5,8.4V8.2V8.1V8V8v0v0v0 M111.9,7.9h13.6 M111.9,8.4L111.9,8.4V8.2
	V8.1V8V8v0v0v0 M218.2,8.4h-13.6 M187.2,8.4h-13.5 M173.7,8.4l-0.1,0l-0.1,0l-0.1,0h-0.1h-0.1l0,0l0,0l0,0 M173.1,10l0.1-1.6
	 M187.8,8.4l0.1,1.6 M187.8,8.4L187.8,8.4L187.8,8.4L187.8,8.4l-0.2,0h-0.1l-0.1,0l-0.1,0l-0.1,0 M218.8,8.4l0.1,1.6 M218.8,8.4
	L218.8,8.4L218.8,8.4L218.8,8.4l-0.2,0h-0.1l-0.1,0l-0.1,0l-0.1,0 M204.6,8.4l-0.1,0l-0.1,0l-0.1,0h-0.1h-0.1l0,0l0,0l0,0 M204,10
	l0.1-1.6 M126.1,8.4l0.1,1.6 M126.1,8.4L126.1,8.4L126.1,8.4L126.1,8.4l-0.2,0h-0.1l-0.1,0l-0.1,0l-0.1,0 M125.5,8.4h-13.6
	 M156.9,8.4l0.1,1.6 M156.9,8.4L156.9,8.4L156.9,8.4L156.9,8.4l-0.2,0h-0.1l-0.1,0l-0.1,0l-0.1,0 M142.9,8.4l-0.1,0l-0.1,0l-0.1,0
	h-0.1h-0.1l0,0l0,0l0,0 M142.3,10l0.1-1.6 M111.9,8.4l-0.1,0l-0.1,0l-0.1,0h-0.1h-0.1l0,0l0,0l0,0 M111.4,10l0.1-1.6 M156.4,8.4
	h-13.4 M297.3,7.9h13.5 M280.5,8.4L280.5,8.4l0-0.2l0-0.1L280.3,8L280.2,8l-0.1,0l-0.1,0l-0.1,0 M265.9,8.4L265.9,8.4l0-0.2l0-0.1
	L266,8l0.1-0.1l0.1,0l0.1,0l0.1,0 M279.9,8.4L279.9,8.4V8.2V8.1V8V8v0v0v0 M266.4,7.9h13.5 M266.4,8.4L266.4,8.4V8.2V8.1V8V8v0v0v0
	 M297.3,8.4L297.3,8.4V8.2V8.1V8V8v0v0v0 M296.8,8.4L296.8,8.4l0-0.2l0-0.1l0.1-0.1L297,8l0.1,0l0.1,0l0.1,0 M310.8,8.4L310.8,8.4
	V8.2V8.1V8V8v0v0v0 M310.8,7.9l0.1,0l0.1,0l0.1,0l0.1,0.1l0.1,0.1l0,0.1l0,0.1l0,0.1 M249.1,7.9l0.1,0l0.1,0l0.1,0l0.1,0.1l0.1,0.1
	l0,0.1l0,0.1l0,0.1 M235.1,8.4L235.1,8.4l0-0.2l0-0.1l0.1-0.1l0.1-0.1l0.1,0l0.1,0l0.1,0 M235.6,7.9L235.6,7.9L235.6,7.9L235.6,7.9
	V8v0.1v0.1v0.1v0.1 M249.1,7.9L249.1,7.9L249.1,7.9L249.1,7.9V8v0.1v0.1v0.1v0.1 M235.6,7.9h13.5 M280.5,8.4l0.1,1.6 M280.5,8.4
	L280.5,8.4L280.5,8.4L280.5,8.4l-0.2,0h-0.1l-0.1,0l-0.1,0l-0.1,0 M297.3,8.4l-0.1,0l-0.1,0l-0.1,0h-0.1h-0.1l0,0l0,0l0,0 M296.7,10
	l0.1-1.6 M311.4,8.4l0.1,1.6 M311.4,8.4L311.4,8.4L311.4,8.4L311.4,8.4l-0.2,0h-0.1l-0.1,0l-0.1,0l-0.1,0 M310.8,8.4h-13.5
	 M279.9,8.4h-13.5 M266.4,8.4l-0.1,0l-0.1,0l-0.1,0H266H266l0,0l0,0l0,0 M265.8,10l0.1-1.6 M249.1,8.4h-13.5 M235.6,8.4l-0.1,0
	l-0.1,0l-0.1,0h-0.1h-0.1l0,0l0,0l0,0 M235,10l0.1-1.6 M249.7,8.4l0.1,1.6 M249.7,8.4L249.7,8.4L249.7,8.4L249.7,8.4l-0.2,0h-0.1
	l-0.1,0l-0.1,0l-0.1,0 M188.6,8.4L188.6,8.4l0-0.2l0-0.1l0.1-0.1l0.1-0.1l0.1,0l0.1,0l0.1,0 M202.7,7.9L202.7,7.9l0.2,0l0.1,0
	l0.1,0.1l0.1,0.1l0,0.1l0,0.1l0,0.1 M157.8,8.4L157.8,8.4l0-0.2l0-0.1l0.1-0.1L158,8l0.1,0l0.1,0l0.1,0 M202.7,8.4L202.7,8.4V8.2
	V8.1V8V8v0v0v0 M189.2,7.9h13.5 M189.2,8.4L189.2,8.4V8.2V8.1V8V8v0v0v0 M158.3,7.9h13.5 M158.3,8.4L158.3,8.4V8.2V8.1V8V8v0v0v0
	 M172.3,8.4L172.3,8.4l0-0.2l0-0.1L172.2,8L172.1,8l-0.1,0l-0.1,0l-0.1,0 M171.8,8.4L171.8,8.4V8.2V8.1V8V8v0v0v0 M141,7.9l0.1,0
	l0.1,0l0.1,0l0.1,0.1l0.1,0.1l0,0.1l0,0.1l0,0.1 M141,7.9L141,7.9L141,7.9L141,7.9V8v0.1v0.1v0.1v0.1 M127.5,7.9H141 M126.9,8.4
	L126.9,8.4l0-0.2l0-0.1l0.1-0.1l0.1-0.1l0.1,0l0.1,0l0.1,0 M127.5,7.9L127.5,7.9L127.5,7.9L127.5,7.9V8v0.1v0.1v0.1v0.1 M202.7,8.4
	h-13.5 M189.2,8.4l-0.1,0l-0.1,0l-0.1,0h-0.1h-0.1l0,0l0,0l0,0 M188.6,10l0.1-1.6 M203.2,8.4l0.1,1.6 M203.2,8.4L203.2,8.4
	L203.2,8.4L203.2,8.4l-0.2,0H203l-0.1,0l-0.1,0l-0.1,0 M172.3,8.4l0.1,1.6 M172.3,8.4L172.3,8.4L172.3,8.4L172.3,8.4l-0.2,0h-0.1
	l-0.1,0l-0.1,0l-0.1,0 M127.5,8.4l-0.1,0l-0.1,0l-0.1,0h-0.1H127l0,0l0,0l0,0 M126.9,10l0.1-1.6 M141,8.4h-13.5 M158.3,8.4l-0.1,0
	l-0.1,0l-0.1,0h-0.1h-0.1l0,0l0,0l0,0 M157.7,10l0.1-1.6 M171.8,8.4h-13.5 M141.5,8.4l0.1,1.6 M141.5,8.4L141.5,8.4L141.5,8.4
	L141.5,8.4l-0.2,0h-0.1l-0.1,0l-0.1,0l-0.1,0 M276,3.7h5.6 M255.5,4.2L255.5,4.2L255.5,4.2l0,0.2l0,0.2l0,0.2l0,0.2 M255.5,4.2
	L255.5,4.2l0-0.2l0-0.1l-0.1-0.1l-0.1-0.1l-0.1,0l-0.1,0l-0.1,0 M275.5,5l0-0.2l0-0.2l0-0.2l0-0.1l0-0.1v0 M276,3.7L276,3.7l0,0.1
	l0,0.2l0,0.2l0,0.3l0,0.3 M276,3.7L276,3.7l-0.2,0l-0.1,0l-0.1,0.1l-0.1,0.1l0,0.1l0,0.1l0,0.1 M293,5l0-0.2l0-0.2l0-0.2l0-0.1
	l0-0.1v0 M293.6,3.7l-0.1,0l-0.1,0l-0.1,0l-0.1,0.1l-0.1,0.1l0,0.1l0,0.1l0,0.1 M248.8,5l0-0.2l0-0.2l0-0.2l0-0.1l0-0.1v0
	 M249.4,3.7l-0.1,0l-0.1,0l-0.1,0L249,3.8l-0.1,0.1L248.9,4l0,0.1l0,0.1 M317.3,4.2L317.3,4.2L317.3,4.2l0,0.2l0,0.2l0,0.2l0,0.2
	 M317.3,4.2L317.3,4.2l0-0.2l0-0.1l-0.1-0.1L317,3.7l-0.1,0l-0.1,0l-0.1,0 M235.8,4.2L235.8,4.2L235.8,4.2l0,0.2l0,0.2l0,0.2l0,0.2
	 M235.8,4.2L235.8,4.2l0-0.2l0-0.1l-0.1-0.1l-0.1-0.1l-0.1,0l-0.1,0l-0.1,0 M282.2,4.2L282.2,4.2L282.2,4.2l0,0.2l0,0.2l0,0.2l0,0.2
	 M282.2,4.2L282.2,4.2l0-0.2l0-0.1L282,3.8l-0.1-0.1l-0.1,0l-0.1,0l-0.1,0 M281.7,4.7l0-0.3l0-0.3l0-0.2l0-0.2l0-0.1v0 M311.1,3.7
	h5.6 M316.8,4.7l0-0.3l0-0.3l0-0.2l0-0.2l0-0.1v0 M229.1,5l0-0.2l0-0.2l0-0.2l0-0.1l0-0.1v0 M229.7,3.7l-0.1,0l-0.1,0l-0.1,0
	l-0.1,0.1l-0.1,0.1l0,0.1l0,0.1l0,0.1 M249.4,3.7h5.6 M249.4,3.7L249.4,3.7l0,0.1l0,0.2l0,0.2l0,0.3l0,0.3 M255,4.7l0-0.3l0-0.3
	l0-0.2l0-0.2l0-0.1v0 M235.3,4.7l0-0.3l0-0.3l0-0.2l0-0.2l0-0.1v0 M229.7,3.7h5.6 M229.7,3.7L229.7,3.7l0,0.1l0,0.2l0,0.2l0,0.3
	l0,0.3 M310.6,5l0-0.2l0-0.2l0-0.2l0-0.1l0-0.1v0 M311.1,3.7L311.1,3.7l0,0.1l0,0.2l0,0.2l0,0.3l0,0.3 M311.1,3.7l-0.1,0l-0.1,0
	l-0.1,0l-0.1,0.1l-0.1,0.1l0,0.1l0,0.1l0,0.1 M299.7,4.2L299.7,4.2L299.7,4.2l0,0.2l0,0.2l0,0.2l0,0.2 M299.7,4.2L299.7,4.2l0-0.2
	l0-0.1l-0.1-0.1l-0.1-0.1l-0.1,0l-0.1,0l-0.1,0 M293.6,3.7h5.6 M293.6,3.7L293.6,3.7l0,0.1l0,0.2l0,0.2l0,0.3l0,0.3 M299.2,4.7
	l0-0.3l0-0.3l0-0.2l0-0.2l0-0.1l0,0 M299.2,4.7h-5.6 M293.6,4.7l-0.1,2 M293,5L293,5L293,5l0.1-0.1l0.1,0l0.1,0l0.1,0l0.1,0l0.1,0
	 M293,7l0.1-2 M281.7,4.7H276 M317.3,5L317.3,5L317.3,5l-0.1-0.1l-0.1,0l-0.1,0l-0.1,0l-0.1,0l-0.1,0 M317.3,5l0.1,2 M248.8,5
	L248.8,5L248.8,5l0.1-0.1l0.1,0l0.1,0l0.1,0l0.1,0l0.1,0 M248.7,7l0.1-2 M310.6,5L310.6,5L310.6,5l0.1-0.1l0.1,0l0.1,0l0.1,0l0.1,0
	l0.1,0 M310.5,7l0.1-2 M255.5,5L255.5,5L255.5,5l-0.1-0.1l-0.1,0l-0.1,0l-0.1,0l-0.1,0l-0.1,0 M255.5,5l0.1,2 M255,4.7h-5.6
	 M249.3,4.7l-0.1,2 M255,6.7l-0.1-2 M282.2,5L282.2,5L282.2,5l-0.1-0.1l-0.1,0l-0.1,0l-0.1,0l-0.1,0l-0.1,0 M281.7,6.7l-0.1-2
	 M282.2,5l0.1,2 M299.7,5L299.7,5L299.7,5l-0.1-0.1l-0.1,0l-0.1,0l-0.1,0l-0.1,0l-0.1,0 M299.3,6.7l-0.1-2 M299.7,5l0.1,2 M276,4.7
	l-0.1,2 M275.5,5L275.5,5L275.5,5l0.1-0.1l0.1,0l0.1,0l0.1,0l0.1,0l0.1,0 M275.4,7l0.1-2 M316.8,4.7h-5.6 M311.1,4.7l-0.1,2
	 M316.8,6.7l-0.1-2 M229.7,4.7l-0.1,0l-0.1,0l-0.1,0l-0.1,0l-0.1,0l0,0l0,0l0,0 M229.1,7l0.1-2 M235.8,5l0.1,2 M235.3,4.7l0.1,0
	l0.1,0l0.1,0l0.1,0l0.1,0l0,0l0,0l0,0 M235.3,4.7h-5.6 M229.7,4.7l-0.1,2 M235.4,6.7l-0.1-2 M282.3,7L282.3,7L282.3,7l-0.1-0.1
	l-0.1,0l-0.1,0l-0.1,0l-0.1,0l-0.1,0 M293.5,6.7h5.8 M310.5,7L310.5,7L310.5,7l0.1-0.1l0.1,0l0.1,0l0.1,0l0.1,0l0.1,0 M293.5,7
	L293.5,7L293.5,7L293.5,7V6.8v0v0v0v0 M293,7L293,7L293,7l0.1-0.1l0.1,0l0.1,0l0.1,0l0.1,0l0.1,0 M299.8,7L299.8,7L299.8,7l-0.1-0.1
	l-0.1,0l-0.1,0l-0.1,0l-0.1,0l-0.1,0 M299.3,7L299.3,7L299.3,7L299.3,7V6.8v0v0v0v0 M281.7,7L281.7,7L281.7,7L281.7,7V6.8v0v0v0v0
	 M275.9,6.7h5.8 M311,6.7h5.8 M311,7L311,7L311,7L311,7V6.8v0v0v0v0 M317.4,7L317.4,7L317.4,7l-0.1-0.1l-0.1,0l-0.1,0l-0.1,0l-0.1,0
	l-0.1,0 M316.8,7L316.8,7L316.8,7L316.8,7V6.8v0v0v0v0 M275.9,7L275.9,7L275.9,7L275.9,7V6.8v0v0v0v0 M275.4,7L275.4,7L275.4,7
	l0.1-0.1l0.1,0l0.1,0l0.1,0l0.1,0l0.1,0 M248.7,7L248.7,7L248.7,7l0.1-0.1l0.1,0l0.1,0l0.1,0l0.1,0l0.1,0 M249.3,6.7h5.8 M249.3,7
	L249.3,7L249.3,7L249.3,7V6.8v0v0v0v0 M255.6,7L255.6,7L255.6,7l-0.1-0.1l-0.1,0l-0.1,0l-0.1,0l-0.1,0l-0.1,0 M255,7L255,7L255,7
	L255,7V6.8v0v0v0v0 M229.6,6.7h5.8 M229.6,6.7l-0.1,0l-0.1,0l-0.1,0l-0.1,0l-0.1,0l0,0l0,0l0,0 M229.6,6.7L229.6,6.7L229.6,6.7
	L229.6,6.7v0.1v0v0v0v0 M235.4,6.7L235.4,6.7L235.4,6.7L235.4,6.7v0.1v0v0v0v0 M235.4,6.7l0.1,0l0.1,0l0.1,0l0.1,0l0.1,0l0,0l0,0
	l0,0 M316.8,7H311 M310.5,7L310.5,7L310.5,7L310.5,7l0.2,0h0.1l0.1,0l0.1,0l0.1,0 M310.5,7.9l0-0.9 M317.4,7l0,0.9 M316.8,7l0.1,0
	l0.1,0l0.1,0h0.1h0.1l0,0l0,0l0,0 M293,7L293,7L293,7L293,7l0.2,0h0.1l0.1,0l0.1,0l0.1,0 M292.9,7.9l0-0.9 M281.7,7h-5.8 M275.4,7
	L275.4,7L275.4,7L275.4,7l0.2,0h0.1l0.1,0l0.1,0l0.1,0 M275.4,7.9l0-0.9 M299.3,7h-5.8 M255,7h-5.8 M255.6,7l0,0.9 M255,7l0.1,0
	l0.1,0l0.1,0h0.1h0.1l0,0l0,0l0,0 M248.7,7L248.7,7L248.7,7L248.7,7l0.2,0h0.1l0.1,0l0.1,0l0.1,0 M248.7,7.9l0-0.9 M282.3,7l0,0.9
	 M281.7,7l0.1,0l0.1,0l0.1,0h0.1h0.1l0,0l0,0l0,0 M299.8,7l0,0.9 M299.3,7l0.1,0l0.1,0l0.1,0h0.1h0.1l0,0l0,0l0,0 M229.1,7L229.1,7
	L229.1,7L229.1,7l0.2,0h0.1l0.1,0l0.1,0l0.1,0 M229,7.9l0-0.9 M235.9,7l0,0.9 M235.4,7l0.1,0l0.1,0l0.1,0h0.1h0.1l0,0l0,0l0,0
	 M235.4,7h-5.8 M184.9,5l0-0.2l0-0.2l0-0.2l0-0.1l0-0.1v0 M185.5,3.7L185.5,3.7l-0.2,0l-0.1,0l-0.1,0.1L185,3.9l0,0.1l0,0.1l0,0.1
	 M174,4.2L174,4.2L174,4.2l0,0.2l0,0.2l0,0.2l0,0.2 M174,4.2L174,4.2l0-0.2l0-0.1l-0.1-0.1l-0.1-0.1l-0.1,0l-0.1,0l-0.1,0
	 M121.6,3.7h5.6 M209.1,4.2L209.1,4.2L209.1,4.2l0,0.2l0,0.2l0,0.2l0,0.2 M209.1,4.2L209.1,4.2l0-0.2L209,3.9L209,3.8l-0.1-0.1
	l-0.1,0l-0.1,0l-0.1,0 M127.7,4.2L127.7,4.2L127.7,4.2l0,0.2l0,0.2l0,0.2l0,0.2 M127.7,4.2L127.7,4.2l0-0.2l0-0.1l-0.1-0.1l-0.1-0.1
	l-0.1,0l-0.1,0l-0.1,0 M127.2,4.7l0-0.3l0-0.3l0-0.2l0-0.2l0-0.1l0,0 M202.5,5l0-0.2l0-0.2l0-0.2l0-0.1l0-0.1l0,0 M203,3.7l-0.1,0
	l-0.1,0l-0.1,0l-0.1,0.1l-0.1,0.1l0,0.1l0,0.1l0,0.1 M147.3,4.2L147.3,4.2L147.3,4.2l0,0.2l0,0.2l0,0.2l0,0.2 M147.3,4.2L147.3,4.2
	l0-0.2l0-0.1l-0.1-0.1l-0.1-0.1l-0.1,0l-0.1,0l-0.1,0 M203,3.7h5.6 M203,3.7L203,3.7l0,0.1l0,0.2l0,0.2l0,0.3l0,0.3 M208.6,4.7
	l0-0.3l0-0.3l0-0.2l0-0.2l0-0.1l0,0 M167.4,5l0-0.2l0-0.2l0-0.2l0-0.1l0-0.1v0 M167.9,3.7l-0.1,0l-0.1,0l-0.1,0l-0.1,0.1l-0.1,0.1
	l0,0.1l0,0.1l0,0.1 M191.6,4.2L191.6,4.2L191.6,4.2l0,0.2l0,0.2l0,0.2l0,0.2 M191.6,4.2L191.6,4.2l0-0.2l0-0.1l-0.1-0.1l-0.1-0.1
	l-0.1,0l-0.1,0l-0.1,0 M141.2,3.7h5.6 M146.8,4.7l0-0.3l0-0.3l0-0.2l0-0.2l0-0.1l0,0 M140.7,5l0-0.2l0-0.2l0-0.2l0-0.1l0-0.1l0,0
	 M141.2,3.7L141.2,3.7l0,0.1l0,0.2l0,0.2l0,0.3l0,0.3 M141.2,3.7L141.2,3.7l-0.2,0l-0.1,0l-0.1,0.1l-0.1,0.1l0,0.1l0,0.1l0,0.1
	 M185.5,3.7h5.6 M185.5,3.7L185.5,3.7l0,0.1l0,0.2l0,0.2l0,0.3l0,0.3 M191.1,4.7l0-0.3l0-0.3l0-0.2l0-0.2l0-0.1v0 M121,5l0-0.2
	l0-0.2l0-0.2l0-0.1l0-0.1l0,0 M121.6,3.7L121.6,3.7l-0.2,0l-0.1,0l-0.1,0.1l-0.1,0.1l0,0.1l0,0.1l0,0.1 M121.6,3.7L121.6,3.7l0,0.1
	l0,0.2l0,0.2l0,0.3l0,0.3 M167.9,3.7h5.6 M167.9,3.7L167.9,3.7l0,0.1l0,0.2l0,0.2l0,0.3l0,0.3 M173.5,4.7l0-0.3l0-0.3l0-0.2l0-0.2
	l0-0.1v0 M147.4,5L147.4,5L147.4,5l-0.1-0.1l-0.1,0l-0.1,0l-0.1,0l-0.1,0l-0.1,0 M147.4,5l0.1,2 M208.6,4.7H203 M173.5,4.7h-5.6
	 M191.6,5L191.6,5L191.6,5l-0.1-0.1l-0.1,0l-0.1,0l-0.1,0l-0.1,0l-0.1,0 M191.6,5l0.1,2 M140.7,5L140.7,5L140.7,5l0.1-0.1l0.1,0
	l0.1,0l0.1,0l0.1,0l0.1,0 M140.6,7l0.1-2 M184.9,5L184.9,5L184.9,5l0.1-0.1l0.1,0l0.1,0l0.1,0l0.1,0l0.1,0 M184.8,7l0.1-2
	 M167.9,4.7l-0.1,2 M167.4,5L167.4,5L167.4,5l0.1-0.1l0.1,0l0.1,0l0.1,0l0.1,0l0.1,0 M167.3,7l0.1-2 M191.1,4.7h-5.6 M185.4,4.7
	l-0.1,2 M191.1,6.7l-0.1-2 M203,4.7l-0.1,2 M202.5,5L202.5,5L202.5,5l0.1-0.1l0.1,0l0.1,0l0.1,0l0.1,0l0.1,0 M202.4,7l0.1-2
	 M209.2,5L209.2,5L209.2,5l-0.1-0.1l-0.1,0l-0.1,0l-0.1,0l-0.1,0l-0.1,0 M208.7,6.7l-0.1-2 M209.2,5l0.1,2 M174.1,5L174.1,5L174.1,5
	L174,4.8l-0.1,0l-0.1,0l-0.1,0l-0.1,0l-0.1,0 M173.6,6.7l-0.1-2 M174.1,5l0.1,2 M146.8,4.7h-5.6 M141.2,4.7l-0.1,2 M146.9,6.7
	l-0.1-2 M121.5,4.7l-0.1,0l-0.1,0l-0.1,0l-0.1,0l-0.1,0l0,0l0,0l0,0 M120.9,7l0.1-2 M127.2,4.7h-5.6 M121.5,4.7l-0.1,2 M127.7,5
	l0.1,2 M127.2,4.7l0.1,0l0.1,0l0.1,0l0.1,0l0.1,0l0,0l0,0l0,0 M127.3,6.7l-0.1-2 M209.2,7L209.2,7L209.2,7l-0.1-0.1l-0.1,0l-0.1,0
	l-0.1,0l-0.1,0l-0.1,0 M184.8,7L184.8,7L184.8,7l0.1-0.1l0.1,0l0.1,0l0.1,0l0.1,0l0.1,0 M167.3,7L167.3,7L167.3,7l0.1-0.1l0.1,0
	l0.1,0l0.1,0l0.1,0l0.1,0 M167.8,6.7h5.8 M167.8,7L167.8,7L167.8,7L167.8,7V6.8v0v0v0v0 M191.7,7L191.7,7L191.7,7l-0.1-0.1l-0.1,0
	l-0.1,0l-0.1,0l-0.1,0l-0.1,0 M174.1,7L174.1,7L174.1,7L174,6.8l-0.1,0l-0.1,0l-0.1,0l-0.1,0l-0.1,0 M173.6,7L173.6,7L173.6,7
	L173.6,7V6.8v0v0v0v0 M191.1,7L191.1,7L191.1,7L191.1,7V6.8v0v0v0v0 M185.4,6.7h5.8 M185.4,7L185.4,7L185.4,7L185.4,7V6.8v0v0v0v0
	 M202.4,7L202.4,7L202.4,7l0.1-0.1l0.1,0l0.1,0l0.1,0l0.1,0l0.1,0 M208.7,7L208.7,7L208.7,7L208.7,7V6.8v0v0v0v0 M202.9,6.7h5.8
	 M202.9,7L202.9,7L202.9,7L202.9,7V6.8v0v0v0v0 M147.4,7L147.4,7L147.4,7l-0.1-0.1l-0.1,0l-0.1,0l-0.1,0l-0.1,0l-0.1,0 M146.9,7
	L146.9,7L146.9,7L146.9,7V6.8v0v0v0v0 M141.1,6.7h5.8 M141.1,7L141.1,7L141.1,7L141.1,7V6.8v0v0v0v0 M140.6,7L140.6,7L140.6,7
	l0.1-0.1l0.1,0l0.1,0l0.1,0l0.1,0l0.1,0 M121.5,6.7l-0.1,0l-0.1,0l-0.1,0l-0.1,0l-0.1,0l0,0l0,0l0,0 M121.5,6.7L121.5,6.7L121.5,6.7
	L121.5,6.7v0.1v0v0v0v0 M121.5,6.7h5.8 M127.3,6.7L127.3,6.7L127.3,6.7L127.3,6.7v0.1v0v0v0v0 M127.3,6.7l0.1,0l0.1,0l0.1,0l0.1,0
	l0.1,0l0,0l0,0l0,0 M202.4,7L202.4,7L202.4,7L202.4,7l0.2,0h0.1l0.1,0l0.1,0l0.1,0 M202.4,7.9l0-0.9 M208.7,7h-5.8 M209.2,7l0,0.9
	 M208.7,7l0.1,0l0.1,0l0.1,0h0.1h0.1l0,0l0,0l0,0 M140.6,7L140.6,7L140.6,7L140.6,7l0.2,0h0.1l0.1,0l0.1,0l0.1,0 M140.6,7.9l0-0.9
	 M184.8,7L184.8,7L184.8,7L184.8,7l0.2,0h0.1l0.1,0l0.1,0l0.1,0 M184.8,7.9l0-0.9 M146.9,7h-5.8 M167.3,7L167.3,7L167.3,7L167.3,7
	l0.2,0h0.1l0.1,0l0.1,0l0.1,0 M167.2,7.9l0-0.9 M191.1,7h-5.8 M191.7,7l0,0.9 M191.1,7l0.1,0l0.1,0l0.1,0h0.1h0.1l0,0l0,0l0,0
	 M173.6,7h-5.8 M147.4,7l0,0.9 M146.9,7l0.1,0l0.1,0l0.1,0h0.1h0.1l0,0l0,0l0,0 M174.1,7l0,0.9 M173.6,7l0.1,0l0.1,0l0.1,0h0.1h0.1
	l0,0l0,0l0,0 M120.9,7L120.9,7L120.9,7L120.9,7l0.2,0h0.1l0.1,0l0.1,0l0.1,0 M120.9,7.9l0-0.9 M127.8,7l0,0.9 M127.3,7l0.1,0l0.1,0
	l0.1,0h0.1h0.1l0,0l0,0l0,0 M127.3,7h-5.8 M341.8,7.9l0.1,0l0.1,0l0.1,0l0.1,0.1l0.1,0.1l0,0.1l0,0.1l0,0.1 M327.8,8.4L327.8,8.4
	l0-0.2l0-0.1l0.1-0.1L328,8l0.1,0l0.1,0l0.1,0 M341.8,8.4L341.8,8.4V8.2V8.1V8V8v0v0v0 M328.3,7.9h13.5 M328.3,8.4L328.3,8.4V8.2
	V8.1V8V8v0v0v0 M341.8,8.4h-13.5 M327.8,8.4L327.8,8.4L327.8,8.4L327.8,8.4l0.2,0h0.1l0.1,0l0.1,0l0.1,0 M327.7,10l0.1-1.6
	 M341.8,8.4l0.1,0l0.1,0l0.1,0h0.1h0.1l0,0l0,0l0,0 M342.3,8.4l0.1,1.6 M65.6,7.9h13.5 M96.5,7.9h13.6 M110.1,7.9L110.1,7.9
	L110.1,7.9L110.1,7.9V8v0.1v0.1v0.1v0.1 M110.1,7.9l0.1,0l0.1,0l0.1,0l0.1,0.1l0.1,0.1l0,0.1l0,0.1l0,0.1 M96.5,8.4L96.5,8.4V8.2
	V8.1V8V8v0v0v0 M96,8.4L96,8.4l0-0.2l0-0.1L96.1,8L96.2,8l0.1,0l0.1,0l0.1,0 M79.6,8.4L79.6,8.4l0-0.2l0-0.1L79.5,8L79.4,8l-0.1,0
	l-0.1,0l-0.1,0 M79.1,8.4L79.1,8.4V8.2V8.1V8V8v0v0v0 M65.6,8.4L65.6,8.4V8.2V8.1V8V8v0v0v0 M65.1,8.4L65.1,8.4l0-0.2l0-0.1L65.2,8
	L65.3,8l0.1,0l0.1,0l0.1,0 M65.6,8.4l-0.1,0l-0.1,0l-0.1,0h-0.1h-0.1l0,0l0,0l0,0 M65,10l0.1-1.6 M79.6,8.4l0.1,1.6 M79.6,8.4
	L79.6,8.4L79.6,8.4L79.6,8.4l-0.2,0h-0.1l-0.1,0l-0.1,0l-0.1,0 M110.1,8.4H96.5 M110.6,8.4l0.1,1.6 M110.6,8.4L110.6,8.4L110.6,8.4
	L110.6,8.4l-0.2,0h-0.1l-0.1,0l-0.1,0l-0.1,0 M79.1,8.4H65.6 M96.5,8.4l-0.1,0l-0.1,0l-0.1,0h-0.1H96l0,0l0,0l0,0 M95.9,10L96,8.4
	 M50.1,7.9h13.5 M94.6,7.9l0.1,0l0.1,0l0.1,0L94.9,8L95,8.1l0,0.1l0,0.1l0,0.1 M50.1,8.4L50.1,8.4V8.2V8.1V8V8v0v0v0 M49.6,8.4
	L49.6,8.4l0-0.2l0-0.1L49.8,8L49.9,8l0.1,0l0.1,0l0.1,0 M94.6,8.4L94.6,8.4V8.2V8.1V8V8v0v0v0 M81,7.9h13.5 M64.2,8.4L64.2,8.4
	l0-0.2l0-0.1L64,8L64,8l-0.1,0l-0.1,0l-0.1,0 M63.7,8.4L63.7,8.4V8.2V8.1V8V8v0v0v0 M81,8.4L81,8.4V8.2V8.1V8V8v0v0v0 M80.5,8.4
	L80.5,8.4l0-0.2l0-0.1L80.7,8L80.8,8l0.1,0l0.1,0l0.1,0 M81,8.4l-0.1,0l-0.1,0l-0.1,0h-0.1h-0.1l0,0l0,0l0,0 M80.5,10l0.1-1.6
	 M64.2,8.4l0.1,1.6 M64.2,8.4L64.2,8.4L64.2,8.4L64.2,8.4l-0.2,0H64l-0.1,0l-0.1,0l-0.1,0 M94.6,8.4H81 M95.1,8.4l0.1,1.6 M95.1,8.4
	L95.1,8.4L95.1,8.4L95.1,8.4l-0.2,0h-0.1l-0.1,0l-0.1,0l-0.1,0 M50.1,8.4l-0.1,0l-0.1,0l-0.1,0h-0.1h-0.1l0,0l0,0l0,0 M49.6,10
	l0.1-1.6 M63.7,8.4H50.1 M83.4,4.2L83.4,4.2L83.4,4.2l0,0.2l0,0.2l0,0.2l0,0.2 M83.4,4.2L83.4,4.2l0-0.2l0-0.1l-0.1-0.1l-0.1-0.1
	l-0.1,0l-0.1,0l-0.1,0 M94.9,3.7h5.6 M94.3,5l0-0.2l0-0.2l0-0.2l0-0.1l0-0.1v0 M94.9,3.7L94.9,3.7l0,0.1l0,0.2l0,0.2l0,0.3l0,0.3
	 M94.9,3.7L94.9,3.7l-0.2,0l-0.1,0l-0.1,0.1l-0.1,0.1l0,0.1l0,0.1l0,0.1 M65.9,4.2L65.9,4.2L65.9,4.2l0,0.2l0,0.2l0,0.2l0,0.2
	 M65.9,4.2L65.9,4.2l0-0.2l0-0.1l-0.1-0.1l-0.1-0.1l-0.1,0l-0.1,0l-0.1,0 M59.2,5l0-0.2l0-0.2l0-0.2l0-0.1l0-0.1l0,0 M59.8,3.7
	L59.8,3.7l-0.2,0l-0.1,0l-0.1,0.1l-0.1,0.1l0,0.1l0,0.1l0,0.1 M76.8,5l0-0.2l0-0.2l0-0.2l0-0.1l0-0.1v0 M77.3,3.7l-0.1,0l-0.1,0
	l-0.1,0L77,3.8l-0.1,0.1l0,0.1l0,0.1l0,0.1 M101,4.2L101,4.2L101,4.2l0,0.2l0,0.2l0,0.2l0,0.2 M101,4.2L101,4.2l0-0.2l0-0.1
	l-0.1-0.1l-0.1-0.1l-0.1,0l-0.1,0l-0.1,0 M100.5,4.7l0-0.3l0-0.3l0-0.2l0-0.2l0-0.1v0 M59.8,3.7h5.6 M59.8,3.7L59.8,3.7l0,0.1l0,0.2
	l0,0.2l0,0.3l0,0.3 M65.4,4.7l0-0.3l0-0.3l0-0.2l0-0.2l0-0.1v0 M77.3,3.7h5.6 M77.3,3.7L77.3,3.7l0,0.1l0,0.2l0,0.2l0,0.3l0,0.3
	 M82.9,4.7l0-0.3l0-0.3l0-0.2l0-0.2l0-0.1l0,0 M94.3,5L94.3,5L94.3,5l0.1-0.1l0.1,0l0.1,0l0.1,0l0.1,0l0.1,0 M94.3,7l0.1-2 M101,5
	L101,5L101,5l-0.1-0.1l-0.1,0l-0.1,0l-0.1,0l-0.1,0l-0.1,0 M101,5l0.1,2 M100.5,4.7h-5.6 M94.9,4.7l-0.1,2 M100.6,6.7l-0.1-2
	 M59.2,5L59.2,5L59.2,5l0.1-0.1l0.1,0l0.1,0l0.1,0l0.1,0l0.1,0 M59.1,7l0.1-2 M82.9,4.7h-5.6 M65.4,4.7h-5.6 M59.7,4.7l-0.1,2
	 M77.3,4.7l-0.1,2 M76.8,5L76.8,5L76.8,5l0.1-0.1l0.1,0l0.1,0l0.1,0l0.1,0l0.1,0 M76.7,7l0.1-2 M65.9,5L65.9,5L65.9,5l-0.1-0.1
	l-0.1,0l-0.1,0l-0.1,0l-0.1,0l-0.1,0 M65.5,6.7l-0.1-2 M65.9,5L66,7 M83.5,5L83.5,5L83.5,5l-0.1-0.1l-0.1,0l-0.1,0l-0.1,0l-0.1,0
	l-0.1,0 M83,6.7l-0.1-2 M83.5,5l0.1,2 M76.7,7L76.7,7L76.7,7l0.1-0.1l0.1,0l0.1,0l0.1,0l0.1,0l0.1,0 M94.8,6.7h5.8 M101.1,7L101.1,7
	L101.1,7L101,6.8l-0.1,0l-0.1,0l-0.1,0l-0.1,0l-0.1,0 M100.6,7L100.6,7L100.6,7L100.6,7V6.8v0v0v0v0 M94.8,7L94.8,7L94.8,7L94.8,7
	V6.8v0v0v0v0 M94.3,7L94.3,7L94.3,7l0.1-0.1l0.1,0l0.1,0l0.1,0l0.1,0l0.1,0 M77.2,6.7H83 M77.2,7L77.2,7L77.2,7L77.2,7V6.8v0v0v0v0
	 M83.5,7L83.5,7L83.5,7l-0.1-0.1l-0.1,0l-0.1,0l-0.1,0l-0.1,0l-0.1,0 M83,7L83,7L83,7L83,7V6.8v0v0v0v0 M66,7L66,7L66,7l-0.1-0.1
	l-0.1,0l-0.1,0l-0.1,0l-0.1,0l-0.1,0 M59.1,7L59.1,7L59.1,7l0.1-0.1l0.1,0l0.1,0l0.1,0l0.1,0l0.1,0 M65.5,7L65.5,7L65.5,7L65.5,7
	V6.8v0v0v0v0 M59.7,6.7h5.8 M59.7,7L59.7,7L59.7,7L59.7,7V6.8v0v0v0v0 M76.7,7L76.7,7L76.7,7L76.7,7l0.2,0h0.1l0.1,0l0.1,0l0.1,0
	 M76.7,7.9l0-0.9 M100.6,7h-5.8 M83,7h-5.8 M83.5,7l0,0.9 M83,7l0.1,0l0.1,0l0.1,0h0.1h0.1l0,0l0,0l0,0 M101.1,7l0,0.9 M100.6,7
	l0.1,0l0.1,0l0.1,0h0.1h0.1l0,0l0,0l0,0 M94.3,7L94.3,7L94.3,7L94.3,7l0.2,0h0.1l0.1,0l0.1,0l0.1,0 M94.2,7.9l0-0.9 M59.1,7L59.1,7
	L59.1,7L59.1,7l0.2,0h0.1l0.1,0l0.1,0l0.1,0 M59.1,7.9l0-0.9 M65.5,7h-5.8 M66,7l0,0.9 M65.5,7l0.1,0l0.1,0l0.1,0h0.1h0.1l0,0l0,0
	l0,0 M265,9.3L265,9.3l0.1,0.1l0,0.1l0,0.1l0,0.1 M265.2,9.6l0,0.4 M110.6,9.3h0.7 M238.8,5.1l0.2,0l0.2,0.1l0.1,0.1l0,0.1l0,0.2
	 M238.8,5.1L238.8,5.1l-0.1,0.2l0,0.1l0,0.1l0,0.2 M235.8,5.1h3 M239.3,5.6l0,2.3 M239.3,5.6L239.3,5.6L239.3,5.6l-0.2,0l-0.1,0
	h-0.1l-0.3,0 M300.9,5.1l-0.2,0l-0.2,0.1l-0.1,0.1l0,0.1l0,0.2 M304.8,5.1l0.2,0l0.2,0.1l0.1,0.1l0,0.1l0,0.2 M300.9,5.1L300.9,5.1
	l0.1,0.2l0,0.1l0,0.1l0,0.2 M304.8,5.1L304.8,5.1l-0.1,0.2l0,0.1l0,0.1l0,0.2 M300.9,5.1h3.9 M304.6,5.6h-3.5 M300.4,7.9l0-2.3
	 M301.1,5.6l-0.3,0h-0.1l-0.1,0l-0.1,0h0l0,0 M305.3,5.6l0,2.3 M305.3,5.6L305.3,5.6L305.3,5.6l-0.2,0l-0.1,0h-0.1l-0.3,0 M32,5.1
	l-0.2,0l-0.2,0.1l-0.1,0.1l0,0.1l0,0.2 M32,5.1L32,5.1l0.1,0.2l0,0.1l0,0.1l0,0.2 M32,5.1h0.5 M31.4,8.9l0.1-3.4 M32.2,5.6l-0.3,0
	h-0.1l-0.1,0l-0.1,0h0l0,0 M32.2,5.6l-0.1,3.4 M31.4,10l0-0.2l0-0.2l0-0.3l0-0.3 M31.4,8.9L31.4,8.9L31.4,8.9l0.2,0h0.1l0.1,0l0.3,0
	 M245.5,5.1l-0.2,0l-0.2,0.1L245,5.3l0,0.1l0,0.2 M245.5,5.1L245.5,5.1l0.1,0.2l0,0.1l0,0.1l0,0.2 M245.5,5.1h3.3 M244.9,7.9l0-2.3
	 M245.6,5.6l-0.3,0h-0.1l-0.1,0l-0.1,0h0l0,0 M224.1,5.1l0.2,0l0.2,0.1l0.1,0.1l0,0.1l0,0.2 M220.2,5.1l-0.2,0l-0.2,0.1l-0.1,0.1
	l0,0.1l0,0.2 M220.2,5.1L220.2,5.1l0.1,0.2l0,0.1l0,0.1l0,0.2 M224.1,5.1L224.1,5.1L224,5.2l0,0.1l0,0.1l0,0.2 M220.2,5.1h3.9
	 M223.9,5.6h-3.5 M219.6,8.1l0-2.6 M220.4,5.6l-0.3,0h-0.1l-0.1,0l-0.1,0h0l0,0 M224.6,5.6l0,2.3 M224.6,5.6L224.6,5.6L224.6,5.6
	l-0.2,0l-0.1,0h-0.1l-0.3,0 M107.8,5.1l-0.2,0l-0.2,0.1l-0.1,0.1l0,0.1l0,0.2 M111.7,5.1l0.2,0l0.2,0.1l0.1,0.1l0,0.1l0,0.2
	 M107.8,5.1L107.8,5.1l0.1,0.2l0,0.1l0,0.1l0,0.2 M111.7,5.1L111.7,5.1l-0.1,0.2l0,0.1l0,0.1l0,0.2 M107.8,5.1h3.9 M112.3,5.6l0,2.3
	 M112.3,5.6L112.3,5.6L112.3,5.6l-0.2,0l-0.1,0h-0.1l-0.3,0 M111.6,5.6H108 M107.3,7.9l0-2.3 M108,5.6l-0.3,0h-0.1l-0.1,0l-0.1,0h0
	l0,0 M140.1,5.1l-0.2,0l-0.2,0.1l-0.1,0.1l0,0.1l0,0.2 M140.1,5.1L140.1,5.1l0.1,0.2l0,0.1l0,0.1l0,0.2 M140.1,5.1h0.5 M139.6,7.9
	l0-2.3 M140.3,5.6l-0.3,0h-0.1l-0.1,0l-0.1,0h0l0,0 M154.6,5.1l0.2,0l0.2,0.1l0.1,0.1l0,0.1l0,0.2 M150.7,5.1l-0.2,0l-0.2,0.1
	l-0.1,0.1l0,0.1l0,0.2 M150.7,5.1L150.7,5.1l0.1,0.2l0,0.1l0,0.1l0,0.2 M154.6,5.1L154.6,5.1l-0.1,0.2l0,0.1l0,0.1l0,0.2 M150.7,5.1
	h3.9 M154.4,5.6h-3.5 M150.1,7.9l0-2.3 M150.9,5.6l-0.3,0h-0.1l-0.1,0l-0.1,0h0l0,0 M155.1,5.6l0,2.3 M155.1,5.6L155.1,5.6
	L155.1,5.6l-0.2,0l-0.1,0h-0.1l-0.3,0 M161.2,5.1l-0.2,0l-0.2,0.1l-0.1,0.1l0,0.1l0,0.2 M165.1,5.1l0.2,0l0.2,0.1l0.1,0.1l0,0.1
	l0,0.2 M161.2,5.1L161.2,5.1l0.1,0.2l0,0.1l0,0.1l0,0.2 M165.1,5.1L165.1,5.1L165,5.2l0,0.1l0,0.1l0,0.2 M161.2,5.1h3.9 M160.6,7.9
	l0-2.3 M161.4,5.6l-0.3,0H161l-0.1,0l-0.1,0h0l0,0 M165.6,5.6l0,2.3 M165.6,5.6L165.6,5.6L165.6,5.6l-0.2,0l-0.1,0h-0.1l-0.3,0
	 M164.9,5.6h-3.5 M259.9,5.1l0.2,0l0.2,0.1l0.1,0.1l0,0.1l0,0.2 M256,5.1l-0.2,0l-0.2,0.1l-0.1,0.1l0,0.1v0 M256,5.1L256,5.1
	l0.1,0.2l0,0.1l0,0.1l0,0.2 M259.9,5.1L259.9,5.1l-0.1,0.2l0,0.1l0,0.1l0,0.2 M256,5.1h3.9 M259.7,5.6h-3.5 M256.2,5.6l-0.3,0h-0.1
	l-0.1,0l-0.1,0h0l0,0 M260.4,5.6l0,2.3 M260.4,5.6L260.4,5.6L260.4,5.6l-0.2,0l-0.1,0H260l-0.3,0 M209.7,5.1l-0.2,0l-0.2,0.1
	l-0.1,0.1l0,0.1l0,0 M213.5,5.1l0.2,0l0.2,0.1l0.1,0.1l0,0.1l0,0.2 M209.7,5.1L209.7,5.1l0.1,0.2l0,0.1l0,0.1l0,0.2 M213.5,5.1
	L213.5,5.1l-0.1,0.2l0,0.1l0,0.1l0,0.2 M209.7,5.1h3.9 M214.1,5.6l0,2.3 M214.1,5.6L214.1,5.6L214.1,5.6l-0.2,0l-0.1,0h-0.1l-0.3,0
	 M213.4,5.6h-3.5 M209.8,5.6l-0.3,0h-0.1l-0.1,0l-0.1,0h0l0,0 M197.4,5.1l0.2,0l0.2,0.1l0.1,0.1l0,0.1l0,0.2 M193.5,5.1l-0.2,0
	l-0.2,0.1l-0.1,0.1l0,0.1l0,0.2 M193.5,5.1L193.5,5.1l0.1,0.2l0,0.1l0,0.1l0,0.2 M197.4,5.1L197.4,5.1l-0.1,0.2l0,0.1l0,0.1l0,0.2
	 M193.5,5.1h3.9 M197.9,5.6l0,2.3 M197.9,5.6L197.9,5.6L197.9,5.6l-0.2,0l-0.1,0h-0.1l-0.3,0 M192.9,7.9l0-2.3 M193.7,5.6l-0.3,0
	h-0.1l-0.1,0l-0.1,0h0l0,0 M197.2,5.6h-3.5 M8.8,5.1l-0.2,0L8.5,5.2L8.4,5.3l0,0.1l0,0.2 M12.7,5.1l0.2,0l0.2,0.1l0.1,0.1l0,0.1
	l0,0.2 M8.8,5.1L8.8,5.1L9,5.2l0,0.1l0,0.1l0,0.2 M12.7,5.1L12.7,5.1l-0.1,0.2l0,0.1l0,0.1l0,0.2 M8.8,5.1h3.9 M8.3,8.9l0.1-3.4
	 M9,5.6l-0.3,0H8.6l-0.1,0l-0.1,0h0l0,0 M12.5,5.6H9 M9,5.6L9,8.9 M13.2,5.6l0.1,3.4 M13.2,5.6L13.2,5.6L13.2,5.6l-0.2,0l-0.1,0
	h-0.1l-0.3,0 M12.6,8.9l-0.1-3.4 M13.3,8.9l0,0.3l0,0.3l0,0.2l0,0.2 M13.3,8.9L13.3,8.9L13.3,8.9l-0.2,0H13l-0.1,0l-0.3,0 M8.2,10
	l0-0.2l0-0.2l0-0.3l0-0.3 M8.3,8.9L8.3,8.9L8.3,8.9l0.2,0h0.1l0.1,0l0.3,0 M9,8.9h3.6 M22.6,5.1l0.2,0l0.2,0.1L23,5.3l0,0.1l0,0.2
	 M18.7,5.1l-0.2,0l-0.2,0.1l-0.1,0.1l0,0.1l0,0.2 M18.7,5.1L18.7,5.1l0.1,0.2l0,0.1l0,0.1l0,0.2 M22.6,5.1L22.6,5.1l-0.1,0.2l0,0.1
	l0,0.1l0,0.2 M18.7,5.1h3.9 M18.1,8.9l0.1-3.4 M18.8,5.6l-0.3,0h-0.1l-0.1,0l-0.1,0h0l0,0 M23.1,5.6l0.1,3.4 M23.1,5.6L23.1,5.6
	L23.1,5.6l-0.2,0l-0.1,0h-0.1l-0.3,0 M22.4,8.9l-0.1-3.4 M22.4,5.6h-3.5 M18.8,5.6l-0.1,3.4 M23.1,8.9l0,0.3l0,0.3l0,0.2l0,0.2
	 M23.1,8.9L23.1,8.9L23.1,8.9l-0.2,0h-0.1l-0.1,0l-0.3,0 M18.1,10l0-0.2l0-0.2l0-0.3l0-0.3 M18.1,8.9L18.1,8.9L18.1,8.9l0.2,0h0.1
	l0.1,0l0.3,0 M18.8,8.9h3.6 M322,5.1l-0.2,0l-0.2,0.1l-0.1,0.1l0,0.1l0,0.2 M325.9,5.1l0.2,0l0.2,0.1l0.1,0.1l0,0.1l0,0.2 M322,5.1
	L322,5.1l0.1,0.2l0,0.1l0,0.1l0,0.2 M325.9,5.1L325.9,5.1l-0.1,0.2l0,0.1l0,0.1l0,0.2 M322,5.1h3.9 M321.4,7.9l0-2.3 M322.2,5.6
	l-0.3,0h-0.1l-0.1,0l-0.1,0h0l0,0 M326.4,5.6l0,2.3 M326.4,5.6L326.4,5.6L326.4,5.6l-0.2,0l-0.1,0H326l-0.3,0 M325.7,5.6h-3.5
	 M332.5,5.1l-0.2,0l-0.2,0.1l-0.1,0.1l0,0.1l0,0.2 M336.4,5.1l0.2,0l0.2,0.1l0.1,0.1l0,0.1l0,0.2 M332.5,5.1L332.5,5.1l0.1,0.2
	l0,0.1l0,0.1l0,0.2 M336.4,5.1L336.4,5.1l-0.1,0.2l0,0.1l0,0.1l0,0.2 M332.5,5.1h3.9 M336.9,5.6l0,2.3 M336.9,5.6L336.9,5.6
	L336.9,5.6l-0.2,0h-0.1l-0.1,0l-0.3,0 M336.2,5.6h-3.5 M332,7.9l0-2.3 M332.7,5.6l-0.3,0l-0.1,0h-0.1h-0.1l0,0l0,0 M70.6,5.1l-0.2,0
	l-0.2,0.1l-0.1,0.1l0,0.1l0,0.2 M74.5,5.1l0.2,0l0.2,0.1L75,5.3l0,0.1l0,0.2 M70.6,5.1L70.6,5.1l0.1,0.2l0,0.1l0,0.1l0,0.2
	 M74.5,5.1L74.5,5.1l-0.1,0.2l0,0.1l0,0.1l0,0.2 M70.6,5.1h3.9 M75,5.6l0,2.3 M75,5.6L75,5.6L75,5.6l-0.2,0l-0.1,0h-0.1l-0.3,0
	 M70.1,7.9l0-2.3 M70.8,5.6l-0.3,0h-0.1l-0.1,0l-0.1,0h0l0,0 M74.3,5.6h-3.5 M178.1,5.1l-0.2,0l-0.2,0.1l-0.1,0.1l0,0.1l0,0.2
	 M181.9,5.1l0.2,0l0.2,0.1l0.1,0.1l0,0.1l0,0.2 M178.1,5.1L178.1,5.1l0.1,0.2l0,0.1l0,0.1l0,0.2 M181.9,5.1L181.9,5.1l-0.1,0.2
	l0,0.1l0,0.1l0,0.2 M178.1,5.1h3.9 M181.8,5.6h-3.5 M177.5,7.9l0-2.3 M178.2,5.6l-0.3,0h-0.1l-0.1,0l-0.1,0h0l0,0 M182.5,5.6l0,2.3
	 M182.5,5.6L182.5,5.6L182.5,5.6l-0.2,0l-0.1,0h-0.1l-0.3,0 M273.6,5.1l-0.2,0l-0.2,0.1l-0.1,0.1l0,0.1l0,0.2 M273.6,5.1L273.6,5.1
	l0.1,0.2l0,0.1l0,0.1l0,0.2 M273.6,5.1h1.9 M273,7.9l0-2.3 M273.7,5.6l-0.3,0h-0.1l-0.1,0l-0.1,0h0l0,0 M128.6,5.1l0.2,0l0.2,0.1
	l0.1,0.1l0,0.1l0,0.2 M128.6,5.1L128.6,5.1l-0.1,0.2l0,0.1l0,0.1l0,0.2 M127.7,5.1h0.9 M129.1,5.6l0,2.3 M129.1,5.6L129.1,5.6
	L129.1,5.6l-0.2,0l-0.1,0h-0.1l-0.3,0 M292.9,5.1l0.1,0 M289,5.1l-0.2,0l-0.2,0.1l-0.1,0.1l0,0.1l0,0.2 M289,5.1L289,5.1l0.1,0.2
	l0,0.1l0,0.1l0,0.2 M292.9,5.1L292.9,5.1l-0.1,0.2l0,0.1l0,0.1l0,0.2 M289,5.1h3.9 M288.4,7.9l0-2.3 M289.2,5.6l-0.3,0h-0.1l-0.1,0
	l-0.1,0h0l0,0 M292.7,5.6h-3.5 M40.3,3.2L40.3,3.2H40h-0.5h-0.7 M38.8,3.2h-0.8h-0.8h-0.7h-0.6h-0.4h-0.1 M35.4,2.5L35.4,2.5h0.3
	h0.5h0.7h0.8h0.8h0.7h0.6h0.4h0.1 M36,0.8h-0.1H36h0.5h0.6h0.7h0.7h0.6h0.4 M86.1,2.3h0.1h0.4h0.6H88h1h1.1h1.1h1.1h1h0.9h0.7h0.5
	h0.2h0 M85.5,2.8L85.5,2.8l0-0.2l0-0.1l0.1-0.1l0.1-0.1l0.1,0l0.1,0l0.1,0 M85.5,2.8l0,1.1l0,0.6 M9.9,2.3L9.9,2.3h0.4h0.5h0.8h0.9
	h1h1.1h1.1h1h0.9h0.8H19h0.3h0.1 M47.5,2.3h0.1H48h0.6h0.8h1h1.1h1.1h1.1h1h0.9h0.7h0.5h0.2h0 M46.9,2.8L46.9,2.8l0-0.2l0-0.1
	l0.1-0.1l0.1-0.1l0.1,0l0.1,0l0.1,0 M46.9,2.8l0,1.1l0,0.6 M46.8,9.5l0,0.1l0,0.1l0,0.1l-0.1,0.1l-0.1,0.1l-0.1,0l-0.1,0l-0.1,0
	 M33,2.8L33,2.8L33,2.8h-0.1h0h0h0h0h0 M32.8,9.5l-0.1,0h-0.1l0,0 M33.2,2.3h2.1 M33,2.8L33,2.8l0-0.2l0-0.1l0-0.1l0-0.1l0,0l0,0
	l0,0 M33,2.8l-0.1,6.7 M35.5,7.9l0,1.5 M32.8,9.5h2.7 M32.5,10L32.5,10L32.5,10l0.1-0.1l0-0.1l0-0.1l0-0.1l0-0.1l0-0.1 M35.5,9.5
	l0,0.1l0,0.1l0,0.1l0,0.1l0,0.1l0,0l0,0l-0.1,0 M33.2,2.3L33.2,2.3l-0.2,0l-0.1,0l-0.1,0.1l-0.1,0.1l0,0.1l0,0.1l0,0.1 M33.1,2.3
	L33.1,2.3h0.2 M40.3,2.3H41h0.7h0.5h0.3h0 M32.6,9.5l0-1.1l0.1-4.2l0-1.4 M32.1,10L32.1,10l0.2,0l0.1,0l0.1-0.1l0.1-0.1l0-0.1l0-0.1
	l0-0.1 M35.7,8.6V10 M39.9,10V8.6 M39.9,10V8.6 M35.7,8.6V10 M35.8,8.7V10 M39.9,10V8.7 M39.9,10V8.8 M35.8,8.8V10 M35.9,9V10
	 M39.8,10V9 M39.8,10V9.1 M35.9,9.1V10 M36,9.5V10 M39.6,10V9.5 M39.6,10V9.6 M36,9.6V10 M0.9,23.6l0.2,0.3l0.3,0.2 M344.6,24.1
	l0.3-0.2l0.2-0.3 M340.2,26.7L340.2,26.7 M5.7,26.7L5.7,26.7 M340.4,26.6l4.2-2.6 M1.4,24.1l4.2,2.6 M0.7,20.4l0.1,0.1l0,0.1l0,0
	l0,0l0,0l0,0l0,0l0.1,0.1 M0.6,23l0.1,0.3l0.1,0.3 M345.1,23.6l0.1-0.3l0.1-0.3 M35.7,8.6V10 M39.9,10V8.6 M39.5,10l0.7-2.2
	 M35.5,7.8l0.7,2.2 M40.2,7.8L40.2,7.8l0-0.2l0-0.1l0-0.1l0-0.1l0-0.1l0-0.1l0-0.1 M35.4,7.2L35.4,7.2l0,0.2l0,0.1l0,0.1l0,0.1
	l0,0.1l0,0.1l0,0.1 M35.4,2.5L35.4,2.5l0.2,0.2l0,0.1l0,0.1l0,0.1l0,0.1l-0.1,0.1l-0.1,0.1 M40.3,3.2L40.3,3.2l-0.2-0.2l0-0.1l0-0.1
	l0-0.1l0-0.1l0.1-0.1l0.1-0.1 M35.4,3.2v3.9 M40.3,7.2V3.2 M35.4,1.2v1.3 M40.3,2.5V1.2 M36,0.8l-0.3,0l-0.2,0.1l-0.1,0.1L35.4,1
	l0,0.1l0,0.1 M40.3,1.3l0-0.1l0-0.1l-0.1-0.1l-0.1-0.1l-0.2-0.1l-0.3,0 M96.1,2.8L96.1,2.8l0-0.2l0-0.1L96,2.4l-0.1-0.1l-0.1,0
	l-0.1,0l-0.1,0 M85.5,4.4l-0.1,3.5 M96.1,3.7l0-0.9 M19.9,2.8L19.9,2.8l0-0.2l0-0.1l-0.1-0.1l-0.1-0.1l-0.1,0l-0.1,0l-0.1,0
	 M9.9,2.3l-0.1,0l-0.1,0l-0.1,0L9.5,2.4L9.5,2.5l0,0.1l0,0.1l0,0.1 M9.4,2.8L9.3,5.1 M20,5.1l-0.1-2.3 M57.5,2.8L57.5,2.8l0-0.2
	l0-0.1l-0.1-0.1l-0.1-0.1l-0.1,0l-0.1,0l-0.1,0 M46.9,4.4l-0.1,5.1 M57.6,7.9l-0.1-5.1 M43.1,2.8L43.1,2.8l0-0.2l0-0.1l-0.1-0.1
	l-0.1-0.1l-0.1,0l-0.1,0l-0.1,0 M33.1,2.3l-0.1,0l-0.1,0l-0.1,0l-0.1,0.1l-0.1,0.1l0,0.1l0,0.1l0,0.1 M32.5,2.8l-0.2,6.7 M43.3,9.5
	l-0.2-6.7 M43.8,10l-0.1,0l-0.1,0l-0.1,0l-0.1-0.1l-0.1-0.1l0-0.1l0-0.1l0-0.1 M32.4,9.5l0,0.1l0,0.1l0,0.1l-0.1,0.1l-0.1,0.1
	l-0.1,0l-0.1,0l-0.1,0 M13.9,26.9l1.3,0.3l1.3,0.2l1.3,0.1l1.3,0l1.3,0l1.3-0.1l1.3-0.2l1.3-0.3 M24.5,26.9L24.5,26.9L24.5,26.9
	L24.5,26.9L24.5,26.9L24.5,26.9L24.5,26.9L24.5,26.9L24.5,26.9 M13.9,26.8L13.9,26.8L13.9,26.8L13.9,26.8L13.9,26.8L13.9,26.8
	L13.9,26.8L13.9,26.8L13.9,26.8 M321.5,26.9l1.3,0.3l1.3,0.2l1.3,0.1l1.3,0l1.3,0l1.3-0.1l1.3-0.2l1.3-0.3 M332,26.9L332,26.9
	L332,26.9L332,26.9L332,26.9L332,26.9L332,26.9L332,26.9L332,26.9 M321.4,26.8L321.4,26.8L321.4,26.8L321.4,26.8L321.4,26.8
	L321.4,26.8L321.4,26.8L321.4,26.8L321.4,26.8"/>
</svg>
