<?xml version="1.0" encoding="utf-8"?>
<!-- Generator: Adobe Illustrator 23.0.6, SVG Export Plug-In . SVG Version: 6.00 Build 0)  -->
<svg version="1.1" id="Layer_1" xmlns="http://www.w3.org/2000/svg" xmlns:xlink="http://www.w3.org/1999/xlink" x="0px" y="0px"
	 viewBox="0 0 345.8 28.3" style="enable-background:new 0 0 345.8 28.3;" xml:space="preserve">
<style type="text/css">
	.st0{fill:none;stroke:#010101;stroke-width:0.2835;stroke-linecap:round;stroke-linejoin:round;stroke-miterlimit:10;}
</style>
<path class="st0" d="M336.8,26.5h1.3h1.1h0.8h0.2 M5.7,26.5h0.2h0.8h1.1h1.3 M0.9,23.5L0.9,23.5h0.5h0.5h0.7h0.8h1.5 M341,23.5h1.5
	h0.8h0.7h0.5h0.4h0.1 M63.7,8.3L63.7,8.3h-0.2h-0.2h-0.2H63h-0.1h-0.1l0,0 M28.6,8.3L28.6,8.3h-0.2h-0.2H28h-0.1h-0.1h-0.1l0,0
	 M117.8,8.3L117.8,8.3L117.8,8.3h-0.2h-0.1h-0.2h-0.2h-0.2l0,0 M81.5,8h4 M24.5,8h2.6 M57.5,8h4.7 M118.3,8h3 M126.4,8.5L126.4,8.5
	V8.3V8.2 M27.2,9.2V8.1 M81.5,8v1.1 M60.2,9.7h2.1 M118.2,9.7h3.1 M118.2,9.7L118.2,9.7H118h-0.1l-0.1,0.1l-0.1,0.1 M118.2,9.7
	L118.2,9.7L118.2,9.7v0.1v0.1l0,0 M126.3,9.9L126.3,9.9 M19.5,9.7L19.5,9.7h-0.2h-0.1l-0.1,0.1L19,9.9 M19.5,9.7L19.5,9.7L19.5,9.7
	v0.1v0.1l0,0 M24.6,9.7H26 M62.3,9.7L62.3,9.7L62.3,9.7v0.1v0.1l0,0 M62.3,9.7L62.3,9.7h0.2h0.1l0.1,0.1l0.1,0.1 M162,8.3L162,8.3
	L162,8.3h-0.2h-0.1h-0.2h-0.2h-0.2l0,0 M198.4,8.3L198.4,8.3h-0.2H198h-0.2h-0.1h-0.1h-0.1l0,0 M171.7,8.3L171.7,8.3h-0.2h-0.2h-0.2
	H171h-0.1h-0.1l0,0 M225.9,8.3L225.9,8.3L225.9,8.3h-0.2h-0.1h-0.2h-0.2H225l0,0 M127.7,8h4.1 M195.8,8h1.2 M189.5,8h1.2 M226.4,8
	h7.2 M168.4,8h1.9 M162.5,8h0.9 M170.4,9.7L170.4,9.7h0.2h0.1l0.1,0.1l0.1,0.1 M195.8,9.7h1.3 M189.5,9.7h1.3 M127.6,9.7h-0.1h-0.1
	h-0.1l-0.1,0.1l-0.1,0.1 M226.3,9.7h-0.1h-0.1H226l-0.1,0.1l-0.1,0.1 M189.5,9.7L189.5,9.7h-0.2h-0.1l-0.1,0.1L189,9.9 M189.5,9.7
	L189.5,9.7L189.5,9.7v0.1v0.1l0,0 M170.4,9.7L170.4,9.7L170.4,9.7v0.1v0.1l0,0 M168.5,9.7h2 M162.5,9.7h0.9 M162.5,9.7h-0.1h-0.1
	h-0.1l-0.1,0.1L162,9.9 M162.5,9.7L162.5,9.7L162.5,9.7v0.1v0.1l0,0 M197.1,9.7L197.1,9.7L197.1,9.7v0.1v0.1l0,0 M197.1,9.7h0.1h0.1
	h0.1l0.1,0.1l0.1,0.1 M226.3,9.7L226.3,9.7L226.3,9.7v0.1v0.1l0,0 M226.3,9.7h5.6 M127.6,9.7L127.6,9.7L127.6,9.7v0.1v0.1l0,0
	 M127.6,9.7h4.2 M46.1,8.3L46.1,8.3h-0.2h-0.2h-0.1 M36.4,8.3L36.4,8.3L36.4,8.3h-0.2h-0.1h-0.2h-0.2h-0.2l0,0 M73,8h6.6 M36.9,8
	h3.7 M101,8h5.5 M36.8,9.7h2.5 M76.4,9.7h3.2 M36.8,9.7L36.8,9.7L36.8,9.7v0.1v0.1l0,0 M36.8,9.7L36.8,9.7h-0.2h-0.1l-0.1,0.1
	l-0.1,0.1 M80,9.9L80,9.9l-0.1-0.1h-0.1h-0.1h-0.1 M79.6,9.7L79.6,9.7L79.6,9.7v0.1v0.1l0,0 M179.6,8.3L179.6,8.3L179.6,8.3h-0.2
	h-0.1h-0.2h-0.2h-0.2l0,0 M154.2,8.3L154.2,8.3H154h-0.2h-0.2h-0.1h-0.1h-0.1l0,0 M144.5,8.3L144.5,8.3L144.5,8.3h-0.2h-0.1H144
	h-0.2h-0.2l0,0 M185.3,8h2.4 M180.1,8h0.2 M145,8h3 M153.3,8.5L153.3,8.5V8.3V8.2l-0.1-0.1L153.1,8H153l0,0 M206.7,8h-0.1h-0.1h-0.1
	l-0.1,0.1l0,0 M206.7,8v1.1 M216.7,9.2V8.1 M144.9,9.7h3.1 M153.3,9.9L153.3,9.9l-0.1-0.1h-0.1H153 M144.9,9.7L144.9,9.7L144.9,9.7
	v0.1v0.1l0,0 M144.9,9.7L144.9,9.7h-0.2h-0.1l-0.1,0.1l-0.1,0.1 M185.3,9.7h2.4 M180,9.7h0.3 M188.1,9.9L188.1,9.9L188,9.8h-0.1
	h-0.1h-0.1 M187.7,9.7L187.7,9.7L187.7,9.7v0.1v0.1l0,0 M180,9.7L180,9.7L180,9.7v0.1v0.1l0,0 M180,9.7L180,9.7h-0.2h-0.1l-0.1,0.1
	l-0.1,0.1 M34.9,5.1V3.8 M29.2,3.8L29,9.1 M46.8,3.8l-0.2,5.4 M70,5V3.9 M110.6,3.8v1.1 M96.6,5V3.9 M35.1,9.7L35.1,9.7L35.1,9.7
	h0.2l0.1,0.1l0,0 M116.8,9.9L116.8,9.9L116.8,9.9l-0.2-0.1h-0.1h-0.1 M52.6,9.7L52.6,9.7 M46.9,9.7h5.7 M90.8,9.7L90.8,9.7h-0.2l0,0
	 M90.8,9.7L90.8,9.7L90.8,9.7v0.1l0,0 M90.8,9.7h5.3 M64.1,9.7h3.8 M64.1,9.7H64h-0.1h-0.1l-0.1,0.1l0,0 M64.1,9.7L64.1,9.7
	L64.1,9.7v0.1l0,0 M116.5,9.9L116.5,9.9L116.5,9.9V9.8l0,0 M111.6,9.7h4.9 M204.7,5V3.9 M218.7,3.8v1.1 M143.1,9.7L143.1,9.7
	L143.1,9.7v0.1v0.1 M143.1,9.7h0.1h0.1h0.1l0.1,0.1l0,0 M137.1,9.7L137.1,9.7h-0.2l0,0 M137.1,9.7L137.1,9.7L137.1,9.7v0.1v0.1
	 M154.7,9.7h-0.1h-0.1h-0.1l-0.1,0.1l0,0 M154.7,9.7L154.7,9.7L154.7,9.7v0.1l0,0 M172.2,9.7L172.2,9.7H172h-0.1l-0.1,0.1l0,0
	 M172.2,9.7L172.2,9.7L172.2,9.7v0.1l0,0 M223.4,9.7h1.1 M198.9,9.7h-0.1h-0.1h-0.1l-0.1,0.1l0,0 M224.9,9.9L224.9,9.9L224.9,9.9
	l-0.2-0.1h-0.1h-0.1 M224.5,9.9L224.5,9.9L224.5,9.9V9.8l0,0 M160.7,9.7L160.7,9.7L160.7,9.7v0.1l0,0 M160.7,9.7h0.1h0.1h0.1
	l0.1,0.1l0,0 M198.9,9.7L198.9,9.7L198.9,9.7v0.1l0,0 M198.9,9.7h0.8 M178.2,9.7L178.2,9.7L178.2,9.7v0.1l0,0 M178.2,9.7L178.2,9.7
	h0.2h0.1l0.1,0.1l0,0 M14,8h3.7 M4.2,8H9 M4.1,9.7L4.1,9.7H3.9H3.8L3.7,9.8l0,0 M4.1,9.7L4.1,9.7L4.1,9.7v0.1l0,0 M17.4,9.7h0.4
	 M4.1,9.7H9 M18.1,9.9L18.1,9.9L18.1,9.9l-0.2-0.1h-0.1h-0.1 M17.8,9.7L17.8,9.7L17.8,9.7v0.1l0,0 M279.8,8.3L279.8,8.3h-0.2h-0.2
	h-0.2h-0.1H279h-0.1l0,0 M270.1,8.3L270.1,8.3L270.1,8.3h-0.2h-0.1h-0.2h-0.2h-0.2l0,0 M244.7,8.3L244.7,8.3h-0.2h-0.2h-0.2H244
	h-0.1h-0.1l0,0 M238.6,8h4.7 M275.8,8h2.6 M270.6,8h0.2 M278.5,9.2V8.1 M270.6,9.7L270.6,9.7h-0.2h-0.1l-0.1,0.1l-0.1,0.1
	 M278.9,9.8L278.9,9.8L278.9,9.8 M270.6,9.7L270.6,9.7L270.6,9.7v0.1v0.1l0,0 M270.6,9.7h0.2 M239.5,9.7h3.9 M243.4,9.7L243.4,9.7
	L243.4,9.7v0.1v0.1l0,0 M243.4,9.7h0.1l0,0 M287.6,8.3L287.6,8.3L287.6,8.3h-0.2h-0.1h-0.2h-0.2h-0.2l0,0 M262.3,8.3L262.3,8.3h-0.2
	h-0.2h-0.2h-0.1h-0.1h-0.1l0,0 M288.2,8L288.2,8 M260.5,8h0.4 M260.9,9.2V8.1 M288.2,8v1.1 M245.4,3.8h4.3 M245.4,3.8l-0.2,5.3
	 M286.3,9.2l-0.2-5.3 M262.7,9.7L262.7,9.7 M280.3,9.7h-0.1h-0.1H280l-0.1,0.1l0,0 M280.3,9.7L280.3,9.7L280.3,9.7v0.1l0,0
	 M280.3,9.7h2.9 M268.8,9.7L268.8,9.7h0.2h0.1l0.1,0.1l0,0 M262.7,9.7L262.7,9.7L262.7,9.7v0.1l0,0 M268.8,9.7L268.8,9.7L268.8,9.7
	v0.1l0,0 M59.7,9.5h-2.1 M59.7,9.9V9.5 M40.5,9.5h-0.7 M46.3,9.5h-0.7 M39.8,9.5v0.4 M46.4,9.9V9.5 M30,9.5h-3.5 M26.5,9.5v0.4
	 M16.9,9.5h-2.8 M16.9,9.9V9.5 M288.2,9.5h-4.4 M283.7,9.5v0.4 M249.6,9.5h-5.5 M244.1,9.5v0.4 M262.2,9.5h-1.6 M262.2,9.9V9.5
	 M85.5,9.5h-4.2 M81.2,9.5v0.4 M233.6,9.5h-1.1 M239,9.5h-0.4 M239,9.9V9.5 M232.5,9.5v0.4 M75.8,9.5H73 M75.8,9.9V9.5 M278.3,9.5
	h-2.5 M278.3,9.9V9.5 M216.6,9.5h-0.3 M222.9,9.5h-1.1 M222.9,9.9V9.5 M216.3,9.5v0.4 M201.3,9.5h-1.1 M206.7,9.5h-0.4 M206.7,9.9
	V9.5 M200.2,9.5v0.4 M106.7,9.9L106.7,9.9l0.2-0.3l0.2-0.3l0.1-0.2V8.9 M110.9,8.8V9l0.1,0.2l0.2,0.3l0.2,0.2l0.1,0.1 M40.8,9.9
	L40.8,9.9L41,9.6l0.2-0.3l0.1-0.2V8.9 M44.9,8.8V9L45,9.2l0.2,0.3l0.2,0.2l0.1,0.1 M309.6,9.9L309.6,9.9l0.2-0.3l0.2-0.3l0.1-0.2
	V8.9 M313.7,8.8V9l0.1,0.2l0.2,0.3l0.2,0.2l0.1,0.1 M96.2,9.9L96.2,9.9l0.2-0.3l0.2-0.3l0.1-0.2V8.9 M100.4,8.8V9l0.1,0.2l0.2,0.3
	l0.2,0.2l0.1,0.1 M121.5,9.9L121.5,9.9l0.2-0.3l0.2-0.3l0.1-0.2V8.9 M125.6,8.8V9l0.1,0.2l0.2,0.3l0.2,0.2l0.1,0.1 M233.8,9.9
	L233.8,9.9l0.2-0.3l0.2-0.3l0.1-0.2V8.9 M237.9,8.8V9l0.1,0.2l0.2,0.3l0.2,0.2l0.1,0.1 M201.5,9.9L201.5,9.9l0.2-0.3l0.2-0.3
	l0.1-0.2V8.9 M205.6,8.8V9l0.1,0.2l0.2,0.3l0.2,0.2l0.1,0.1 M191,9.9L191,9.9l0.2-0.3l0.2-0.3l0.1-0.2V8.9 M195.1,8.8V9l0.1,0.2
	l0.2,0.3l0.2,0.2l0.1,0.1 M180.4,9.9L180.4,9.9l0.2-0.3l0.2-0.3l0.1-0.2V8.9 M184.6,8.8V9l0.1,0.2l0.2,0.3l0.2,0.2l0.1,0.1
	 M85.7,9.9L85.7,9.9l0.2-0.3l0.2-0.3l0.1-0.2V8.9 M89.8,8.8V9l0.1,0.2l0.2,0.3l0.2,0.2l0.1,0.1 M30.2,9.9L30.2,9.9l0.2-0.3l0.2-0.3
	l0.1-0.2V8.9 M34.4,8.8V9l0.1,0.2l0.2,0.3l0.2,0.2L35,9.8 M132,9.9L132,9.9l0.2-0.3l0.2-0.3l0.1-0.2V8.9 M136.1,8.8V9l0.1,0.2
	l0.2,0.3l0.2,0.2l0.1,0.1 M148.2,9.9L148.2,9.9l0.2-0.3l0.2-0.3l0.1-0.2V8.9 M152.3,8.8V9l0.1,0.2l0.2,0.3l0.2,0.2l0.1,0.1
	 M336.8,5.5h-0.2 M336.6,8.8h0.2 M336.9,8.8V9l0.1,0.2l0.2,0.3l0.2,0.2l0.1,0.1 M325.9,5.5h-2.4 M323.4,8.8h2.3 M322.9,9.9
	L322.9,9.9l0.2-0.3l0.2-0.3l0.1-0.2V8.9 M19.7,9.9L19.7,9.9l0.2-0.3l0.2-0.3l0.1-0.2V8.9 M23.8,8.8V9l0.1,0.2l0.2,0.3l0.2,0.2
	l0.1,0.1 M13.9,9.9L13.9,9.9 M271,9.9L271,9.9l0.2-0.3l0.2-0.3l0.1-0.2V8.9 M275.1,8.8V9l0.1,0.2l0.2,0.3l0.2,0.2l0.1,0.1
	 M163.6,9.9L163.6,9.9l0.2-0.3l0.2-0.3l0.1-0.2V8.9 M167.7,8.8V9l0.1,0.2l0.2,0.3l0.2,0.2l0.1,0.1 M68.1,9.9L68.1,9.9l0.2-0.3
	l0.2-0.3l0.1-0.2V8.9 M72.3,8.8V9l0.1,0.2l0.2,0.3l0.2,0.2l0.1,0.1 M216.9,9.9L216.9,9.9l0.2-0.3l0.2-0.3l0.1-0.2V8.9 M221.1,8.8V9
	l0.1,0.2l0.2,0.3l0.2,0.2l0.1,0.1 M52.7,9.9L52.7,9.9l0.2-0.3l0.2-0.3l0.1-0.2V8.9 M56.8,8.8V9l0.1,0.2l0.2,0.3l0.2,0.2l0.1,0.1
	 M310.5,1.2h-0.1h-0.5h-0.8h-0.9h-0.9h-0.8h-0.6 M305.8,1.2h-0.2l0,0 M257.7,2.2L257.7,2.2l-0.1,0.2l-0.1,0.1 M258,2.7h-0.1h-0.1
	h-0.1h-0.1 M258.2,9.4h-0.1H258h-0.1h-0.1 M260.5,7.8L260.5,7.8v1.5 M255,2.7h-1.2h-1.1h-1h-0.8h-0.6h-0.4h-0.1 M249.6,9.4
	L249.6,9.4h0.2h0.5h0.7h0.9h1h1.1h1.2 M296.3,2.2L296.3,2.2l-0.1,0.2l-0.1,0.1 M296.6,2.7h-0.1h-0.1h-0.1h-0.1 M296.8,9.4h-0.1h-0.1
	h-0.1h-0.1 M299.1,7.8L299.1,7.8v1.5 M293.6,2.7h-1.2h-1.1h-1h-0.8h-0.6h-0.4h-0.1 M288.2,9.4L288.2,9.4h0.2h0.5h0.7h0.9h1h1.1h1.2
	 M336.5,2.7L336.5,2.7h-0.3h-0.5H335 M327.5,2.7h-0.7h-0.5H326l0,0 M325.8,9.4L325.8,9.4h0.4h0.5h0.7 M335,9.4h0.7h0.5h0.3h0.1
	 M313.3,2.7L313.3,2.7h-0.4h-0.6h-0.8h-1h-1.1h-1.2H307h-1.1h-1H304h-0.7h-0.4h-0.2l0,0 M302.6,9.4L302.6,9.4h0.4h0.6h0.8h0.9h1.1
	h1.1h1.2h0.8 M321.3,26.7L321.3,26.7h0.2h0.4h0.6h0.8h1h1.1h1.1h1.2 M327.7,26.7h1.1h1h0.9h0.7h0.5h0.2l0,0 M13.9,26.7L13.9,26.7
	h0.2h0.4h0.6h0.8h1H18h1.1h1.2h1.1h1 M22.4,26.7h0.8h0.7h0.4h0.3l0,0 M5.8,26.6h0.1h0.3 M9.1,26.7H8H7.1H6.5H6.2 M340.1,26.6H340
	h-0.4 M339.6,26.7h-0.3h-0.6h-0.9h-1.1 M336.8,26.5v0.1l0,0 M9.1,26.5v0.1l0,0 M336.8,26.7H9.1 M9.1,26.5h327.7 M336.8,26.5L341,24
	 M340.2,26.5h0.1 M4.9,24l4.2,2.5 M5.6,26.5h0.1 M341,24H4.9 M341,23.5v0.3V24 M344.5,24h-0.2H344h-0.4h-0.5h-0.6h-1.4 M4.9,24H3.5
	H2.9H2.4H2H1.7H1.5 M4.9,23.5v0.3V24 M4.1,9.9h337.6 M345.2,10.4l-0.5-0.5 M341.7,9.9h0.6h0.6h0.5h0.5h0.4h0.3h0.2h0.1 M341.7,10.4
	V9.9 M4.1,10.4V9.9 M1.1,9.9L1.1,9.9h0.2h0.3H2h0.5H3h0.6h0.6 M0.6,10.4l0.5-0.5 M331.2,14.1h-9.5 M306.7,16h-0.1h-0.1l-0.1,0.1
	l-0.1,0.1l-0.1,0.1l-0.1,0.1v0.1v0.1 M312.2,16.7v-0.1v-0.1l-0.1-0.1l-0.1-0.1l-0.1-0.1l-0.1-0.1h-0.1h-0.1 M321.7,14.1v-0.5
	 M321.7,14.1h-0.1h-0.1h-0.1l-0.1,0.1l-0.1,0.1v0.1v0.1v0.1 M306.7,15.9v0.2 M311.5,16h-4.7 M311.5,16v-0.2 M331.2,13.6v0.5
	 M331.7,14.6v-0.1v-0.1v-0.1l-0.1-0.1l-0.1-0.1h-0.1h-0.1h-0.1 M306.7,18.1h4.7 M321.2,14.6h-0.5 M321.2,14.6v4.6 M312.2,16.7h0.2
	 M312.2,17.4v-0.7 M306,16.7v0.7 M305.9,16.7h0.2 M311.5,18.1v0.2 M312.2,17.4h0.2 M311.5,18.1h0.1h0.1l0.1-0.1l0.1-0.1l0.1-0.1
	l0.1-0.1v-0.1v-0.1 M306.7,18.3v-0.2 M306,17.4v0.1v0.1l0.1,0.1l0.1,0.1l0.1,0.1l0.1,0.1h0.1h0.1 M305.9,17.4h0.2 M332.3,14.6h-0.5
	 M331.7,19.2v-4.6 M321.7,19.7h9.5 M332.3,19.2h-0.5 M331.2,19.7h0.1h0.1h0.1l0.1-0.1l0.1-0.1v-0.1v-0.1v-0.1 M331.2,20.2v-0.5
	 M321.2,19.2h-0.5 M321.7,19.7v0.5 M321.2,19.2v0.1v0.1v0.1l0.1,0.1l0.1,0.1h0.1h0.1h0.1 M332.3,19.2v0.2l-0.1,0.2l-0.1,0.2L332,20
	l-0.2,0.1l-0.2,0.1l-0.2,0.1h-0.2 M331.2,20.2h-9.5 M321.7,20.2h-0.2l-0.2-0.1l-0.2-0.1l-0.2-0.1l-0.1-0.2l-0.1-0.2l-0.1-0.2v-0.2
	 M320.7,19.2v-4.6 M320.7,14.6v-0.2l0.1-0.2l0.1-0.2l0.1-0.2l0.2-0.1l0.2-0.1l0.2-0.1h0.2 M321.7,13.6h9.5 M331.2,13.6h0.2l0.2,0.1
	l0.2,0.1l0.2,0.1l0.1,0.2l0.1,0.2l0.1,0.2v0.2 M332.3,14.6v4.6 M275.1,16.5l-0.1-1l-0.4-0.9l-0.6-0.8l-0.8-0.6l-0.9-0.4l-1-0.2
	l-1,0.1l-0.9,0.3l-0.8,0.5l-0.7,0.7l-0.5,0.9l-0.2,1v1l0.2,1l0.5,0.9l0.7,0.7l0.8,0.5l0.9,0.3l1,0.1l1-0.2l0.9-0.4l0.8-0.6l0.6-0.8
	l0.4-0.9L275.1,16.5 M259.4,17.2l-0.1-0.8l-0.4-0.7l-0.6-0.5l-0.7-0.3h-0.8l-0.7,0.3l-0.6,0.5l-0.4,0.7l-0.1,0.8l0.1,0.8l0.4,0.7
	l0.6,0.5l0.7,0.3h0.8l0.7-0.3l0.6-0.5l0.4-0.7L259.4,17.2 M104.9,17.2l-0.1-0.8l-0.4-0.7l-0.6-0.5l-0.7-0.3h-0.8l-0.7,0.3l-0.6,0.5
	l-0.4,0.7l-0.1,0.8l0.1,0.8l0.4,0.7l0.6,0.5l0.7,0.3h0.8l0.7-0.3l0.6-0.5l0.4-0.7L104.9,17.2 M95.1,17.2L95,16.4l-0.4-0.6L94,15.3
	L93.3,15h-0.8l-0.7,0.3l-0.6,0.5l-0.4,0.7l-0.1,0.8l0.1,0.8l0.4,0.7l0.6,0.5l0.7,0.3h0.8l0.7-0.3l0.6-0.5l0.4-0.7L95.1,17.2
	 M79.7,17.2l-0.1-0.8l-0.4-0.7l-0.6-0.4L77.9,15h-0.8l-0.7,0.3l-0.6,0.5l-0.4,0.7l-0.1,0.8l0.1,0.8l0.4,0.7l0.6,0.5l0.7,0.3h0.8
	l0.7-0.3l0.6-0.5l0.4-0.7L79.7,17.2 M69.8,17.2l-0.1-0.8l-0.4-0.7l-0.6-0.5L68,14.9h-0.8l-0.6,0.4L66,15.8l-0.4,0.7l-0.1,0.8
	l0.1,0.8l0.4,0.7l0.6,0.5l0.7,0.3h0.8l0.7-0.3l0.6-0.5l0.4-0.7V17.2 M57.2,17.2l-0.1-0.8l-0.4-0.7l-0.6-0.5l-0.7-0.3h-0.8l-0.7,0.3
	l-0.6,0.5l-0.4,0.7l-0.1,0.8l0.1,0.8l0.4,0.7l0.6,0.5l0.7,0.2h0.8l0.7-0.3l0.6-0.5l0.4-0.7L57.2,17.2 M47.4,17.2l-0.1-0.8l-0.4-0.7
	l-0.6-0.5l-0.7-0.1h-0.8l-0.7,0.3l-0.6,0.5l-0.4,0.7L43,17.4l0.1,0.8l0.4,0.7l0.6,0.5l0.7,0.3h0.8l0.7-0.3l0.6-0.5l0.4-0.7
	L47.4,17.2 M35.1,16.5l-0.1-1l-0.4-0.9L34,13.8l-0.8-0.6l-0.9-0.4l-1-0.2l-1,0.1L29.4,13l-0.8,0.5l-0.7,0.7l-0.5,0.9l-0.2,1v1l0.2,1
	l0.5,0.9l0.7,0.7l0.8,0.5l0.9,0.3l1,0.1l1-0.2l0.9-0.4l0.8-0.6l0.6-1l0.4-0.9L35.1,16.5 M21.1,16.5l-0.1-1l-0.4-0.9L20,13.8
	l-0.8-0.6l-0.9-0.4l-1-0.2l-1,0.1L15.4,13l-0.8,0.5l-0.7,0.7l-0.5,0.9l-0.2,1v1l0.2,1l0.5,0.9l0.7,0.7l0.8,0.5l0.9,0.3l1,0.1l1-0.2
	l0.9-0.4l0.8-0.6l0.6-1l0.4-0.9L21.1,16.5 M305.9,16.7v-0.2v-0.2l0.1-0.2l0.1-0.1l0.1-0.1l0.2-0.1h0.2h0.2 M306.7,15.9h4.7
	 M311.5,15.9h0.2h0.2l0.2,0.1l0.1,0.1l0.1,0.1l0.1,0.2l0.1,0.2v0.2 M312.3,16.7v0.7 M312.3,17.4v0.2l-0.1,0.2l-0.1,0.2l-0.1,0.1
	l-0.1,0.1l-0.2,0.1h-0.2h-0.2 M311.5,18.3h-4.7 M306.7,18.3h-0.2h-0.2l-0.2-0.1l-0.1-0.1l-0.1-0.1l-0.1-0.2v-0.2v-0.2 M305.9,17.4
	v-0.7 M341.7,10.4H4.1 M294.5,17.1l0.1-0.7l0.4-0.6l0.6-0.4l0.7-0.2l0.7,0.1l0.6,0.3l0.5,0.5l0.3,0.7v0.6l-0.3,0.7l-0.5,0.5
	l-0.6,0.3l-0.7,0.1l-0.7-0.2l-0.6-0.4l-0.4-0.6L294.5,17.1 M284.7,17.1l0.1-0.7l0.4-0.6l0.6-0.4l0.7-0.2l0.7,0.1l0.6,0.3l0.5,0.5
	l0.3,0.7v0.6l-0.3,0.7l-0.5,0.5l-0.6,0.3l-0.7,0.1l-0.7-0.2l-0.6-0.4l-0.4-0.6L284.7,17.1 M345.2,10.4V23 M345.2,10.4L345.2,10.4
	h-0.3h-0.3h-0.4h-0.5h-0.6h-0.7h-0.7 M341.7,23V10.4 M0.9,23.4L0.9,23.4 M0.9,23.5L0.9,23.5 M4.9,23.5h168h168 M344.9,23.5
	L344.9,23.5 M345,23.5L345,23.5 M341.7,23h1.2h1h0.8h0.4h0.1 M341.7,23H336h-22.8h-45.7h-45.7h-45.7h-22.8h-45.7H62H4.1 M4.1,10.4
	V23 M4.1,10.4H3.4H2.8H2.2H1.6H1.2H0.9H0.7H0.6 M0.6,23V10.4 M0.6,23h0.2h0.6h0.9h1.1h0.8 M62.3,7.8L62.3,7.8L62.3,7.8h0.2h0.2h0.2
	h0.3h0.3h0.1 M116.9,7.8L116.9,7.8h0.4h0.3h0.2h0.2h0.1h0.1l0,0 M27.2,7.8L27.2,7.8h0.1h0.1h0.2h0.2h0.3h0.3h0.2 M85.5,7.8h-4
	 M121.3,7.8h-3 M27.2,7.8h-2.6 M62.3,7.8h-4.7 M126.4,8.3L126.4,8.3v0.1v0.1 M126.4,8.3L126.4,8.3V8.1V8 M27.7,8.3L27.7,8.3v0.1v0.1
	 M27.7,8.3L27.7,8.3V8.1V8l-0.1-0.1l-0.1-0.1h-0.1h-0.1h-0.1 M27.2,8V7.8V7.7l0,0 M80.9,8.5V8.4V8.3l0,0 M81.5,7.8L81.5,7.8h-0.2
	h-0.1l-0.1,0.1L81,8v0.1v0.1v0.1 M81.5,7.8L81.5,7.8v0.1v0.2 M62.8,8.3L62.8,8.3v0.1v0.1 M62.8,8.3L62.8,8.3V8.1V8l-0.2-0.1
	l-0.1-0.1h-0.1h-0.1h-0.1 M62.3,8V7.8V7.7l0,0 M117.8,8.5V8.4V8.3l0,0 M118.3,7.8L118.3,7.8h-0.2H118l-0.1,0.1L117.8,8v0.1v0.1v0.1
	 M118.3,7.8L118.3,7.8v0.1v0.2 M19.1,8.5V8.4V8.3l0,0 M19.6,7.8h-0.1h-0.1h-0.1l-0.1,0.1L19.1,8v0.1v0.1v0.1 M19.6,7.8L19.6,7.8v0.1
	v0.2 M117.7,9.9V8.6 M118.3,8L118.3,8h-0.2H118l-0.1,0.1l-0.1,0.1v0.1v0.1v0.1 M118.3,8l-0.1,1.6 M126.4,8.5v1.3 M19,9.9V8.6
	 M19.6,8L19.6,8h-0.2h-0.1l-0.1,0.1l-0.1,0.1v0.1v0.1v0.1 M19.6,8l-0.1,1.6 M27.7,8.5v0.6 M27.7,8.5L27.7,8.5V8.3V8.2l-0.1-0.1
	L27.5,8h-0.1h-0.1h-0.1 M80.9,9.2V8.5 M81.5,8L81.5,8h-0.2h-0.1l-0.1,0.1L81,8.2v0.1v0.1v0.1 M62.8,8.5v1.3 M62.8,8.5L62.8,8.5V8.3
	V8.2h-0.2l-0.1-0.1h-0.1h-0.1h-0.1 M62.3,9.7l-0.1-1.6 M197,7.8L197,7.8h0.1h0.1h0.2h0.2h0.3h0.3h0.1 M161.1,7.8h0.1h0.3h0.3h0.2
	h0.2h0.1h0.1l0,0 M170.3,7.8L170.3,7.8h0.1h0.1h0.2h0.2h0.3h0.3h0.1 M225,7.8h0.1h0.3h0.3h0.2h0.2h0.1h0.1l0,0 M163.4,7.8h-0.9
	 M170.3,7.8h-1.9 M190.8,7.8h-1.2 M197,7.8h-1.2 M131.8,7.8h-4.1 M233.6,7.8h-7.2 M162,8.5V8.4V8.3l0,0 M162.5,7.8L162.5,7.8h-0.2
	h-0.1l-0.1,0.1L162,8v0.1v0.1v0.1 M162.5,7.8L162.5,7.8v0.1v0.2 M225.9,8.5V8.4V8.3l0,0 M226.4,7.8h-0.1h-0.1h-0.1L226,7.9L225.9,8
	v0.1v0.1v0.1 M226.4,7.8L226.4,7.8v0.1v0.2 M197.5,8.3L197.5,8.3v0.1v0.1 M197.5,8.3L197.5,8.3V8.1V8l-0.1-0.1l-0.1-0.1h-0.1h-0.1
	H197 M197,8V7.8V7.7l0,0 M189,8.5V8.4V8.3l0,0 M189.6,7.8h-0.1h-0.1h-0.1l-0.1,0.1L189.1,8v0.1v0.1v0.1 M189.6,7.8L189.6,7.8v0.1
	v0.2 M170.9,8.3L170.9,8.3v0.1v0.1 M170.9,8.3L170.9,8.3V8.1V8l-0.1-0.1l-0.2,0h-0.1h-0.1h-0.1 M170.4,8V7.8V7.7l0,0 M127.2,8.5V8.4
	V8.3l0,0 M127.7,7.8L127.7,7.8h-0.2h-0.1l-0.1,0.1L127.2,8v0.1v0.1v0.1 M127.7,7.8L127.7,7.8v0.1v0.2 M170.9,8.5v1.3 M170.9,8.5
	L170.9,8.5V8.3V8.2l-0.1-0.1h-0.2h-0.1h-0.1h-0.1 M170.4,9.7l-0.1-1.6 M127.1,9.9V8.6 M127.7,8h-0.1h-0.1h-0.1l-0.1,0.1l-0.1,0.1
	v0.1v0.1v0.1 M127.7,8l-0.1,1.6 M189,9.9V8.6 M189.5,8L189.5,8h-0.2h-0.1l-0.1,0.1L189,8.2v0.1v0.1v0.1 M189.5,8l-0.1,1.6
	 M197.6,8.5v1.3 M197.6,8.5L197.6,8.5V8.3l-0.1-0.1l-0.1-0.1L197.3,8h-0.1h-0.1H197 M197.1,9.7L197,8.1 M225.8,9.9V8.6 M226.4,8
	h-0.1h-0.1h-0.1L226,8.1l-0.1,0.1v0.1v0.1v0.1 M226.4,8l-0.1,1.6 M161.9,9.9V8.6 M162.5,8h-0.1h-0.1h-0.1l-0.1,0.1L162,8.2v0.1v0.1
	v0.1 M162.5,8l-0.1,1.6 M35.5,7.8L35.5,7.8h0.4h0.3h0.2h0.2h0.1h0.1l0,0 M45.6,7.8L45.6,7.8H46h0.1 M106.6,7.8h-5.5 M40.6,7.8h-3.7
	 M79.5,7.8h-6.6 M80.1,8.3L80.1,8.3v0.1v0.1 M80.1,8.3L80.1,8.3V8.1V8L80,7.9l-0.1-0.1h-0.1h-0.1h-0.1 M79.5,8V7.8V7.7l0,0
	 M36.4,8.5V8.4V8.3l0,0 M36.9,7.8L36.9,7.8h-0.2h-0.1l-0.1,0.1L36.4,8v0.1v0.1v0.1 M36.9,7.8L36.9,7.8v0.1v0.2 M80.1,8.5v1.3
	 M80.1,8.5L80.1,8.5V8.3V8.2L80,8.1L79.9,8h-0.1h-0.1h-0.1 M79.6,9.7l-0.1-1.6 M36.3,9.9V8.6 M36.9,8L36.9,8h-0.2h-0.1l-0.1,0.1
	l-0.1,0.1v0.1v0.1v0.1 M36.9,8l-0.1,1.6 M101.1,9.8h5.4 M206.3,7.8h0.2h0.1h0.1l0,0 M178.7,7.8h0.1h0.3h0.3h0.2h0.2h0.1h0.1l0,0
	 M143.6,7.8h0.1h0.3h0.3h0.2h0.2h0.1h0.1l0,0 M153,7.8L153,7.8h0.3h0.2h0.3h0.3h0.1 M148,7.8h-3 M180.3,7.8h-0.2 M187.6,7.8h-2.4
	 M216.7,7.8h-9.9 M188.2,8.3L188.2,8.3v0.1v0.1 M188.2,8.3L188.2,8.3V8.1L188.1,8L188,7.9l-0.1-0.1h-0.1h-0.1h-0.1 M187.6,8V7.8V7.7
	l0,0 M179.5,8.5V8.4V8.3l0,0 M180.1,7.8H180h-0.1h-0.1l-0.1,0.1L179.6,8v0.1v0.1v0.1 M180.1,7.8L180.1,7.8v0.1v0.2 M216.7,8V7.8V7.7
	l0,0 M144.4,8.5V8.4V8.3l0,0 M145,7.8h-0.1h-0.1h-0.1l-0.1,0.1V8l-0.1,0.1v0.1v0.1 M145,7.8L145,7.8v0.1v0.2 M153.3,8.3L153.3,8.3
	v0.1v0.1 M153.3,8.3L153.3,8.3V8.1V8l-0.1-0.1l-0.1-0.1H153l0,0 M206.8,7.8h-0.1h-0.1h-0.1l-0.1,0.1L206.3,8 M206.8,7.8L206.8,7.8
	v0.1v0.2 M188.2,8.5v1.3 M188.2,8.5L188.2,8.5V8.3V8.2l-0.1-0.1L188,8h-0.1h-0.1h-0.1 M187.7,9.7L187.6,8 M144.4,9.9V8.6 M145,8
	L145,8h-0.2h-0.1l-0.1,0.2l-0.1,0.1v0.1v0.1v0.1 M145,8l-0.1,1.6 M153.3,8.5v1.3 M179.5,9.9V8.6 M180.1,8L180.1,8h-0.2h-0.1
	l-0.1,0.1l-0.1,0.2v0.1v0.1v0.1 M180.1,8L180,9.6 M206.7,8h9.9 M207.3,9.8h8.6 M52.4,3.6h-5.6 M34.8,3.6h-5.6 M96.6,3.6H91
	 M69.9,3.6h-5.6 M116.2,3.6h-5.6 M70.4,4.1L70.4,4.1L70.4,4.1v0.2 M69.9,3.6L69.9,3.6h0.2h0.1l0.1,0.1l0.1,0.1v0.1V4v0.1 M69.9,3.8
	V3.6V3.5l0,0 M46.2,4.3L46.2,4.3V4.1l0,0 M46.8,3.6L46.8,3.6L46.8,3.6v0.3 M46.3,4.1L46.3,4.1V3.9V3.8l0.1-0.1l0.1-0.1h0.1h0.1h0.1
	 M35.3,4.1L35.3,4.1L35.3,4.1v0.2 M34.8,3.6L34.8,3.6H35h0.1l0.1,0.1l0.1,0.1v0.1V4v0.1 M34.8,3.8V3.6V3.5l0,0 M52.9,4.1L52.9,4.1
	L52.9,4.1v0.2 M52.4,3.6L52.4,3.6h0.2h0.1l0.1,0.1l0.1,0.1v0.1V4v0.1 M52.4,3.8V3.6V3.5l0,0 M97.1,4.1L97.1,4.1L97.1,4.1v0.2
	 M96.6,3.6L96.6,3.6h0.2h0.1L97,3.7l0.1,0.1v0.1V4v0.1 M96.6,3.8V3.6V3.5l0,0 M116.8,4.1L116.8,4.1L116.8,4.1v0.2 M116.2,3.6
	L116.2,3.6h0.2h0.1l0.1,0.1l0.1,0.1v0.1V4v0.1 M116.2,3.8V3.6V3.5l0,0 M63.8,4.3L63.8,4.3V4.1l0,0 M64.3,3.6L64.3,3.6L64.3,3.6v0.3
	 M63.8,4.1L63.8,4.1V3.9V3.8l0.1-0.1L64,3.6h0.1h0.1h0.1 M90.5,4.3L90.5,4.3V4.1l0,0 M91,3.6L91,3.6L91,3.6v0.3 M90.5,4.1L90.5,4.1
	V3.9V3.8l0.1-0.1l0.1-0.1h0.1h0.1H91 M28.7,4.3L28.7,4.3V4.1l0,0 M29.2,3.6L29.2,3.6L29.2,3.6v0.3 M28.7,4.1L28.7,4.1V3.9V3.8
	l0.1-0.1l0.1-0.1H29h0.1h0.1 M110.1,4.3L110.1,4.3V4.1l0,0 M110.7,3.6L110.7,3.6L110.7,3.6v0.3 M110.1,4.1L110.1,4.1V3.9V3.8
	l0.1-0.1l0.1-0.1h0.1h0.1h0.1 M29.2,3.8h5.6 M35.4,4.3l0.2,5.6 M34.8,3.8L34.8,3.8H35h0.1l0.1,0.1L35.3,4v0.1v0.1v0.1 M28.5,9.2
	l0.2-4.9 M29.2,3.8L29.2,3.8H29h-0.1l-0.1,0.1L28.7,4v0.1v0.1v0.1 M46.8,3.8h5.6 M110.6,3.8h5.6 M64.3,3.8h5.6 M91,3.8h5.6
	 M46.1,9.2l0.2-4.9 M46.8,3.8L46.8,3.8h-0.2h-0.1l-0.1,0.1L46.3,4v0.1v0.1v0.1 M70.5,4.3v0.6 M69.9,3.8L69.9,3.8h0.2h0.1l0.1,0.1
	L70.4,4v0.1v0.1v0.1 M52.9,4.3V5 M52.4,3.8L52.4,3.8h0.2h0.1l0.1,0.1L52.9,4v0.1v0.1v0.1 M52.6,9.7l-0.2-5.9 M90.4,5.3v-1 M91,3.8
	L91,3.8h-0.2h-0.1L90.6,4l0,0v0.1v0.1v0.1 M91,3.8l-0.2,5.9 M116.8,4.3l0.2,5.6 M116.8,4.3L116.8,4.3V4.1V4l-0.2,0l-0.1-0.1h-0.1
	h-0.1h-0.1 M116.5,9.7l-0.2-5.9 M110.1,5V4.4 M110.1,4.3L110.1,4.3V4.1V4l0.1-0.1l0.1-0.1h0.1h0.1h0.1 M63.6,9.9l0.2-5.6 M64.3,3.8
	L64.3,3.8h-0.2H64l-0.1,0.1L63.8,4v0.1v0.1v0.1 M64.3,3.8l-0.2,5.9 M97.1,4.3v0.6 M96.6,3.8L96.6,3.8h0.2h0.1L97,3.9L97.1,4v0.1v0.1
	v0.1 M204.7,3.6h-5.6 M178,3.6h-5.6 M224.3,3.6h-5.6 M142.9,3.6h-5.6 M160.5,3.6h-5.6 M224.9,4.1L224.9,4.1L224.9,4.1v0.2
	 M224.3,3.6L224.3,3.6h0.2h0.1l0.1,0.1l0.1,0.1v0.1V4v0.1 M224.3,3.8V3.6V3.5l0,0 M205.2,4.1L205.2,4.1L205.2,4.1v0.2 M204.7,3.6
	L204.7,3.6h0.2h0.1l0.1,0.1l0.1,0.1v0.1V4v0.1 M204.7,3.8V3.6V3.5l0,0 M178.5,4.1L178.5,4.1L178.5,4.1v0.2 M178,3.6h0.1h0.1h0.1
	l0.1,0.1l0.1,0.1v0.1V4v0.1 M178,3.8V3.6V3.5l0,0 M154.3,4.3L154.3,4.3V4.1l0,0 M154.9,3.6L154.9,3.6L154.9,3.6v0.3 M154.3,4.1
	L154.3,4.1V3.9V3.8l0.1-0.1l0.1-0.1h0.1h0.1h0.1 M218.2,4.3L218.2,4.3V4.1l0,0 M218.7,3.6L218.7,3.6L218.7,3.6v0.3 M218.2,4.1
	L218.2,4.1V3.9V3.8l0.1-0.1l0.1-0.1h0.1h0.1h0.1 M136.8,4.3L136.8,4.3V4.1l0,0 M137.3,3.6L137.3,3.6L137.3,3.6v0.3 M136.8,4.1
	L136.8,4.1V3.9V3.8l0.1-0.1l0.1-0.1h0.1h0.1h0.1 M171.9,4.3L171.9,4.3V4.1l0,0 M172.4,3.6L172.4,3.6L172.4,3.6v0.3 M171.9,4.1
	L171.9,4.1V3.9V3.8l0.1-0.1l0.1-0.1h0.1h0.1h0.1 M161,4.1L161,4.1L161,4.1v0.2 M160.5,3.6L160.5,3.6h0.2h0.1l0.1,0.1l0.1,0.1v0.1V4
	v0.1 M160.5,3.8V3.6V3.5l0,0 M198.6,4.3L198.6,4.3V4.1l0,0 M199.1,3.6L199.1,3.6L199.1,3.6v0.3 M198.6,4.1L198.6,4.1V3.9V3.8
	l0.1-0.1l0.1-0.1h0.1h0.1h0.1 M143.4,4.1L143.4,4.1L143.4,4.1v0.2 M142.9,3.6L142.9,3.6h0.2h0.1l0.1,0.1l0.1,0.1v0.1V4v0.1
	 M142.9,3.8V3.6V3.5l0,0 M137.3,3.8h5.6 M136.8,5.3v-1 M137.3,3.8h-0.1h-0.1H137l-0.1,0.1L136.8,4v0.1v0.1v0.1 M137.3,3.8l-0.2,5.9
	 M143.4,4.3l0.2,5.6 M142.9,3.8h0.1h0.1h0.1l0.1,0.1l0.1,0.1v0.1v0.1v0.1 M143.1,9.7l-0.2-5.9 M199.1,3.8h5.6 M172.4,3.8h5.6
	 M154.9,3.8h5.6 M218.7,3.8h5.6 M205.2,4.3v0.6 M204.7,3.8h0.1h0.1h0.1l0.1,0.1l0.1,0.1v0.1v0.1v0.1 M178.5,4.3l0.2,5.6 M178,3.8
	L178,3.8h0.2h0.1l0.1,0.1l0.1,0.1v0.1v0.1v0.1 M178.2,9.7L178,3.8 M218.2,5V4.4 M218.2,4.3L218.2,4.3V4.1V4l0.1-0.1l0.1-0.1h0.1h0.1
	h0.1 M161,4.3l0.2,5.6 M160.5,3.8h0.1h0.1h0.1l0.1,0.1L161,4v0.1v0.1v0.1 M160.7,9.7l-0.2-5.9 M171.7,9.9l0.2-5.6 M172.4,3.8
	L172.4,3.8h-0.2h-0.1L172,3.9L171.9,4v0.1v0.1v0.1 M172.4,3.8l-0.2,5.9 M154.1,9.9l0.2-5.6 M154.9,3.8h-0.1h-0.1h-0.1l-0.1,0.1
	L154.4,4v0.1v0.1v0.1 M154.9,3.8l-0.2,5.9 M224.9,4.3l0.2,5.6 M224.9,4.3L224.9,4.3V4.1V4l-0.1-0.1l-0.2,0h-0.1h-0.1h-0.1
	 M224.5,9.7l-0.2-5.9 M198.4,9.9l0.2-5.6 M199.1,3.8H199h-0.1h-0.1l-0.1,0.1L198.6,4v0.1v0.1v0.1 M199.1,3.8l-0.2,5.9 M137.1,9.7h6
	 M154.7,9.7h6 M172.2,9.7h6 M14,7.8h3.7 M4.2,7.8H9 M18.2,8.3L18.2,8.3v0.1v0.1 M18.2,8.3L18.2,8.3V8.1V8l-0.1-0.1L18,7.8h-0.1h-0.1
	h-0.1 M17.7,8V7.8V7.7l0,0 M3.6,8.5V8.4V8.3l0,0 M4.2,7.8L4.2,7.8H4H3.9L3.8,7.9L3.7,8v0.1v0.1v0.1 M4.2,7.8L4.2,7.8v0.1v0.2
	 M18.2,8.5v1.3 M18.2,8.5L18.2,8.5V8.3V8.2l-0.1-0.1L18,8h-0.1h-0.1h-0.1 M17.8,9.7L17.7,8 M3.6,9.9V8.6 M4.2,8L4.2,8H4H3.9L3.8,8.2
	L3.7,8.3v0.1H3.6v0.1 M4.2,8L4.1,9.7 M269.2,7.8h0.1h0.3h0.3h0.2h0.2h0.1h0.1l0,0 M278.4,7.8L278.4,7.8h0.1h0.1h0.2h0.2h0.3h0.3h0.1
	 M243.3,7.8L243.3,7.8h0.1h0.1h0.2h0.2h0.3h0.3h0.1 M270.8,7.8h-0.2 M278.4,7.8h-2.6 M243.3,7.8h-4.7 M279,8.3L279,8.3v0.1v0.1
	 M279,8.3L279,8.3V8.1V8l-0.1-0.1l-0.1-0.1h-0.1h-0.1h-0.1 M278.4,8V7.8V7.7l0,0 M270.1,8.5V8.4V8.3l0,0 M270.6,7.8h-0.1h-0.1h-0.1
	l-0.1,0.1L270.1,8v0.1v0.1v0.1 M270.6,7.8L270.6,7.8v0.1v0.2 M243.9,8.3L243.9,8.3v0.1v0.1 M243.9,8.3L243.9,8.3V8.1L243.8,8
	l-0.1-0.1l-0.1,0h-0.1h-0.1h-0.1 M243.4,8V7.8V7.7l0,0 M279,8.5v1.3 M279,8.5L279,8.5V8.3V8.2l-0.1-0.1L278.8,8h-0.1h-0.1h-0.1
	 M243.9,8.5v0.6 M243.9,8.5L243.9,8.5V8.3V8.2l-0.1-0.1h-0.2h-0.1h-0.1h-0.1 M243.4,9.7l-0.1-1.6 M270,9.9V8.6 M270.6,8L270.6,8
	h-0.2h-0.1l-0.1,0.1l-0.1,0.1v0.1v0.1v0.1 M270.6,8l-0.1,1.6 M260.9,7.8L260.9,7.8h0.1h0.1h0.2h0.2h0.3h0.3h0.1 M286.8,7.8h0.1h0.3
	h0.3h0.2h0.2h0.1h0.1l0,0 M288.2,7.8L288.2,7.8 M260.9,7.8h-0.4 M287.6,8.5V8.4V8.3l0,0 M288.2,7.8L288.2,7.8H288h-0.1l-0.1,0.1
	L287.7,8v0.1v0.1v0.1 M288.2,7.8L288.2,7.8v0.1v0.2 M261.4,8.3L261.4,8.3v0.1v0.1 M261.4,8.3L261.4,8.3V8.1V8l-0.1-0.1l-0.1-0.1
	h-0.1H261h-0.1 M260.9,8V7.8V7.7l0,0 M261.4,8.5v0.6 M261.4,8.5L261.4,8.5V8.3V8.2l-0.1-0.1L261.2,8h-0.1H261h-0.1 M287.6,9.2V8.6
	 M288.2,8h-0.1H288h-0.1l-0.1,0.1l-0.1,0.1v0.1v0.1v0.1 M249.8,3.6h-4.3 M268.6,3.6H263 M286.1,3.6h-5.6 M262.4,4.3L262.4,4.3V4.1
	l0,0 M263,3.6L263,3.6L263,3.6v0.3 M262.4,4.1L262.4,4.1V3.9V3.8l0.1-0.1l0.1-0.1h0.1h0.1h0.1 M269.1,4.1L269.1,4.1L269.1,4.1v0.2
	 M268.6,3.6h0.1h0.1h0.1l0.1,0.1l0.1,0.1v0.1V4v0.1 M268.6,3.8V3.6V3.5l0,0 M286.6,4.1L286.6,4.1L286.6,4.1v0.2 M286.1,3.6
	L286.1,3.6h0.2h0.1l0.1,0.1l0.1,0.1v0.1V4v0.1 M286.1,3.8V3.6V3.5l0,0 M244.9,4.3L244.9,4.3V4.1l0,0 M245.4,3.6L245.4,3.6L245.4,3.6
	v0.3 M244.9,4.1L244.9,4.1V3.9V3.8l0.1-0.1l0.1-0.1h0.1h0.1h0.1 M280,4.3L280,4.3V4.1l0,0 M280.5,3.6L280.5,3.6L280.5,3.6v0.3
	 M280,4.1L280,4.1V3.9V3.8l0.1-0.1l0.1-0.1h0.1h0.1h0.1 M244.7,9.2l0.2-4.9 M245.4,3.8h-0.1h-0.1h-0.1L245,3.9L244.9,4v0.1v0.1v0.1
	 M280.5,3.8h5.6 M263,3.8h5.6 M262.3,9.2l0.2-4.9 M263,3.8L263,3.8h-0.2h-0.1L262.6,4l-0.1,0.1v0.1v0.1v0.1 M263,3.8l-0.2,5.9
	 M269.1,4.3l0.2,5.6 M268.6,3.8L268.6,3.8h0.2h0.1l0.1,0.1l0.1,0.1v0.1v0.1v0.1 M268.8,9.7l-0.2-5.9 M286.6,4.3l0.2,4.9 M286.1,3.8
	h0.1h0.1h0.1l0.1,0.1l0.1,0.1l0.1,0.1v0.1v0.1 M279.8,9.9l0.2-5.6 M280.5,3.8h-0.1h-0.1h-0.1l-0.1,0.1L280,4v0.1v0.1v0.1 M280.5,3.8
	l-0.2,5.9 M262.7,9.7h6 M60.2,9.5V9.4V9.3V9.2h-0.1H60h-0.1 M59.7,9.2L59.7,9.2L59.7,9.2L59.7,9.2L59.7,9.2 M59.7,9.5V9.4V9.3V9.2
	l0,0l0,0l0,0 M57.5,9.2h2.1 M60.2,9.5v0.4 M60.2,9.5L60.2,9.5H60h-0.2h-0.2 M39.6,9.2L39.6,9.2h-0.2h-0.1v0.1v0.1v0.1 M39.6,9.2
	L39.6,9.2L39.6,9.2L39.6,9.2h0.2 M46.9,9.5V9.4V9.3V9.2h-0.1h-0.1h-0.1 M46.3,9.2L46.3,9.2L46.3,9.2L46.3,9.2L46.3,9.2 M46.3,9.5
	V9.4V9.3V9.2l0,0l0,0l0,0 M45.6,9.2h0.7 M39.8,9.2h1 M39.8,9.5V9.4V9.3V9.2l0,0l0,0l0,0 M39.3,9.9V9.5 M39.8,9.5h-0.2h-0.2h-0.1l0,0
	 M46.9,9.5v0.4 M46.9,9.5L46.9,9.5h-0.2h-0.2h-0.2 M26.3,9.2h-0.1h-0.1H26v0.1v0.1v0.1 M26.3,9.2L26.3,9.2L26.3,9.2h0.1h0.1
	 M26.5,9.2h3.8 M26.5,9.5V9.4V9.3V9.2l0,0l0,0l0,0 M25.9,9.9V9.5 M26.5,9.5h-0.2h-0.2H26l0,0 M17.4,9.5V9.4V9.3V9.2h-0.1h-0.1h-0.1
	 M16.9,9.2L16.9,9.2H17l0,0l0,0 M16.9,9.5V9.4V9.3V9.2l0,0l0,0l0,0 M14,9.2h2.8 M17.4,9.5v0.4 M17.4,9.5L17.4,9.5h-0.2H17h-0.2
	 M283.5,9.2h-0.1h-0.1h-0.1v0.1v0.1v0.1 M283.5,9.2L283.5,9.2L283.5,9.2h0.1h0.1 M283.7,9.2h4.4 M283.7,9.5V9.4V9.3V9.2l0,0l0,0l0,0
	 M283.2,9.9V9.5 M283.7,9.5h-0.2h-0.2h-0.1l0,0 M243.9,9.2h-0.1h-0.1h-0.1v0.1v0.1v0.1 M243.9,9.2L243.9,9.2L243.9,9.2h0.1h0.1
	 M244.1,9.2h5.5 M244.1,9.5V9.4V9.3V9.2l0,0l0,0l0,0 M243.5,9.9V9.5 M244.1,9.5h-0.2h-0.2h-0.1l0,0 M262.7,9.5V9.4V9.3V9.2h-0.1
	h-0.1h-0.1 M262.2,9.2L262.2,9.2h0.1l0,0l0,0 M262.2,9.5V9.4V9.3V9.2l0,0l0,0l0,0 M260.5,9.2h1.7 M262.7,9.5v0.4 M262.7,9.5
	L262.7,9.5h-0.2h-0.2h-0.2 M81.1,9.2L81.1,9.2h-0.2h-0.1v0.1v0.1v0.1 M81.1,9.2L81.1,9.2L81.1,9.2L81.1,9.2h0.2 M81.2,9.2h4.5
	 M81.2,9.5V9.4V9.3V9.2l0,0l0,0l0,0 M80.7,9.9V9.5 M81.2,9.5H81h-0.2h-0.1l0,0 M232.3,9.2h-0.1h-0.1H232v0.1v0.1v0.1 M232.3,9.2
	L232.3,9.2L232.3,9.2h0.1h0.1 M239.5,9.5V9.4V9.3V9.2h-0.1h-0.1h-0.1 M239,9.2L239,9.2h0.1l0,0l0,0 M239,9.5V9.4V9.3V9.2l0,0l0,0
	l0,0 M238.6,9.2h0.4 M232.5,9.2h1.3 M232.5,9.5V9.4V9.3V9.2l0,0l0,0l0,0 M239.5,9.5v0.4 M239.5,9.5L239.5,9.5h-0.2h-0.2h-0.2
	 M232,9.9V9.5 M232.5,9.5h-0.2h-0.2H232l0,0 M76.3,9.5V9.4V9.3V9.2h-0.1h-0.1H76 M75.8,9.2L75.8,9.2L75.8,9.2L75.8,9.2L75.8,9.2
	 M75.8,9.5V9.4V9.3V9.2l0,0l0,0l0,0 M73,9.2h2.8 M76.3,9.5v0.4 M76.3,9.5L76.3,9.5h-0.2h-0.2h-0.2 M278.8,9.5V9.4V9.3V9.2h-0.1h-0.1
	h-0.1 M278.3,9.2L278.3,9.2h0.1l0,0l0,0 M278.3,9.5V9.4V9.3V9.2l0,0l0,0l0,0 M275.8,9.2h2.5 M278.8,9.5v0.4 M278.8,9.5L278.8,9.5
	h-0.2h-0.2h-0.2 M223.4,9.5V9.4V9.3V9.2h-0.1h-0.1h-0.1 M222.9,9.2L222.9,9.2h0.1l0,0l0,0 M216.2,9.2h-0.1H216h-0.1v0.1v0.1v0.1
	 M216.2,9.2L216.2,9.2L216.2,9.2h0.1h0.1 M222.9,9.5V9.4V9.3V9.2l0,0l0,0l0,0 M221.9,9.2h1 M216.3,9.2h0.5 M216.3,9.5V9.4V9.3V9.2
	l0,0l0,0l0,0 M223.4,9.5v0.4 M223.4,9.5L223.4,9.5h-0.2H223h-0.2 M215.8,9.9V9.5 M216.3,9.5h-0.2h-0.2h-0.1l0,0 M207.3,9.5V9.4V9.3
	V9.2h-0.1h-0.1H207 M206.7,9.2L206.7,9.2h0.1l0,0l0,0 M200,9.2h-0.1h-0.1h-0.1v0.1v0.1v0.1 M200,9.2L200,9.2L200,9.2h0.1h0.1
	 M206.7,9.5V9.4V9.3V9.2l0,0l0,0l0,0 M206.3,9.2h0.4 M200.2,9.2h1.3 M200.2,9.5V9.4V9.3V9.2l0,0l0,0l0,0 M207.3,9.5v0.4 M207.3,9.5
	L207.3,9.5h-0.2h-0.2h-0.2 M199.7,9.9V9.5 M200.2,9.5H200h-0.2h-0.1l0,0 M107.1,5L107.1,5h-0.2h-0.1l-0.1,0.1l-0.1,0.1v0.1v0.1v0.1
	 M111,5L111,5h0.2h0.1l0.1,0.1l0.1,0.1v0.1v0.1v0.1 M106.6,5.5V5.3l0.1-0.2l0.2-0.1h0.2 M111.5,5.5V5.3l-0.1-0.2L111.2,5H111
	 M107.3,5h3.5 M110.8,5.5h-3.5 M111.1,5.5V5.3V5.1V5l0,0 M110.8,5L110.8,5h0.2 M110.8,5.5L110.8,5.5V5.3V5.2V5.1l0,0l0,0l0,0l0,0
	 M111.6,8.8l-0.1-3.4 M111.5,5.5L111.5,5.5L111.5,5.5 M111.5,5.5L111.5,5.5L111.5,5.5h-0.2h-0.2 M111.1,5.5h-0.3 M110.8,5.5l0.1,3.4
	 M107.3,5.5L107.3,5.5V5.3V5.2V5.1l0,0l0,0l0,0l0,0 M107.1,5L107.1,5h0.2 M107,5.5V5.3V5.1V5l0,0 M106.6,5.5l-0.1,3.4 M107.2,8.8
	l0.1-3.4 M107.3,5.5L107.3,5.5H107 M107,5.5h-0.2h-0.1h-0.1l0,0 M106.6,5.5L106.6,5.5 M111.6,9.1V8.8 M111.6,9.4V9.1 M111.6,9.6V9.4
	 M111.6,9.7V9.6 M111.6,8.8L111.6,8.8L111.6,8.8h-0.2h-0.1h-0.1h-0.3 M106.5,9.7L106.5,9.7 M106.5,9.3v0.4 M106.5,8.9v0.3
	 M106.5,8.8L106.5,8.8 M106.5,8.8L106.5,8.8L106.5,8.8h0.2h0.1h0.1h0.3 M107.2,8.8h3.6 M41.1,5L41.1,5h-0.2h-0.1l-0.1,0.1l-0.1,0.1
	v0.1l0,0.1v0.1 M45,5L45,5h0.2h0.1l0.1,0.1l0.1,0.1v0.1v0.1v0.1 M40.6,5.5V5.3l0.1-0.2L40.9,5h0.2 M45.5,5.5V5.3l-0.1-0.2L45.2,5H45
	 M41.3,5h3.5 M44.8,5.5h-3.5 M45.1,5.5V5.3V5.1V5l0,0 M44.8,5L44.8,5H45 M44.8,5.5L44.8,5.5V5.3V5.2V5.1l0,0l0,0l0,0l0,0 M45.6,8.8
	l-0.1-3.4 M45.5,5.5L45.5,5.5L45.5,5.5 M45.5,5.5L45.5,5.5L45.5,5.5h-0.2h-0.1 M45.1,5.5h-0.3 M44.8,5.5l0.1,3.4 M41.3,5.5L41.3,5.5
	V5.3V5.2V5.1l0,0l0,0l0,0l0,0 M41.2,5L41.2,5h0.2 M41,5.5V5.3V5.1V5l0,0 M40.6,5.5v3.3 M41.3,8.8l0.1-3.4 M41.3,5.5L41.3,5.5H41
	 M41,5.5h-0.2h-0.1h-0.1l0,0 M40.6,5.5L40.6,5.5 M45.6,9.1V8.8 M45.6,9.4V9.1 M45.6,9.6V9.4 M45.6,9.7V9.6 M45.6,8.8L45.6,8.8
	L45.6,8.8h-0.2h-0.1h-0.1h-0.3 M40.5,9.7L40.5,9.7 M40.5,9.3v0.4 M40.6,8.9v0.3 M40.6,8.8L40.6,8.8 M40.6,8.8L40.6,8.8L40.6,8.8h0.2
	h0.1H41h0.3 M41.3,8.8h3.6 M310,5h-0.1h-0.1h-0.1l-0.1,0.1l-0.1,0.1v0.1v0.1v0.1 M313.8,5h0.1h0.1h0.1l0.1,0.1l0.1,0.1v0.1v0.1v0.1
	 M309.5,5.5V5.3l0.1-0.2l0.2-0.1h0.2 M314.4,5.5V5.3l-0.1-0.2L314.1,5h-0.2 M310.1,5h3.5 M313.7,5.5h-3.5 M313.9,5.5V5.3V5.1V5l0,0
	 M313.7,5h0.1h0.1 M313.7,5.5L313.7,5.5V5.3V5.2V5.1l0,0l0,0l0,0l0,0 M314.4,8.8l-0.1-3.4 M314.4,5.5L314.4,5.5L314.4,5.5
	 M314.4,5.5L314.4,5.5h-0.1h-0.1H314 M313.9,5.5h-0.3 M313.7,5.5l0.1,3.4 M310.1,5.5L310.1,5.5V5.3V5.2V5.1l0,0l0,0l0,0l0,0 M310,5
	L310,5h0.2 M309.9,5.5V5.3V5.1V5l0,0 M309.4,5.5l-0.1,3.4 M310.1,8.8l0.1-3.4 M310.1,5.5L310.1,5.5h-0.3 M309.9,5.5h-0.2h-0.1h-0.1
	l0,0 M309.5,5.5L309.5,5.5 M314.4,9.1V8.8 M314.4,9.4V9.1 M314.4,9.6V9.4 M314.4,9.7V9.6 M314.4,8.8L314.4,8.8L314.4,8.8h-0.2h-0.1
	H314h-0.3 M309.4,9.7L309.4,9.7 M309.4,9.3v0.4 M309.4,8.9v0.3 M309.4,8.8L309.4,8.8 M309.4,8.8L309.4,8.8L309.4,8.8h0.2h0.1h0.1
	h0.3 M310.1,8.8h3.6 M96.6,5L96.6,5h-0.2h-0.1l-0.1,0.1l-0.1,0.1v0.1v0.1v0.1 M100.5,5L100.5,5h0.2h0.1l0.1,0.1l0.1,0.1v0.1v0.1v0.1
	 M96.1,5.5V5.3l0.1-0.2L96.4,5h0.2 M101,5.5V5.3l-0.1-0.2L100.7,5h-0.2 M96.8,5h3.5 M100.3,5.5h-3.5 M100.6,5.5V5.3V5.1V5l0,0
	 M100.3,5L100.3,5h0.2 M100.3,5.5L100.3,5.5V5.3V5.2V5.1l0,0l0,0l0,0l0,0 M101.1,8.8L101,5.4 M101,5.5L101,5.5L101,5.5 M101,5.5
	L101,5.5L101,5.5h-0.2h-0.2 M100.6,5.5h-0.3 M100.3,5.5l0.1,3.4 M96.8,5.5L96.8,5.5V5.3V5.2V5.1l0,0l0,0l0,0l0,0 M96.6,5L96.6,5h0.2
	 M96.5,5.5V5.3V5.1V5l0,0 M96.1,5.5L96,8.9 M96.7,8.8l0.1-3.4 M96.8,5.5L96.8,5.5h-0.3 M96.5,5.5h-0.2h-0.1h-0.1l0,0 M96.1,5.5
	L96.1,5.5 M101.1,9.1V8.8 M101.1,9.4V9.1 M101.1,9.6V9.4 M101.1,9.7V9.6 M101.1,8.8L101.1,8.8L101.1,8.8h-0.2h-0.1h-0.1h-0.3
	 M96,9.7L96,9.7 M96,9.3v0.4 M96,8.9v0.3 M96,8.8L96,8.8 M96,8.8L96,8.8L96,8.8h0.2h0.1h0.1h0.3 M96.7,8.8h3.6 M121.9,5L121.9,5
	h-0.2h-0.1l-0.1,0.1l-0.1,0.1v0.1v0.1v0.1 M125.7,5h0.1h0.1h0.1l0.1,0.1l0.1,0.1v0.1v0.1v0.1 M121.4,5.5V5.3l0.1-0.2l0.2-0.1h0.2
	 M126.2,5.5V5.3l-0.1-0.2L125.9,5h-0.2 M122,5h3.5 M125.6,5.5h-3.5 M125.8,5.5V5.3V5.1V5l0,0 M125.6,5h0.1h0.1 M125.6,5.5L125.6,5.5
	V5.3V5.2V5.1l0,0l0,0l0,0l0,0 M126.3,8.8l-0.1-3.4 M126.3,5.5L126.3,5.5L126.3,5.5 M126.2,5.5L126.2,5.5h-0.1H126h-0.2 M125.8,5.5
	h-0.3 M125.6,5.5l0.1,3.4 M122,5.5L122,5.5V5.3V5.2V5.1l0,0l0,0l0,0l0,0 M121.9,5L121.9,5h0.2 M121.8,5.5V5.3V5.1V5l0,0 M121.3,5.5
	l-0.1,3.4 M122,8.8l0.1-3.4 M122,5.5L122,5.5h-0.3 M121.8,5.5h-0.2h-0.1h-0.1l0,0 M121.4,5.5L121.4,5.5 M126.3,9.1V8.8 M126.3,9.4
	V9.1 M126.3,9.6V9.4 M126.3,9.7V9.6 M126.3,8.8L126.3,8.8L126.3,8.8h-0.2H126h-0.1h-0.3 M121.3,9.7L121.3,9.7 M121.3,9.3v0.4
	 M121.3,8.9v0.3 M121.3,8.8L121.3,8.8 M121.3,8.8L121.3,8.8L121.3,8.8h0.2h0.1h0.1h0.3 M122,8.8h3.6 M234.2,5h-0.1H234h-0.1
	l-0.1,0.1l-0.1,0.1v0.1v0.1v0.1 M238,5h0.1h0.1h0.1l0.1,0.1l0.1,0.1v0.1v0.1v0.1 M233.7,5.5V5.3l0.1-0.2L234,5h0.2 M238.5,5.5V5.3
	l-0.1-0.2L238.2,5H238 M234.3,5h3.5 M237.9,5.5h-3.5 M238.1,5.5V5.3V5.1V5l0,0 M237.9,5h0.1h0.1 M237.9,5.5L237.9,5.5V5.3V5.2V5.1
	l0,0l0,0l0,0l0,0 M238.6,8.8V5.5 M238.6,5.5L238.6,5.5L238.6,5.5 M238.5,5.5L238.5,5.5h-0.1h-0.1h-0.2 M238.1,5.5h-0.3 M237.9,5.5
	l0.1,3.4 M234.3,5.5L234.3,5.5V5.3V5.2V5.1l0,0l0,0l0,0l0,0 M234.2,5L234.2,5h0.2 M234.1,5.5V5.3V5.1V5l0,0 M233.6,5.5l-0.1,3.4
	 M234.3,8.8l0.1-3.4 M234.3,5.5L234.3,5.5H234 M234.1,5.5h-0.2h-0.1h-0.1l0,0 M233.7,5.5L233.7,5.5 M238.6,9.1V8.8 M238.6,9.4V9.1
	 M238.6,9.6V9.4 M238.6,9.7V9.6 M238.6,8.8L238.6,8.8L238.6,8.8h-0.2h-0.1h-0.1h-0.3 M233.6,9.7L233.6,9.7 M233.6,9.3v0.4
	 M233.6,8.9v0.3 M233.6,8.8L233.6,8.8 M233.6,8.8L233.6,8.8L233.6,8.8h0.2h0.1h0.1h0.3 M234.3,8.8h3.6 M201.9,5h-0.1h-0.1h-0.1
	l-0.1,0.1l-0.1,0.1v0.1v0.1v0.1 M205.8,5h0.1h0.1h0.1l0.1,0.1l0.1,0.1v0.1v0.1v0.1 M201.4,5.5V5.3l0.1-0.2l0.2-0.1h0.2 M206.3,5.5
	V5.3l-0.1-0.2L206,5h-0.2 M202,5h3.5 M205.6,5.5h-3.5 M205.9,5.5V5.3V5.1V5l0,0 M205.6,5h0.1h0.1 M205.6,5.5L205.6,5.5V5.3V5.2V5.1
	l0,0l0,0l0,0l0,0 M206.3,8.8l-0.1-3.4 M206.3,5.5L206.3,5.5L206.3,5.5 M206.3,5.5L206.3,5.5h-0.1h-0.1h-0.2 M205.9,5.5h-0.3
	 M205.6,5.5l0.1,3.4 M202,5.5L202,5.5V5.3V5.2V5.1l0,0l0,0l0,0l0,0 M201.9,5L201.9,5h0.2 M201.8,5.5V5.3V5.1V5l0,0 M201.3,5.5
	l-0.1,3.4 M202,8.8l0.1-3.4 M202,5.5L202,5.5h-0.3 M201.8,5.5h-0.2h-0.1h-0.1l0,0 M201.4,5.5L201.4,5.5 M206.3,9.1V8.8 M206.3,9.4
	V9.1 M206.4,9.6V9.4 M206.4,9.7V9.6 M206.3,8.8L206.3,8.8L206.3,8.8h-0.2H206h-0.1h-0.3 M201.3,9.7L201.3,9.7 M201.3,9.3v0.4
	 M201.3,8.9v0.3 M201.3,8.8L201.3,8.8 M201.3,8.8L201.3,8.8L201.3,8.8h0.2h0.1h0.1h0.3 M202,8.8h3.6 M191.3,5h-0.1h-0.1H191
	l-0.1,0.1l-0.1,0.1v0.1v0.1v0.1 M195.2,5h0.1h0.1h0.1l0.1,0.1l0.1,0.1v0.1v0.1v0.1 M190.8,5.5V5.3l0.1-0.2l0.2-0.1h0.2 M195.7,5.5
	V5.3l-0.1-0.2L195.4,5h-0.2 M191.5,5h3.5 M195,5.5h-3.5 M195.3,5.5V5.3V5.1V5l0,0 M195,5h0.1h0.1 M195,5.5L195,5.5V5.3V5.2V5.1l0,0
	l0,0l0,0l0,0 M195.8,8.8l-0.1-3.4 M195.8,5.5L195.8,5.5L195.8,5.5 M195.7,5.5L195.7,5.5h-0.1h-0.1h-0.2 M195.3,5.5H195 M195,5.5
	l0.1,3.4 M191.5,5.5L191.5,5.5V5.3V5.2V5.1l0,0l0,0l0,0l0,0 M191.4,5L191.4,5h0.2 M191.2,5.5V5.3V5.1V5l0,0 M190.8,5.5l-0.1,3.4
	 M191.5,8.8l0.1-3.4 M191.5,5.5L191.5,5.5h-0.3 M191.2,5.5h-0.1H191h-0.1l0,0 M190.8,5.5L190.8,5.5 M195.8,9.1V8.8 M195.8,9.4V9.1
	 M195.8,9.6V9.4 M195.8,9.7V9.6 M195.8,8.8L195.8,8.8L195.8,8.8h-0.2h-0.1h-0.1h-0.3 M190.7,9.7L190.7,9.7 M190.8,9.3v0.4
	 M190.8,8.9v0.3 M190.8,8.8L190.8,8.8 M190.8,8.8L190.8,8.8L190.8,8.8h0.2h0.1h0.1h0.3 M191.5,8.8h3.6 M180.8,5h-0.1h-0.1h-0.1
	l-0.1,0.1l-0.1,0.1v0.1v0.1v0.1 M184.7,5h0.1h0.1h0.1l0.1,0.1l0.1,0.1v0.1v0.1v0.1 M180.3,5.5V5.3l0.1-0.2l0.2-0.1h0.2 M185.2,5.5
	V5.3l-0.1-0.2L184.9,5h-0.2 M181,5h3.5 M184.5,5.5H181 M184.8,5.5V5.3V5.1V5l0,0 M184.5,5h0.1h0.1 M184.5,5.5L184.5,5.5V5.3V5.2V5.1
	l0,0l0,0l0,0l0,0 M185.3,8.8l-0.1-3.4 M185.2,5.5L185.2,5.5L185.2,5.5 M185.2,5.5L185.2,5.5h-0.1H185h-0.2 M184.8,5.5h-0.3
	 M184.5,5.5l0.1,3.4 M181,5.5L181,5.5V5.3V5.2V5.1l0,0l0,0l0,0l0,0 M180.8,5L180.8,5h0.2 M180.7,5.5V5.3V5.1V5l0,0 M180.3,5.5
	l-0.1,3.4 M180.9,8.8l0.1-3.4 M181,5.5L181,5.5h-0.3 M180.7,5.5h-0.1h-0.1h-0.1l0,0 M180.3,5.5L180.3,5.5 M185.3,9.1V8.8 M185.3,9.4
	V9.1 M185.3,9.6V9.4 M185.3,9.7V9.6 M185.3,8.8L185.3,8.8L185.3,8.8h-0.2H185h-0.1h-0.3 M180.2,9.7L180.2,9.7 M180.2,9.3v0.4
	 M180.2,8.9v0.3 M180.2,8.8L180.2,8.8 M180.2,8.8L180.2,8.8L180.2,8.8h0.2h0.1h0.1h0.3 M180.9,8.8h3.6 M86.1,5L86.1,5h-0.2h-0.1
	l-0.1,0.1l-0.1,0.1v0.1v0.1v0.1 M89.9,5L89.9,5h0.2h0.1l0.1,0.1l0.1,0.1v0.1v0.1v0.1 M85.6,5.5V5.3l0.1-0.2L85.9,5h0.2 M90.4,5.5
	V5.3l-0.1-0.2L90.1,5h-0.2 M86.2,5h3.5 M89.8,5.5h-3.5 M90,5.5V5.3V5.1V5l0,0 M89.8,5L89.8,5H90 M89.8,5.5L89.8,5.5V5.3V5.2V5.1l0,0
	l0,0l0,0l0,0 M90.5,8.8l-0.1-3.4 M90.5,5.5L90.5,5.5L90.5,5.5 M90.4,5.5L90.4,5.5L90.4,5.5h-0.2H90 M90,5.5h-0.3 M89.8,5.5l0.1,3.4
	 M86.2,5.5L86.2,5.5V5.3V5.2V5.1l0,0l0,0l0,0l0,0 M86.1,5L86.1,5h0.2 M86,5.5V5.3V5.1V5l0,0 M85.5,5.5l-0.1,3.4 M86.2,8.8l0.1-3.4
	 M86.2,5.5L86.2,5.5h-0.3 M86,5.5h-0.2h-0.1h-0.1l0,0 M85.6,5.5L85.6,5.5 M90.5,9.1V8.8 M90.5,9.4V9.1 M90.5,9.6V9.4 M90.5,9.7V9.6
	 M90.5,8.8L90.5,8.8L90.5,8.8h-0.2h-0.1h-0.1h-0.3 M85.5,9.7L85.5,9.7 M85.5,9.3v0.4 M85.5,8.9v0.3 M85.5,8.8L85.5,8.8 M85.5,8.8
	L85.5,8.8L85.5,8.8h0.2h0.1h0.1h0.3 M86.2,8.8h3.6 M30.6,5L30.6,5h-0.2h-0.1l-0.1,0.1l-0.1,0.1v0.1v0.1v0.1 M34.5,5L34.5,5h0.2h0.1
	l0.1,0.1L35,5.2v0.1v0.1v0.1 M30.1,5.5V5.3l0.1-0.2L30.4,5h0.2 M35,5.5V5.3l-0.1-0.2L34.7,5h-0.2 M30.8,5h3.5 M34.3,5.5h-3.5
	 M34.6,5.5V5.3V5.1V5l0,0 M34.3,5L34.3,5h0.2 M34.3,5.5L34.3,5.5V5.3V5.2V5.1l0,0l0,0l0,0l0,0 M35.1,8.8L35,5.4 M35,5.5L35,5.5
	L35,5.5 M35,5.5L35,5.5L35,5.5h-0.2h-0.2 M34.6,5.5h-0.3 M34.3,5.5l0.1,3.4 M30.8,5.5L30.8,5.5V5.3V5.2V5.1l0,0l0,0l0,0l0,0 M30.6,5
	L30.6,5h0.2 M30.5,5.5V5.3V5.1V5l0,0 M30.1,5.5L30,8.9 M30.7,8.8l0.1-3.4 M30.8,5.5L30.8,5.5h-0.3 M30.5,5.5h-0.2h-0.1h-0.1l0,0
	 M30.1,5.5L30.1,5.5 M35.1,9.1V8.8 M35.1,9.4V9.1 M35.1,9.6V9.4 M35.1,9.7V9.6 M35.1,8.8L35.1,8.8L35.1,8.8h-0.2h-0.1h-0.1h-0.3
	 M30,9.7L30,9.7 M30,9.3v0.4 M30,8.9v0.3 M30,8.8L30,8.8 M30,8.8L30,8.8L30,8.8h0.2h0.1h0.1h0.3 M30.7,8.8h3.6 M132.4,5h-0.1h-0.1
	h-0.1L132,5.1l-0.1,0.1v0.1v0.1v0.1 M136.3,5h0.1h0.1h0.1l0.1,0.1l0.1,0.1v0.1v0.1v0.1 M131.9,5.5V5.3l0.1-0.2l0.2-0.1h0.2
	 M136.8,5.5V5.3l-0.2-0.2L136.4,5h-0.2 M132.6,5h3.5 M136.1,5.5h-3.5 M136.4,5.5V5.3V5.1V5l0,0 M136.1,5h0.1h0.1 M136.1,5.5
	L136.1,5.5V5.3V5.2V5.1l0,0l0,0l0,0l0,0 M136.9,8.8l-0.1-3.4 M136.8,5.5L136.8,5.5L136.8,5.5 M136.8,5.5L136.8,5.5h-0.1h-0.1h-0.2
	 M136.4,5.5h-0.3 M136.1,5.5l0.1,3.4 M132.6,5.5L132.6,5.5V5.3V5.2V5.1l0,0l0,0l0,0l0,0 M132.4,5L132.4,5h0.2 M132.3,5.5V5.3V5.1V5
	l0,0 M131.9,5.5l-0.1,3.4 M132.5,8.8l0.1-3.4 M132.6,5.5L132.6,5.5h-0.3 M132.3,5.5h-0.1h-0.1H132l0,0 M131.9,5.5L131.9,5.5
	 M136.9,9.1V8.8 M136.9,9.4V9.1 M136.9,9.6V9.4 M136.9,9.7V9.6 M136.9,8.8L136.9,8.8L136.9,8.8h-0.2h-0.1h-0.1h-0.3 M131.8,9.7
	L131.8,9.7 M131.8,9.3v0.4 M131.8,8.9v0.3 M131.8,8.8L131.8,8.8 M131.8,8.8L131.8,8.8L131.8,8.8h0.2h0.1h0.1h0.3 M132.5,8.8h3.6
	 M148.5,5h-0.1h-0.1h-0.1l-0.1,0.1L148,5.2v0.1v0.1v0.1 M152.4,5h0.1h0.1h0.1l0.1,0.1l0.1,0.1v0.1v0.1v0.1 M148,5.5V5.3l0.1-0.2
	l0.2-0.1h0.2 M152.9,5.5V5.3l-0.1-0.2L152.6,5h-0.2 M148.7,5h3.5 M152.2,5.5h-3.5 M152.5,5.5V5.3V5.1V5l0,0 M152.2,5h0.1h0.1
	 M152.2,5.5L152.2,5.5V5.3V5.2V5.1l0,0l0,0l0,0l0,0 M153,8.8l-0.1-3.4 M152.9,5.5L152.9,5.5L152.9,5.5 M152.9,5.5L152.9,5.5h-0.1
	h-0.1h-0.1 M152.5,5.5h-0.3 M152.2,5.5l0.1,3.4 M148.7,5.5L148.7,5.5V5.3V5.2V5.1l0,0l0,0l0,0l0,0 M148.5,5L148.5,5h0.2 M148.4,5.5
	V5.3V5.1V5l0,0 M148,5.5l-0.1,3.4 M148.6,8.8l0.1-3.4 M148.7,5.5L148.7,5.5h-0.3 M148.4,5.5h-0.2h-0.1H148l0,0 M148,5.5L148,5.5
	 M153,9.1V8.8 M153,9.4V9.1 M153,9.6V9.4 M153,9.7V9.6 M153,8.8L153,8.8L153,8.8h-0.2h-0.1h-0.1h-0.3 M147.9,9.7L147.9,9.7
	 M147.9,9.3v0.4 M147.9,8.9v0.3 M147.9,8.8L147.9,8.8 M147.9,8.8L147.9,8.8L147.9,8.8h0.2h0.1h0.1h0.3 M148.6,8.8h3.6 M337,5h0.1
	h0.1h0.1l0.1,0.1l0.1,0.1v0.1v0.1v0.1 M337.5,5.5V5.3l-0.1-0.2L337.2,5H337 M336.5,5h0.3 M337.1,5.5V5.3V5.1V5l0,0 M336.8,5h0.1h0.1
	 M336.8,5.5L336.8,5.5V5.3V5.2V5.1l0,0l0,0l0,0l0,0 M337.6,8.8l-0.1-3.4 M337.5,5.5L337.5,5.5L337.5,5.5 M337.5,5.5L337.5,5.5h-0.1
	h-0.1h-0.1 M337.1,5.5h-0.3 M336.8,5.5l0.1,3.4 M337.6,9.1V8.8 M337.6,9.4V9.1 M337.6,9.6V9.4 M337.6,9.7V9.6 M337.6,8.8L337.6,8.8
	L337.6,8.8h-0.2h-0.1h-0.1h-0.3 M323.3,5h-0.1h-0.1H323l-0.1,0.1l-0.1,0.1v0.1v0.1v0.1 M322.8,5.5V5.3l0.1-0.2l0.2-0.1h0.2 M323.5,5
	h2.4 M323.5,5.5L323.5,5.5V5.3V5.2V5.1l0,0l0,0l0,0l0,0 M323.3,5L323.3,5h0.2 M323.2,5.5V5.3V5.1V5l0,0 M322.8,5.5l-0.1,3.4
	 M323.4,8.8l0.1-3.4 M323.5,5.5L323.5,5.5h-0.3 M323.2,5.5H323h-0.1h-0.1l0,0 M322.8,5.5L322.8,5.5 M322.7,9.7L322.7,9.7 M322.7,9.3
	v0.4 M322.7,8.9v0.3 M322.7,8.8L322.7,8.8 M322.7,8.8L322.7,8.8L322.7,8.8h0.2h0.1h0.1h0.3 M20.1,5H20h-0.1h-0.1l-0.1,0.1l-0.1,0.1
	v0.1l0,0.1v0.1 M24,5h0.1h0.1h0.1l0.1,0.1l0.1,0.1v0.1v0.1v0.1 M19.6,5.5V5.3l0.1-0.2L19.9,5h0.2 M24.5,5.5V5.3l-0.1-0.2L24.2,5H24
	 M20.3,5h3.5 M23.8,5.5h-3.5 M24.1,5.5V5.3V5.1V5l0,0 M23.8,5h0.1H24 M23.8,5.5L23.8,5.5V5.3V5.2V5.1l0,0l0,0l0,0l0,0 M24.5,8.8
	l-0.1-3.4 M24.5,5.5L24.5,5.5L24.5,5.5 M24.5,5.5L24.5,5.5h-0.1h-0.1h-0.1 M24.1,5.5h-0.3 M23.8,5.5l0.1,3.4 M20.3,5.5L20.3,5.5V5.3
	V5.2V5.1l0,0l0,0l0,0l0,0 M20.1,5L20.1,5h0.2 M20,5.5V5.3V5.1V5l0,0 M19.6,5.5l-0.1,3.4 M20.2,8.8l0.1-3.4 M20.3,5.5L20.3,5.5H20
	 M20,5.5h-0.2h-0.1h-0.1l0,0 M19.6,5.5L19.6,5.5 M24.6,9.1V8.8 M24.6,9.4V9.1 M24.6,9.6V9.4 M24.6,9.7V9.6 M24.5,8.8L24.5,8.8
	L24.5,8.8h-0.2h-0.1h-0.1h-0.3 M19.5,9.7L19.5,9.7 M19.5,9.3v0.4 M19.5,8.9v0.3 M19.5,8.8L19.5,8.8 M19.5,8.8L19.5,8.8L19.5,8.8h0.2
	h0.1h0.1h0.3 M20.2,8.8h3.6 M9.6,5H9.5H9.4H9.3L9.2,5.1L9.1,5.2v0.1v0.1v0.1 M13.4,5h0.1h0.1h0.1l0.1,0.1l0.1,0.1v0.1v0.1v0.1
	 M9.1,5.5V5.3l0.1-0.2L9.4,5h0.2 M13.9,5.5V5.3l-0.1-0.2L13.6,5h-0.2 M9.7,5h3.5 M13.3,5.5H9.8 M13.5,5.5V5.3V5.1V5l0,0 M13.3,5h0.1
	h0.1 M13.3,5.5L13.3,5.5V5.3V5.2V5.1V5l0,0l0,0l0,0 M14,8.8l-0.1-3.4 M14,5.5L14,5.5L14,5.5 M13.9,5.5L13.9,5.5h-0.1h-0.1h-0.1
	 M13.5,5.5h-0.3 M13.3,5.5l0.1,3.4 M9.7,5.5L9.7,5.5V5.3V5.2V5.1V5l0,0l0,0l0,0 M9.6,5L9.6,5h0.2 M9.5,5.5V5.3V5.1V5l0,0 M9,5.5
	L8.9,8.9 M9.7,8.8l0.1-3.4 M9.7,5.5L9.7,5.5H9.4 M9.5,5.5H9.3H9.2H9.1l0,0 M9.1,5.5L9.1,5.5 M14,9.1V8.8 M14,9.4V9.1 M14,9.6V9.4
	 M14,9.7V9.6 M14,8.8L14,8.8L14,8.8h-0.2h-0.1h-0.1h-0.3 M9,9.7L9,9.7 M9,9.3v0.4 M9,8.9v0.3 M9,8.8L9,8.8 M9,8.8L9,8.8L9,8.8h0.2
	h0.1h0.1h0.3 M9.7,8.8h3.6 M9.2,9.9L9.2,9.9L9.2,9.9l0.3-0.3l0.2-0.3l0.1-0.2V8.9 M13.3,8.8V9l0.1,0.2l0.2,0.3l0.2,0.2l0.1,0.1l0,0
	 M271.4,5h-0.1h-0.1h-0.1L271,5.1l-0.1,0.1v0.1v0.1v0.1 M275.2,5h0.1h0.1h0.1l0.1,0.1l0.1,0.1v0.1v0.1v0.1 M270.9,5.5V5.3l0.1-0.2
	l0.2-0.1h0.2 M275.7,5.5V5.3l-0.1-0.2L275.4,5h-0.2 M271.5,5h3.5 M275.1,5.5h-3.5 M275.3,5.5V5.3V5.1V5l0,0 M275.1,5h0.1h0.1
	 M275.1,5.5L275.1,5.5V5.3V5.2V5.1l0,0l0,0l0,0l0,0 M275.8,8.8l-0.1-3.4 M275.8,5.5L275.8,5.5L275.8,5.5 M275.7,5.5L275.7,5.5h-0.1
	h-0.1h-0.2 M275.3,5.5H275 M275.1,5.5l0.1,3.4 M271.5,5.5L271.5,5.5V5.3V5.2V5.1l0,0l0,0l0,0l0,0 M271.4,5L271.4,5h0.2 M271.3,5.5
	V5.3V5.1V5l0,0 M270.8,5.5l-0.1,3.4 M271.5,8.8l0.1-3.4 M271.5,5.5L271.5,5.5h-0.3 M271.3,5.5h-0.1h-0.1H271l0,0 M270.9,5.5
	L270.9,5.5 M275.8,9.1V8.8 M275.8,9.4V9.1 M275.8,9.6V9.4 M275.8,9.7V9.6 M275.8,8.8L275.8,8.8L275.8,8.8h-0.2l0,0h-0.1h-0.3
	 M270.8,9.7L270.8,9.7 M270.8,9.3v0.4 M270.8,8.9v0.3 M270.8,8.8L270.8,8.8 M270.8,8.8L270.8,8.8L270.8,8.8h0.2h0.1h0.1h0.3
	 M271.5,8.8h3.6 M164,5h-0.1h-0.1h-0.1l-0.1,0.1l-0.1,0.1v0.1v0.1v0.1 M167.9,5h0.1h0.1h0.1l0.1,0.1l0.1,0.1v0.1v0.1v0.1 M163.5,5.5
	V5.3l0.1-0.2l0.2-0.1h0.2 M168.4,5.5V5.3l-0.1-0.2L168.1,5h-0.2 M164.1,5h3.5 M167.7,5.5h-3.5 M168,5.5V5.3V5.1V5l0,0 M167.7,5h0.1
	h0.1 M167.7,5.5L167.7,5.5V5.3V5.2V5.1l0,0l0,0l0,0l0,0 M168.4,8.8l-0.1-3.4 M168.4,5.5L168.4,5.5L168.4,5.5 M168.4,5.5L168.4,5.5
	h-0.1h-0.1h-0.1 M168,5.5h-0.3 M167.7,5.5l0.1,3.4 M164.1,5.5L164.1,5.5V5.3V5.2V5.1l0,0l0,0l0,0l0,0 M164,5L164,5h0.2 M163.9,5.5
	V5.3V5.1V5l0,0 M163.4,5.5l-0.1,3.4 M164.1,8.8l0.1-3.4 M164.1,5.5L164.1,5.5h-0.3 M163.9,5.5h-0.1h-0.1h-0.1l0,0 M163.5,5.5
	L163.5,5.5 M168.5,9.9V9.7V9.5V9.2V8.9 M168.4,8.8L168.4,8.8L168.4,8.8h-0.2h-0.1H168h-0.3 M163.4,9.7L163.4,9.7 M163.4,9.3v0.4
	 M163.4,8.9v0.3 M163.4,8.8L163.4,8.8 M163.4,8.8L163.4,8.8L163.4,8.8h0.2h0.1h0.1h0.3 M164.1,8.8h3.6 M68.5,5L68.5,5h-0.2h-0.1
	l-0.1,0.1L68,5.2v0.1v0.1v0.1 M72.4,5L72.4,5h0.2h0.1l0.1,0.1l0.1,0.1v0.1v0.1v0.1 M68,5.5V5.3l0.1-0.2L68.3,5h0.2 M72.9,5.5V5.3
	l-0.1-0.2L72.6,5h-0.2 M68.7,5h3.5 M72.2,5.5h-3.5 M72.5,5.5V5.3V5.1V5l0,0 M72.2,5L72.2,5h0.2 M72.2,5.5L72.2,5.5V5.3V5.2V5.1l0,0
	l0,0l0,0l0,0 M73,8.8l-0.1-3.4 M72.9,5.5L72.9,5.5L72.9,5.5 M72.9,5.5L72.9,5.5L72.9,5.5h-0.2h-0.1 M72.5,5.5h-0.3 M72.2,5.5
	l0.1,3.4 M68.7,5.5L68.7,5.5V5.3V5.2V5.1l0,0l0,0l0,0l0,0 M68.5,5L68.5,5h0.2 M68.4,5.5V5.3V5.1V5l0,0 M68,5.5l-0.1,3.4 M68.6,8.8
	l0.1-3.4 M68.7,5.5L68.7,5.5h-0.3 M68.4,5.5h-0.2h-0.1H68l0,0 M68,5.5L68,5.5 M73,9.9V9.7V9.5V9.2V8.9 M73,8.8L73,8.8L73,8.8h-0.2
	h-0.1h-0.1h-0.3 M67.9,9.7L67.9,9.7 M67.9,9.3v0.4 M67.9,8.9v0.3 M67.9,8.8L67.9,8.8 M67.9,8.8L67.9,8.8L67.9,8.8h0.2h0.1h0.1h0.3
	 M68.6,8.8h3.6 M217.3,5h-0.1h-0.1H217l-0.1,0.1l-0.1,0.1v0.1v0.1v0.1 M221.2,5h0.1h0.1h0.1l0.1,0.1l0.1,0.1v0.1v0.1v0.1 M216.8,5.5
	V5.3l0.1-0.2l0.2-0.1h0.2 M221.7,5.5V5.3l-0.1-0.2L221.4,5h-0.2 M217.5,5h3.5 M221,5.5h-3.5 M221.3,5.5V5.3V5.1V5l0,0 M221,5h0.1
	h0.1 M221,5.5L221,5.5V5.3V5.2V5.1l0,0l0,0l0,0l0,0 M221.8,8.8l-0.1-3.4 M221.7,5.5L221.7,5.5L221.7,5.5 M221.7,5.5L221.7,5.5h-0.1
	h-0.1h-0.2 M221.3,5.5H221 M221,5.5l0.1,3.4 M217.5,5.5L217.5,5.5V5.3V5.2V5.1l0,0l0,0l0,0l0,0 M217.3,5L217.3,5h0.2 M217.2,5.5V5.3
	V5.1V5l0,0 M216.8,5.5l-0.1,3.4 M217.4,8.8l0.1-3.4 M217.5,5.5L217.5,5.5h-0.3 M217.2,5.5H217h-0.1h-0.1l0,0 M216.8,5.5L216.8,5.5
	 M221.8,9.9V9.7V9.5V9.2V8.9 M221.8,8.8L221.8,8.8L221.8,8.8h-0.2h-0.1h-0.1h-0.3 M216.7,9.7L216.7,9.7 M216.7,9.3v0.4 M216.7,8.9
	v0.3 M216.7,8.8L216.7,8.8 M216.7,8.8L216.7,8.8L216.7,8.8h0.2h0.1h0.1h0.3 M217.4,8.8h3.6 M53.1,5L53.1,5h-0.2h-0.1l-0.1,0.1
	l-0.1,0.1v0.1v0.1v0.1 M57,5L57,5h0.2h0.1l0.1,0.1l0.1,0.1v0.1v0.1v0.1 M52.6,5.5V5.3l0.1-0.2L52.9,5h0.2 M57.5,5.5V5.3l-0.1-0.2
	L57.2,5H57 M53.2,5h3.5 M56.8,5.5h-3.5 M57,5.5V5.3V5.1V5l0,0 M56.8,5L56.8,5H57 M56.8,5.5L56.8,5.5V5.3V5.2V5.1l0,0l0,0l0,0l0,0
	 M57.5,8.8l-0.1-3.4 M57.5,5.5L57.5,5.5L57.5,5.5 M57.5,5.5L57.5,5.5L57.5,5.5h-0.2h-0.2 M57,5.5h-0.3 M56.8,5.5l0.1,3.4 M53.2,5.5
	L53.2,5.5V5.3V5.2V5.1l0,0l0,0l0,0l0,0 M53.1,5L53.1,5h0.2 M53,5.5V5.3V5.1V5l0,0 M52.5,5.5l-0.1,3.4 M53.2,8.8l0.1-3.4 M53.2,5.5
	L53.2,5.5h-0.3 M53,5.5h-0.2h-0.1h-0.1l0,0 M52.6,5.5L52.6,5.5 M57.6,9.9V9.7V9.5V9.2V8.9 M57.5,8.8L57.5,8.8L57.5,8.8h-0.2h-0.1
	h-0.1h-0.3 M52.5,9.7L52.5,9.7 M52.5,9.3v0.4 M52.5,8.9v0.3 M52.5,8.8L52.5,8.8 M52.5,8.8L52.5,8.8L52.5,8.8h0.2h0.1h0.1h0.3
	 M53.2,8.8h3.6 M306.3,0.7h0.4h0.6h0.7h0.7h0.6h0.4 M260.3,2.7L260.3,2.7L260.3,2.7L260.3,2.7L260.3,2.7L260.3,2.7L260.3,2.7h-0.1
	l0,0 M260.5,9.4L260.5,9.4h-0.1l0,0 M257.7,2.2h2.1 M259.8,2.2L259.8,2.2h0.1h0.1l0.1,0.1v0.1v0.1v0.1v0.1 M260.3,9.4l-0.2-6.7
	 M260.2,2.7h-2.1 M257.2,2.2h0.5 M260.3,9.4v0.1v0.1v0.1v0.1l0.1,0.1h0.1h0.1h0.1 M258.2,9.4h2.2 M257.7,2.2L257.7,2.2h0.1h0.1
	l0.1,0.1v0.1v0.1v0.1v0.1 M258.2,9.4l-0.1-6.7 M258.5,9.9L258.5,9.9h-0.1h-0.1l-0.1-0.1V9.7V9.6V9.5V9.4 M255,2.2h2.1 M257.5,2.7
	L257.5,2.7V2.5V2.4V2.3l-0.1-0.1h-0.1h-0.1h-0.1 M257.5,2.7l0.1,6.7 M257.5,2.7h-2.1 M255.4,2.7L255.4,2.7V2.5V2.4V2.3l-0.1-0.1
	h-0.1h-0.1H255 M255.4,2.7L255.4,2.7L255.4,2.7h-0.1l0,0l0,0l0,0h-0.1h-0.1 M255.4,2.7l0.1,6.7 M257.7,9.4v0.1v0.1v0.1v0.1l0.1,0.1
	h0.1h0.1h0.1 M255.5,9.4h2.2 M255.9,9.9L255.9,9.9h-0.1h-0.1l-0.1-0.1V9.7V9.6V9.5V9.4 M255.5,9.4h-0.1h-0.2h-0.1 M255,2.2L255,2.2
	L255,2.2L255,2.2v0.2l0,0v0.1v0.1v0.1 M250.3,2.2L250.3,2.2h0.4h0.5h0.8h0.9h1h1.1 M260.3,2.7L260.3,2.7V2.5V2.4l-0.1-0.1l-0.1-0.1
	H260h-0.1h-0.1 M260.3,2.7v1.1l0.1,4.1 M255.1,9.4V8.3V4.1V2.7 M255.1,9.9L255.1,9.9L255.1,9.9L255.1,9.9V9.8V9.7V9.6V9.5V9.4
	 M260.5,9.4v0.1v0.1v0.1l0.1,0.1l0.1,0.1h0.1h0.1h0.1 M298.9,2.7L298.9,2.7L298.9,2.7L298.9,2.7L298.9,2.7L298.9,2.7L298.9,2.7h-0.1
	l0,0 M299.1,9.4L299.1,9.4H299l0,0 M296.3,2.2h2.1 M298.4,2.2L298.4,2.2h0.1h0.1l0.1,0.1v0.1v0.1v0.1v0.1 M299,9.4l-0.2-6.7
	 M298.8,2.7h-2.2 M295.8,2.2h0.5 M299,9.4v0.1v0.1v0.1v0.1l0.1,0.1h0.1h0.1h0.1 M296.8,9.4h2.2 M296.3,2.2L296.3,2.2h0.1h0.1
	l0.1,0.1v0.1v0.1v0.1v0.1 M296.8,9.4l-0.2-6.7 M297.1,9.9L297.1,9.9H297h-0.1l-0.1-0.1V9.7V9.6V9.5V9.4 M293.6,2.2h2.1 M296.1,2.7
	L296.1,2.7V2.5V2.4V2.3L296,2.2h-0.1h-0.1h-0.1 M296.1,2.7l0.1,6.7 M296.1,2.7H294 M294,2.7L294,2.7V2.5V2.4V2.3l-0.1-0.1h-0.1h-0.1
	h-0.1 M294,2.7L294,2.7L294,2.7h-0.1l0,0l0,0l0,0h-0.1h-0.2 M294,2.7l0.1,6.7 M296.3,9.4v0.1v0.1v0.1v0.1l0.1,0.1h0.1h0.1h0.1
	 M294.1,9.4h2.2 M294.5,9.9L294.5,9.9h-0.1h-0.1l-0.1-0.1V9.7V9.6V9.5V9.4 M294.1,9.4H294h-0.2h-0.1 M293.6,2.2L293.6,2.2L293.6,2.2
	L293.6,2.2v0.2l0,0v0.1v0.1v0.1 M288.9,2.2L288.9,2.2h0.4h0.5h0.8h0.9h1h1.1 M298.9,2.7L298.9,2.7V2.5V2.4l-0.1-0.1l-0.1-0.1h-0.1
	h-0.1h-0.1 M298.9,2.7v1.1l0.1,4.1 M293.7,9.4V8.3l-0.1-4.2V2.7 M293.7,9.9L293.7,9.9L293.7,9.9L293.7,9.9V9.8V9.7V9.6V9.5V9.4
	 M299.1,9.4v0.1v0.1v0.1l0.1,0.1l0.1,0.1h0.1h0.1h0.1 M330.9,2.2L330.9,2.2L330.9,2.2L330.9,2.2h0.1h0.1h0.1h0.1h0.1 M331.2,2.2
	L331.2,2.2h0.1h0.1h0.1l0,0l0,0l0,0l0,0 M326.5,2.2L326.5,2.2h0.2h0.5h0.7 M334.6,2.2h0.7h0.5h0.2l0,0 M335,2.7L335,2.7V2.5V2.4V2.3
	l-0.1-0.1h-0.1h-0.1h-0.1 M327.8,2.2L327.8,2.2h-0.1h-0.1v0.1v0.1v0.1v0.1v0.1 M331.6,2.2h3 M334.6,2.2L334.6,2.2L334.6,2.2
	L334.6,2.2v0.2l0,0v0.1v0.1v0.1 M331.6,2.2L331.6,2.2l-0.1,0.2l-0.1,0.1h-0.1h-0.1L331,2.4l-0.1-0.1V2.2 M331.6,2.2L331.6,2.2
	L331.6,2.2L331.6,2.2v0.2l0,0v0.1v0.1v0.1 M330.9,2.7L330.9,2.7V2.5V2.4V2.3V2.2l0,0l0,0l0,0 M327.8,2.2h3 M327.8,2.7L327.8,2.7V2.5
	V2.4V2.3V2.2l0,0l0,0l0,0 M330.9,2.7h-3 M331.6,2.7L331.6,2.7h-0.1h-0.1h-0.1h-0.1h-0.1H331l0,0 M330.9,2.7v6.7 M331.6,9.4V2.7
	 M334.6,2.7h-3 M327.8,2.7L327.8,2.7h-0.1l0,0l0,0l0,0l0,0l0,0l0,0 M327.4,9.4V8.3V4.1V2.7 M327.8,2.7l-0.1,6.7 M335,2.7L335,2.7
	L335,2.7h-0.1l0,0l0,0l0,0h-0.3l0,0 M334.7,9.4l-0.1-6.7 M335,2.7v1.1V8v1.4 M331.6,9.4h3.1 M327.8,9.4h3.1 M330.9,9.4v0.1v0.1v0.1
	v0.1v0.1l0,0l0,0l0,0 M331.6,9.9L331.6,9.9L331.6,9.9L331.6,9.9V9.8V9.7V9.6V9.5V9.4 M331.6,9.4L331.6,9.4h-0.1h-0.1h-0.1h-0.1h-0.1
	H331l0,0 M327.8,9.9L327.8,9.9L327.8,9.9L327.8,9.9V9.8V9.7V9.6V9.5V9.4 M327.8,9.4h-0.2h-0.2l0,0 M327,9.9L327,9.9h0.1h0.1l0.1-0.1
	V9.7V9.6V9.5V9.4 M334.7,9.4v0.1v0.1v0.1v0.1v0.1l0,0l0,0l0,0 M335,9.4v0.1v0.1v0.1v0.1l0.1,0.1h0.1h0.1h0.1 M335,9.4h-0.2h-0.2l0,0
	 M303.3,2.2L303.3,2.2h0.3h0.5h0.7h0.9h1h1.1h1.1h1.1h1h0.8h0.6h0.4h0.1 M307.1,17.4L307.1,17.4L307.1,17.4H307l0,0l0,0l0,0
	 M311.1,17.4h-4 M311.1,17.4L311.1,17.4L311.1,17.4h0.1l0,0l0,0l0,0 M311.3,16.8L311.3,16.8L311.3,16.8L311.3,16.8l-0.1-0.1l0,0l0,0
	 M307.1,16.7h4 M307.1,16.7L307.1,16.7L307.1,16.7H307l0,0l0,0l0,0 M311.3,17.3L311.3,17.3L311.3,17.3 M311.4,17.3L311.4,17.3
	L311.4,17.3L311.4,17.3L311.4,17.3L311.4,17.3L311.4,17.3L311.4,17.3L311.4,17.3 M306.9,17.3L306.9,17.3L306.9,17.3 M306.9,17.3
	L306.9,17.3L306.9,17.3L306.9,17.3L306.9,17.3L306.9,17.3L306.9,17.3L306.9,17.3L306.9,17.3 M311.3,16.8L311.3,16.8L311.3,16.8
	L311.3,16.8L311.3,16.8L311.3,16.8L311.3,16.8L311.3,16.8L311.3,16.8 M306.8,16.9L306.8,16.9L306.8,16.9L306.8,16.9L306.8,16.9
	L306.8,16.9L306.8,16.9L306.8,16.9L306.8,16.9 M306.8,16.9L306.8,16.9L306.8,16.9 M306.8,16.9V17 M306.8,17.1v0.1 M306.8,17.3
	L306.8,17.3L306.8,17.3 M311.4,16.9V17 M311.4,16.9L311.4,16.9L311.4,16.9 M311.4,17.3L311.4,17.3L311.4,17.3 M311.4,17.1v0.1
	 M311.5,17L311.5,17 M311.5,17.1L311.5,17.1 M311.5,17v0.1 M306.8,17L306.8,17 M306.8,17.1L306.8,17.1 M306.8,17v0.1 M306.9,16.8
	L306.9,16.8 M306.9,16.8L306.9,16.8L306.9,16.8L306.9,16.8L306.9,16.8L306.9,16.8L306.9,16.8L306.9,16.8L306.9,16.8 M311.2,17.3
	L311.2,17.3 M311.3,17.3L311.3,17.3L311.3,17.3L311.3,17.3L311.3,17.3L311.3,17.3L311.3,17.3L311.3,17.3L311.3,17.3 M311.2,16.8
	L311.2,16.8 M311.4,16.9L311.4,16.9L311.4,16.9L311.4,16.9L311.4,16.9L311.4,16.9L311.4,16.9L311.4,16.9L311.4,16.9 M306.9,17.3
	L306.9,17.3 M306.8,17.3L306.8,17.3L306.8,17.3L306.8,17.3L306.8,17.3L306.8,17.3L306.8,17.3L306.8,17.3L306.8,17.3 M306.8,17.1v0.1
	 M306.9,17.3L306.9,17.3 M311.4,17.3L311.4,17.3 M311.4,17.1v0.1 M306.8,16.9L306.8,16.9 M306.8,16.9V17 M311.4,16.9V17 M311.3,16.9
	L311.3,16.9 M306.8,17v0.1 M311.5,17v0.1 M311.2,16.8L311.2,16.8L311.2,16.8L311.2,16.8L311.2,16.8L311.2,16.8L311.2,16.8
	L311.2,16.8L311.2,16.8 M311.2,16.8L311.2,16.8 M307,17.3L307,17.3L307,17.3L307,17.3L307,17.3L307,17.3L307,17.3L307,17.3L307,17.3
	 M307,17.3L307,17.3L307,17.3L307,17.3L307,17.3 M311.2,17.3L311.2,17.3L311.2,17.3L311.2,17.3L311.2,17.3 M311.3,17.3L311.3,17.3
	L311.3,17.3L311.3,17.3L311.3,17.3L311.3,17.3L311.3,17.3L311.3,17.3L311.3,17.3 M307,16.8L307,16.8 M306.9,16.9L306.9,16.9
	L306.9,16.9L306.9,16.9L306.9,16.9L306.9,16.9L306.9,16.9L306.9,16.9L306.9,16.9 M306.9,17.1v0.1 M306.9,17.3L306.9,17.3L306.9,17.3
	L306.9,17.3L306.9,17.3L306.9,17.3L306.9,17.3L306.9,17.3L306.9,17.3 M311.3,16.9V17 M311.3,16.9L311.3,16.9L311.3,16.9L311.3,16.9
	L311.3,16.9L311.3,16.9L311.3,16.9L311.3,16.9L311.3,16.9 M311.3,16.9L311.3,16.9L311.3,16.9L311.3,16.9L311.3,16.9L311.3,16.9
	L311.3,16.9L311.3,16.9L311.3,16.9 M307,16.8h4.2 M307,16.8L307,16.8L307,16.8L307,16.8L307,16.8L307,16.8L307,16.8L307,16.8
	L307,16.8 M311.2,16.9L311.2,16.9L311.2,16.9L311.2,16.9L311.2,16.9 M307,16.9L307,16.9L307,16.9L307,16.9L307,16.9 M307,16.9
	L307,16.9L307,16.9L307,16.9L307,16.9L307,16.9L307,16.9L307,16.9L307,16.9 M306.9,17v-0.1 M311.3,17.3L311.3,17.3L311.3,17.3
	L311.3,17.3L311.3,17.3L311.3,17.3L311.3,17.3L311.3,17.3L311.3,17.3 M311.3,17.1v0.1 M307.1,17.2L307.1,17.2L307.1,17.2L307.1,17.2
	L307.1,17.2 M307,17.3L307,17.3L307,17.3L307,17.3L307,17.3L307,17.3L307,17.3L307,17.3L307,17.3 M307,17.3h4.2 M311.2,17.3
	L311.2,17.3L311.2,17.3L311.2,17.3L311.2,17.3L311.2,17.3L311.2,17.3L311.2,17.3L311.2,17.3 M311.3,17.3L311.3,17.3L311.3,17.3
	L311.3,17.3L311.3,17.3 M307.1,17.2L307.1,17.2 M311.2,17.2h-4.1 M311.2,17.1L311.2,17.1 M311.2,17L311.2,17 M307.1,16.9h4.1
	 M307.1,16.9L307.1,16.9 M308.1,17L308.1,17L308.1,17L308.1,17L308.1,17 M308,17.1L308,17.1L308,17.1L308,17.1L308,17.1 M308.1,17
	v0.1 M310.2,17L310.2,17L310.2,17L310.2,17L310.2,17 M310.2,17.1L310.2,17.1L310.2,17.1L310.2,17.1L310.2,17.1 M310.2,17.1V17
	 M306.9,17L306.9,17L306.9,17L306.9,17h0.1 M306.9,17v0.1 M306.9,17.1L306.9,17.1L306.9,17.1L306.9,17.1h0.1 M307,17h1 M307,17v0.1
	 M307,17.1h1 M308,17v0.1 M310.2,17h1 M310.2,17.1V17 M310.2,17.1h1 M311.2,17L311.2,17L311.2,17h0.1l0,0 M311.2,17v0.1 M311.2,17.1
	L311.2,17.1L311.2,17.1h0.1l0,0 M311.4,17v0.1 M311.3,18h-4.4 M312,17.3v-0.4 M312,17.3v0.1v0.1l-0.1,0.1l-0.1,0.1l-0.1,0.1
	l-0.1,0.1h-0.1h-0.1 M306.9,18h-0.1h-0.1l-0.1-0.1l-0.1-0.1l-0.1-0.1l-0.1-0.1v-0.1v-0.1 M306.2,16.9v0.4 M306.2,16.9v-0.1v-0.1
	l0.1-0.1l0.1-0.1l0.1-0.1l0.1-0.1h0.1h0.1 M306.9,16.2h4.4 M311.3,16.2h0.1h0.1l0.1,0.1l0.1,0.1l0.1,0.1l0.1,0.1v0.1v0.1
	 M306.4,16.1L306.4,16.1l-0.2,0.2l-0.1,0.1l-0.1,0.1 M286.6,15.5l0.6,0.1l0.5,0.4l0.3,0.5l0.1,0.6l-0.1,0.6l-0.3,0.5l-0.5,0.3
	l-0.6,0.1 M286.6,18.7l-0.6-0.1l-0.5-0.3l-0.3-0.5l-0.1-0.6l0.1-0.6l0.3-0.5l0.5-0.4l0.6-0.1 M286.6,15.7l0.5,0.1l0.5,0.3l0.3,0.5
	l0.1,0.5l-0.1,0.5l-0.3,0.5l-0.5,0.3l-0.5,0.1 M286.6,18.5l-0.5-0.1l-0.5-0.3l-0.3-0.5l-0.1-0.5l0.1-0.5l0.3-0.5l0.5-0.3l0.5-0.1
	 M296.5,15.5l0.6,0.1l0.5,0.4l0.3,0.5l0.1,0.6l-0.1,0.6l-0.3,0.5l-0.5,0.3l-0.6,0.1 M296.5,18.7l-0.6-0.1l-0.5-0.3l-0.3-0.5
	l-0.1-0.6l0.1-0.6l0.3-0.5l0.5-0.4l0.6-0.1 M296.5,15.7l0.5,0.1l0.5,0.3l0.3,0.5l0.1,0.5l-0.1,0.5l-0.3,0.5l-0.5,0.3l-0.5,0.1
	 M296.5,18.5l-0.5-0.1l-0.5-0.3l-0.3-0.5l-0.1-0.5l0.1-0.5l0.3-0.5l0.5-0.3l0.5-0.1 M273.5,16.6l-0.1-0.8l-0.4-0.7l-0.6-0.5
	l-0.8-0.2h-0.8l-0.7,0.3l-0.6,0.5l-0.4,0.7l-0.1,0.8l0.1,0.8l0.4,0.7l0.6,0.5l0.7,0.3h0.8l0.7-0.3l0.6-0.5l0.4-0.7L273.5,16.6
	 M271.2,13.4l0.9,0.1l0.8,0.4l0.7,0.6l0.5,0.8l0.3,0.9v0.9l-0.3,0.9l-0.5,0.8l-0.7,0.6l-0.8,0.4l-0.9,0.1l-0.9-0.1l-0.8-0.4
	l-0.7-0.6l-0.5-0.8l-0.3-0.9v-0.9l0.3-0.9l0.5-0.8l0.7-0.6l0.8-0.4L271.2,13.4 M271.2,12.8l1,0.1l0.9,0.4l0.8,0.6l0.6,0.8l0.4,0.9
	l0.1,1l-0.1,1l-0.4,0.9l-0.6,0.8l-0.8,0.6l-0.9,0.4l-1,0.1l-1-0.1l-0.9-0.4l-0.8-0.6l-0.6-0.8l-0.4-0.9l-0.1-1l0.1-1l0.4-0.9
	l0.6-0.8l0.8-0.6l0.9-0.4L271.2,12.8 M33.4,16.6l-0.1-0.8l-0.4-0.7l-0.6-0.5l-0.7-0.2h-0.8l-0.7,0.3l-0.6,0.5l-0.4,0.7L29,16.7
	l0.1,0.8l0.4,0.7l0.6,0.5l0.7,0.3h0.8l0.7-0.3l0.6-0.5l0.4-0.7L33.4,16.6 M31.2,13.4l0.9,0.1l0.8,0.4l0.7,0.6l0.5,0.8l0.3,0.9v0.9
	L34.1,18l-0.5,0.6l-0.7,0.6l-0.8,0.4l-0.9,0.1l-0.9-0.1l-0.8-0.4l-0.7-0.6l-0.5-0.8L28,16.9V16l0.3-0.9l0.5-0.8l0.7-0.6l0.8-0.4
	L31.2,13.4 M31.2,12.8l1,0.1l0.9,0.4l0.8,0.6l0.6,0.8l0.4,0.9l0.1,1l-0.1,1l-0.5,0.8l-0.6,0.8L33,19.8l-0.9,0.4l-1,0.1l-1-0.1
	l-0.9-0.4l-0.8-0.6L28,18.4l-0.4-0.9l-0.1-1l0.1-1l0.4-0.9l0.6-0.8l0.8-0.6l0.9-0.4L31.2,12.8 M19.4,16.5l-0.1-0.8L18.9,15l-0.6-0.5
	l-0.7-0.3h-0.8l-0.7,0.3L15.5,15l-0.4,0.7L15,16.5l0.1,0.8l0.4,0.7l0.6,0.5l0.7,0.3h0.8l0.7-0.3l0.6-0.5l0.4-0.7L19.4,16.5
	 M17.1,13.4l0.9,0.1l0.8,0.4l0.7,0.6l0.5,0.8l0.3,0.9v0.9L20,18l-0.5,0.8l-0.7,0.6L18,19.8l-0.9,0.1l-0.9-0.1l-0.8-0.4l-0.7-0.6
	L14.2,18l-0.3-0.9v-0.9l0.3-0.9l0.5-0.8l0.7-0.6l0.8-0.4L17.1,13.4 M17.1,12.8l1,0.1l0.9,0.4l0.8,0.6l0.6,0.8l0.4,0.9l0.1,1l-0.1,1
	l-0.4,0.8l-0.6,0.8L19,19.8l-0.9,0.4l-1,0.1l-1-0.1l-0.9-0.4l-0.8-0.6l-0.5-0.8l-0.4-0.9l-0.1-1l0.1-1l0.4-0.9l0.6-0.8l0.8-0.6
	l0.9-0.4L17.1,12.8 M46.4,17.3l-0.1-0.5l-0.2-0.4l-0.4-0.3L45.2,16l-0.5,0.1l-0.4,0.3L44,16.8l-0.1,0.5l0.1,0.5l0.3,0.4l0.4,0.3
	l0.5,0.1l0.5-0.1l0.4-0.3l0.3-0.4L46.4,17.3 M45.2,15.7l0.6,0.1l0.5,0.3l0.3,0.5l0.1,0.6l-0.1,0.6l-0.3,0.6l-0.5,0.4l-0.6,0.1
	l-0.6-0.1L44,18.4l-0.4-0.5v-0.6l0.1-0.6l0.4-0.5l0.5-0.3L45.2,15.7 M56.3,17.3l-0.1-0.5l-0.3-0.4l-0.4-0.3L55,16l-0.5,0.1l-0.4,0.3
	l-0.3,0.4l-0.1,0.5l0.1,0.5l0.3,0.4l0.4,0.3l0.5,0.1l0.5-0.1l0.4-0.3l0.3-0.4L56.3,17.3 M55,15.7l0.6,0.1l0.5,0.3l0.3,0.5l0.1,0.6
	l-0.1,0.6l-0.2,0.6l-0.6,0.4L55,18.9l-0.6-0.1l-0.5-0.4l-0.3-0.5l-0.1-0.6l0.1-0.6l0.3-0.5l0.5-0.3L55,15.7 M94.2,17.3l-0.1-0.5
	l-0.3-0.4l-0.4-0.3L92.9,16l-0.5,0.1L92,16.4l-0.3,0.4l-0.1,0.5l0.1,0.5l0.3,0.4l0.4,0.3l0.5,0.1l0.5-0.1l0.4-0.3l0.3-0.4L94.2,17.3
	 M92.9,15.7l0.6,0.1l0.5,0.3l0.4,0.5l0.1,0.6l-0.1,0.6l-0.3,0.6l-0.5,0.4L93,18.9l-0.6-0.1l-0.6-0.4l-0.3-0.5l-0.1-0.6l0.1-0.6
	l0.3-0.5l0.5-0.3L92.9,15.7 M78.7,17.3l-0.1-0.5l-0.2-0.4L78,16.1L77.5,16L77,16.1l-0.4,0.3l-0.3,0.4l-0.1,0.5l0.1,0.5l0.3,0.4
	l0.4,0.3l0.5,0.1l0.5-0.1l0.4-0.3l0.3-0.4L78.7,17.3 M77.5,15.7l0.6,0.1l0.5,0.3l0.3,0.5l0.1,0.6l-0.1,0.6l-0.3,0.6l-0.5,0.4
	l-0.6,0.1l-0.6-0.1l-0.6-0.4L76,17.9l-0.1-0.6l0.1-0.6l0.3-0.5l0.5-0.3L77.5,15.7 M258.4,17.3l-0.1-0.5l-0.3-0.4l-0.4-0.3l-0.5-0.1
	l-0.5,0.1l-0.4,0.3l-0.3,0.4l-0.1,0.5l0.1,0.5l0.3,0.4l0.4,0.3l0.5,0.1l0.5-0.2l0.4-0.3l0.3-0.4L258.4,17.3 M257.2,15.7l0.6,0.1
	l0.5,0.3l0.3,0.5l0.1,0.6l-0.1,0.6l-0.3,0.5l-0.5,0.4l-0.6,0.1l-0.6-0.1l-0.5-0.4l-0.3-0.5l-0.1-0.6l0.1-0.6l0.3-0.5l0.5-0.3
	L257.2,15.7 M104,17.3l-0.1-0.5l-0.3-0.4l-0.4-0.3l-0.5-0.1l-0.5,0.1l-0.4,0.3l-0.3,0.4l-0.1,0.5l0.1,0.5l0.3,0.4l0.4,0.3l0.5,0.1
	l0.5-0.1l0.4-0.3l0.3-0.4L104,17.3 M102.7,15.7l0.6,0.1l0.5,0.3l0.3,0.5l0.1,0.6l-0.1,0.6l-0.3,0.5l-0.5,0.4l-0.6,0.1l-0.6-0.1
	l-0.5-0.3l-0.4-0.5l-0.1-0.6l0.1-0.6l0.4-0.5l0.5-0.3L102.7,15.7 M68.9,17.3l-0.1-0.5l-0.3-0.4l-0.4-0.3L67.6,16l-0.5,0.1l-0.3,0.3
	l-0.3,0.4l-0.1,0.5l0.1,0.5l0.3,0.4l0.4,0.3l0.5,0.1l0.5-0.1l0.4-0.3l0.3-0.4V17.3 M67.6,15.7l0.6,0.1l0.5,0.3l0.3,0.5l0.1,0.6
	L69,17.8l-0.2,0.6l-0.5,0.4l-0.7,0.1L67,18.8l-0.5-0.4l-0.4-0.5L66,17.3l0.1-0.6l0.4-0.5l0.5-0.3L67.6,15.7 M330.8,15.1L330.8,15.1
	L330.8,15.1L330.8,15.1l-0.1,0.1l0,0l0,0l0,0l0,0 M330.9,15.3L330.9,15.3L330.9,15.3L330.9,15.3l-0.1-0.1l0,0l0,0l0,0l0,0
	 M330.8,18.7L330.8,18.7L330.8,18.7L330.8,18.7l0.1-0.1l0,0l0,0l0,0l0,0 M330.9,18.5v-3.2 M330.6,15.3v3.2 M330.6,18.5L330.6,18.5
	L330.6,18.5L330.6,18.5l0.1,0.1l0,0l0,0l0,0l0,0 M330.4,15.3v3.2 M330.4,15.3L330.4,15.3v-0.1v-0.1V15h0.1h0.1h0.1h0.1 M330.8,15
	L330.8,15h0.1h0.1h0.1v0.1v0.1v0.1v0.1 M331.1,18.5v-3.2 M331.1,18.5L331.1,18.5v0.1v0.1v0.1H331h-0.1h-0.1h-0.1 M330.8,18.8
	L330.8,18.8h-0.1h-0.1h-0.1v-0.1v-0.1v-0.1v-0.1 M329.7,14.7v4.4 M328.9,14.4L328.9,14.4L328.9,14.4L328.9,14.4L328.9,14.4
	L328.9,14.4h-0.1l0,0l0,0 M328.8,14.4L328.8,14.4L328.8,14.4L328.8,14.4L328.8,14.4h-0.1l0,0l0,0l0,0 M326.8,14.4L326.8,14.4
	L326.8,14.4L326.8,14.4L326.8,14.4h-0.1l0,0l0,0l0,0 M327,14.4L327,14.4L327,14.4L327,14.4L327,14.4L327,14.4h-0.1l0,0l0,0
	 M328.7,14.4L328.7,14.4L328.7,14.4L328.7,14.4L328.7,14.4L328.7,14.4h0.1l0,0l0,0 M327.8,14.4L327.8,14.4L327.8,14.4L327.8,14.4
	L327.8,14.4h-0.1l0,0l0,0l0,0 M328,14.4L328,14.4L328,14.4L328,14.4L328,14.4L328,14.4h-0.1l0,0l0,0 M325.9,14.4L325.9,14.4
	L325.9,14.4L325.9,14.4L325.9,14.4h-0.1l0,0l0,0l0,0 M326,14.4L326,14.4L326,14.4L326,14.4L326,14.4L326,14.4h-0.1l0,0l0,0
	 M326.8,14.4L326.8,14.4L326.8,14.4L326.8,14.4L326.8,14.4L326.8,14.4h0.1l0,0l0,0 M326.8,19.4L326.8,19.4L326.8,19.4L326.8,19.4
	L326.8,19.4h0.1l0,0l0,0l0,0 M326.7,19.4L326.7,19.4L326.7,19.4L326.7,19.4L326.7,19.4L326.7,19.4h0.1l0,0l0,0 M326.9,19.4
	L326.9,19.4L326.9,19.4L326.9,19.4L326.9,19.4L326.9,19.4h-0.1l0,0l0,0 M327.8,19.4L327.8,19.4L327.8,19.4L327.8,19.4L327.8,19.4
	h0.1l0,0l0,0l0,0 M327.7,19.4L327.7,19.4L327.7,19.4L327.7,19.4L327.7,19.4L327.7,19.4h0.1l0,0l0,0 M328.8,19.4L328.8,19.4
	L328.8,19.4L328.8,19.4L328.8,19.4h0.1l0,0l0,0l0,0 M328.6,19.4L328.6,19.4L328.6,19.4L328.6,19.4L328.6,19.4L328.6,19.4h0.1l0,0
	l0,0 M328.8,19.4L328.8,19.4L328.8,19.4L328.8,19.4L328.8,19.4L328.8,19.4h-0.1l0,0l0,0 M327.7,14.4L327.7,14.4L327.7,14.4
	L327.7,14.4L327.7,14.4L327.7,14.4h0.1l0,0l0,0 M327.9,19.4L327.9,19.4L327.9,19.4L327.9,19.4L327.9,19.4L327.9,19.4h-0.1l0,0l0,0
	 M324.9,14.4L324.9,14.4L324.9,14.4L324.9,14.4L324.9,14.4h-0.1l0,0l0,0l0,0 M325.1,14.4L325.1,14.4L325.1,14.4L325.1,14.4
	L325.1,14.4L325.1,14.4H325l0,0l0,0 M325.9,19.4L325.9,19.4L325.9,19.4L325.9,19.4L325.9,19.4h0.1l0,0l0,0l0,0 M325.7,19.4
	L325.7,19.4L325.7,19.4L325.7,19.4L325.7,19.4L325.7,19.4h0.1l0,0l0,0 M325.8,14.4L325.8,14.4L325.8,14.4L325.8,14.4L325.8,14.4
	L325.8,14.4h0.1l0,0l0,0 M326,19.4L326,19.4L326,19.4L326,19.4L326,19.4L326,19.4h-0.1l0,0l0,0 M324,14.4L324,14.4L324,14.4
	L324,14.4L324,14.4h-0.1l0,0l0,0l0,0 M324.1,14.4L324.1,14.4L324.1,14.4L324.1,14.4L324.1,14.4L324.1,14.4H324l0,0l0,0 M324.9,14.4
	L324.9,14.4L324.9,14.4L324.9,14.4L324.9,14.4L324.9,14.4h0.1l0,0l0,0 M324,19.4L324,19.4L324,19.4L324,19.4L324,19.4h0.1l0,0l0,0
	l0,0 M323.8,19.4L323.8,19.4L323.8,19.4L323.8,19.4L323.8,19.4L323.8,19.4h0.1l0,0l0,0 M324.9,19.4L324.9,19.4L324.9,19.4
	L324.9,19.4L324.9,19.4h0.1l0,0l0,0l0,0 M324.8,19.4L324.8,19.4L324.8,19.4L324.8,19.4L324.8,19.4L324.8,19.4h0.1l0,0l0,0 M325,19.4
	L325,19.4L325,19.4L325,19.4L325,19.4L325,19.4h-0.1l0,0l0,0 M323.9,14.4L323.9,14.4L323.9,14.4L323.9,14.4L323.9,14.4L323.9,14.4
	h0.1l0,0l0,0 M324.1,19.4L324.1,19.4L324.1,19.4L324.1,19.4L324.1,19.4L324.1,19.4H324l0,0l0,0 M324.8,14.4L324.8,14.4L324.8,14.4
	L324.8,14.4L324.8,14.4L324.8,14.4L324.8,14.4L324.8,14.4L324.8,14.4 M324.7,14.4h0.1 M324.1,14.4L324.1,14.4L324.1,14.4L324.1,14.4
	L324.1,14.4L324.1,14.4L324.1,14.4L324.1,14.4L324.1,14.4 M324.1,14.4h0.1 M327,14.4L327,14.4L327,14.4L327,14.4L327,14.4L327,14.4
	L327,14.4L327,14.4L327,14.4 M327,14.4h0.1 M328.9,14.4L328.9,14.4L328.9,14.4L328.9,14.4L328.9,14.4L328.9,14.4L328.9,14.4
	L328.9,14.4L328.9,14.4 M328.9,14.4h0.1 M327.7,14.4L327.7,14.4L327.7,14.4L327.7,14.4L327.7,14.4L327.7,14.4L327.7,14.4L327.7,14.4
	L327.7,14.4 M327.6,14.4h0.1 M328.6,14.4L328.6,14.4L328.6,14.4L328.6,14.4L328.6,14.4L328.6,14.4L328.6,14.4L328.6,14.4L328.6,14.4
	 M328.5,14.4h0.1 M326.7,14.4L326.7,14.4L326.7,14.4L326.7,14.4L326.7,14.4L326.7,14.4L326.7,14.4L326.7,14.4L326.7,14.4
	 M326.6,14.4h0.1 M325.1,14.4L325.1,14.4L325.1,14.4L325.1,14.4L325.1,14.4L325.1,14.4L325.1,14.4L325.1,14.4L325.1,14.4
	 M325.1,14.4h0.1 M325.7,14.4L325.7,14.4L325.7,14.4L325.7,14.4L325.7,14.4L325.7,14.4L325.7,14.4L325.7,14.4L325.7,14.4
	 M325.6,14.4h0.1 M329.7,14.7L329.7,14.7L329.7,14.7L329.7,14.7L329.7,14.7L329.7,14.7L329.7,14.7 M329.5,14.4L329.5,14.4l0.1,0.1
	v0.1v0.1v0.1v0.1 M328,14.4L328,14.4L328,14.4L328,14.4L328,14.4L328,14.4L328,14.4L328,14.4L328,14.4 M328,14.4h0.1 M326,14.4
	L326,14.4L326,14.4L326,14.4L326,14.4L326,14.4L326,14.4L326,14.4L326,14.4 M326,14.4h0.1 M323.8,14.4L323.8,14.4L323.8,14.4
	L323.8,14.4L323.8,14.4L323.8,14.4L323.8,14.4L323.8,14.4L323.8,14.4 M323.7,14.4h0.1 M328.6,19.4h-0.1 M328.7,19.4L328.7,19.4
	L328.7,19.4L328.7,19.4L328.7,19.4L328.7,19.4L328.7,19.4L328.7,19.4L328.7,19.4 M326.9,19.4L326.9,19.4L326.9,19.4L326.9,19.4
	L326.9,19.4L326.9,19.4L326.9,19.4L326.9,19.4L326.9,19.4 M327.1,19.4H327 M323.8,19.4h-0.1 M323.9,19.4L323.9,19.4L323.9,19.4
	L323.9,19.4L323.9,19.4L323.9,19.4L323.9,19.4L323.9,19.4L323.9,19.4 M325.7,19.4h-0.1 M325.8,19.4L325.8,19.4L325.8,19.4
	L325.8,19.4L325.8,19.4L325.8,19.4L325.8,19.4L325.8,19.4L325.8,19.4 M326.7,19.4h-0.1 M326.8,19.4L326.8,19.4L326.8,19.4
	L326.8,19.4L326.8,19.4L326.8,19.4L326.8,19.4L326.8,19.4L326.8,19.4 M327.9,19.4L327.9,19.4L327.9,19.4L327.9,19.4L327.9,19.4
	L327.9,19.4L327.9,19.4L327.9,19.4L327.9,19.4 M328.1,19.4H328 M324.1,19.4L324.1,19.4L324.1,19.4L324.1,19.4L324.1,19.4L324.1,19.4
	L324.1,19.4L324.1,19.4L324.1,19.4 M324.2,19.4h-0.1 M324.8,19.4h-0.1 M324.9,19.4L324.9,19.4L324.9,19.4L324.9,19.4L324.9,19.4
	L324.9,19.4L324.9,19.4L324.9,19.4L324.9,19.4 M326,19.4L326,19.4L326,19.4L326,19.4L326,19.4L326,19.4L326,19.4L326,19.4L326,19.4
	 M326.1,19.4H326 M328.8,19.4L328.8,19.4L328.8,19.4L328.8,19.4L328.8,19.4L328.8,19.4L328.8,19.4L328.8,19.4L328.8,19.4 M329,19.4
	h-0.1 M325,19.4L325,19.4L325,19.4L325,19.4L325,19.4L325,19.4L325,19.4L325,19.4L325,19.4 M325.2,19.4h-0.1 M327.7,19.4h-0.1
	 M327.7,19.4L327.7,19.4L327.7,19.4L327.7,19.4L327.7,19.4L327.7,19.4L327.7,19.4L327.7,19.4L327.7,19.4 M329.7,19.1L329.7,19.1
	L329.7,19.1L329.7,19.1L329.7,19.1L329.7,19.1L329.7,19.1 M329.7,19.1L329.7,19.1v0.1v0.1v0.1h-0.1h-0.1 M328.9,14.4h-0.1
	 M328.8,19.4h0.1 M328,14.4L328,14.4 M327.9,19.4L327.9,19.4 M325.7,19.4h0.1 M325.8,14.4h-0.1 M325.1,14.4H325 M325,19.4h0.1
	 M323.8,19.4h0.1 M323.9,14.4h-0.1 M327.6,19.4h0.1 M327.7,14.4h-0.1 M324.2,14.4h-0.1 M324.1,19.4h0.1 M328.6,19.4h0.1 M328.7,14.4
	h-0.1 M326.7,19.4h0.1 M326.8,14.4h-0.1 M326.1,14.4H326 M326,19.4h0.1 M327,14.4h-0.1 M326.9,19.4h0.1 M324.8,19.4h0.1 M324.9,14.4
	h-0.1 M329.5,19.3L329.5,19.3L329.5,19.3l0.1-0.1l0,0l0,0v-0.1 M329.7,19.1v-4.4 M329.7,14.7L329.7,14.7v-0.1l0,0l0,0l0,0l0,0
	 M324.2,14.4h0.4 M323.8,14.4L323.8,14.4 M323.7,14.4L323.7,14.4L323.7,14.4L323.7,14.4L323.7,14.4L323.7,14.4L323.7,14.4
	L323.7,14.4L323.7,14.4 M325.2,14.4h0.4 M327.1,14.4h0.5 M323.7,14.5L323.7,14.5L323.7,14.5L323.7,14.5v-0.1l0,0l0,0l0,0l0,0
	 M321.8,14.4h1.9 M325.7,14.4L325.7,14.4 M325.6,14.4L325.6,14.4L325.6,14.4L325.6,14.4L325.6,14.4L325.6,14.4L325.6,14.4
	L325.6,14.4L325.6,14.4 M325.6,14.5L325.6,14.5L325.6,14.5L325.6,14.5v-0.1l0,0l0,0l0,0l0,0 M324.8,14.4L324.8,14.4 M324.7,14.4
	L324.7,14.4L324.7,14.4L324.7,14.4L324.7,14.4L324.7,14.4L324.7,14.4L324.7,14.4L324.7,14.4 M324.6,14.5L324.6,14.5L324.6,14.5
	L324.6,14.5v-0.1l0,0l0,0l0,0l0,0 M329,14.4h0.4 M327.1,14.4L327.1,14.4L327.1,14.4L327.1,14.4L327.1,14.4L327.1,14.4L327.1,14.4
	L327.1,14.4L327.1,14.4 M327.1,14.5L327.1,14.5 M327.1,14.4L327.1,14.4L327.1,14.4L327.1,14.4L327.1,14.4L327.1,14.4v0.1l0,0l0,0
	 M326.1,14.4h0.4 M326.1,14.4L326.1,14.4L326.1,14.4L326.1,14.4L326.1,14.4L326.1,14.4L326.1,14.4L326.1,14.4L326.1,14.4
	 M326.1,14.5L326.1,14.5 M326.1,14.4L326.1,14.4L326.1,14.4L326.1,14.4L326.1,14.4L326.1,14.4v0.1l0,0l0,0 M328.1,14.4L328.1,14.4
	L328.1,14.4L328.1,14.4L328.1,14.4L328.1,14.4L328.1,14.4L328.1,14.4L328.1,14.4 M328,14.5L328,14.5 M327.6,14.4L327.6,14.4
	 M327.6,14.4L327.6,14.4L327.6,14.4L327.6,14.4L327.6,14.4L327.6,14.4L327.6,14.4L327.6,14.4L327.6,14.4 M327.5,14.5L327.5,14.5
	L327.5,14.5L327.5,14.5v-0.1l0,0l0,0l0,0l0,0 M321.8,14.4L321.8,14.4L321.8,14.4L321.8,14.4L321.8,14.4L321.8,14.4v0.1l0,0l0,0
	 M321.5,14.7L321.5,14.7v-0.1v-0.1v-0.1h0.1h0.1h0.1h0.1 M329,14.4L329,14.4L329,14.4L329,14.4L329,14.4L329,14.4L329,14.4L329,14.4
	L329,14.4 M329,14.5L329,14.5 M329,14.4L329,14.4L329,14.4L329,14.4L329,14.4L329,14.4v0.1l0,0l0,0 M326.7,14.4L326.7,14.4
	 M326.6,14.4L326.6,14.4L326.6,14.4L326.6,14.4L326.6,14.4L326.6,14.4L326.6,14.4L326.6,14.4L326.6,14.4 M326.5,14.5L326.5,14.5
	L326.5,14.5L326.5,14.5v-0.1l0,0l0,0l0,0l0,0 M325.2,14.4L325.2,14.4L325.2,14.4L325.2,14.4L325.2,14.4L325.2,14.4L325.2,14.4
	L325.2,14.4L325.2,14.4 M325.2,14.5L325.2,14.5 M325.2,14.4L325.2,14.4L325.2,14.4L325.2,14.4L325.2,14.4L325.2,14.4v0.1l0,0l0,0
	 M324.2,14.4L324.2,14.4L324.2,14.4L324.2,14.4L324.2,14.4L324.2,14.4L324.2,14.4L324.2,14.4L324.2,14.4 M324.2,14.5L324.2,14.5
	 M324.2,14.4L324.2,14.4L324.2,14.4L324.2,14.4L324.2,14.4L324.2,14.4v0.1l0,0l0,0 M328.1,14.4h0.5 M328.1,14.4L328.1,14.4
	L328.1,14.4L328.1,14.4L328.1,14.4L328.1,14.4v0.1l0,0l0,0 M328.6,14.4L328.6,14.4 M328.5,14.4L328.5,14.4L328.5,14.4L328.5,14.4
	L328.5,14.4L328.5,14.4L328.5,14.4L328.5,14.4L328.5,14.4 M328.5,14.5L328.5,14.5L328.5,14.5L328.5,14.5v-0.1l0,0l0,0l0,0l0,0
	 M328.9,19.4L328.9,19.4L328.9,19.4L328.9,19.4L328.9,19.4L328.9,19.4L328.9,19.4L328.9,19.4L328.9,19.4 M328.9,19.4L328.9,19.4
	 M329,19.3L329,19.3L329,19.3L329,19.3L329,19.3L329,19.3L329,19.3L329,19.3L329,19.3 M329.1,14.5L329.1,14.5L329.1,14.5L329.1,14.5
	L329.1,14.5L329.1,14.5L329.1,14.5L329.1,14.5L329.1,14.5 M329,19.3v-4.7 M321.8,19.4L321.8,19.4h-0.1h-0.1h-0.1v-0.1v-0.1v-0.1V19
	 M325.7,19.4L325.7,19.4L325.7,19.4L325.7,19.4L325.7,19.4L325.7,19.4L325.7,19.4L325.7,19.4L325.7,19.4 M325.7,19.3L325.7,19.3
	 M325.6,14.5L325.6,14.5L325.6,14.5L325.6,14.5L325.6,14.5L325.6,14.5L325.6,14.5L325.6,14.5L325.6,14.5 M325.7,19.3L325.7,19.3
	L325.7,19.3L325.7,19.3L325.7,19.3L325.7,19.3L325.7,19.3L325.7,19.3L325.7,19.3 M325.7,14.5v4.7 M329.5,14.5v4.7 M328,19.4
	L328,19.4L328,19.4L328,19.4L328,19.4L328,19.4L328,19.4L328,19.4L328,19.4 M328,19.4L328,19.4 M328,19.3L328,19.3L328,19.3
	L328,19.3L328,19.3L328,19.3L328,19.3L328,19.3L328,19.3 M328.1,14.5L328.1,14.5L328.1,14.5L328.1,14.5L328.1,14.5L328.1,14.5
	L328.1,14.5L328.1,14.5L328.1,14.5 M328,19.3v-4.7 M324.8,19.4L324.8,19.4L324.8,19.4L324.8,19.4L324.8,19.4L324.8,19.4L324.8,19.4
	L324.8,19.4L324.8,19.4 M324.7,19.3L324.7,19.3 M321.5,19.1L321.5,19.1L321.5,19.1L321.5,19.1L321.5,19.1L321.5,19.1h0.1l0,0l0,0
	 M321.5,14.7L321.5,14.7L321.5,14.7L321.5,14.7L321.5,14.7L321.5,14.7h0.1l0,0l0,0 M321.5,19.1v-4.4 M329.4,14.5h-0.3 M329.1,14.5
	v4.7 M329.4,19.3v-4.7 M325.6,14.5h-0.3 M325.6,19.3v-4.7 M323.7,14.5h-1.9 M321.8,14.5L321.8,14.5L321.8,14.5L321.8,14.5l-0.1,0.1
	l0,0l0,0l0,0l0,0 M321.6,14.7v4.4 M321.6,19.1L321.6,19.1L321.6,19.1L321.6,19.1l0.1,0.1l0,0l0,0l0,0l0,0 M325.2,14.5v4.7
	 M325.2,14.5L325.2,14.5L325.2,14.5L325.2,14.5L325.2,14.5L325.2,14.5L325.2,14.5L325.2,14.5L325.2,14.5 M325.2,19.3v-4.7
	 M328.6,19.4L328.6,19.4L328.6,19.4L328.6,19.4L328.6,19.4L328.6,19.4L328.6,19.4L328.6,19.4L328.6,19.4 M328.5,19.3L328.5,19.3
	 M324.6,14.5L324.6,14.5L324.6,14.5L324.6,14.5L324.6,14.5L324.6,14.5L324.6,14.5L324.6,14.5L324.6,14.5 M324.7,19.3L324.7,19.3
	L324.7,19.3L324.7,19.3L324.7,19.3L324.7,19.3L324.7,19.3L324.7,19.3L324.7,19.3 M324.7,14.5v4.7 M327.2,14.5L327.2,14.5L327.2,14.5
	L327.2,14.5L327.2,14.5L327.2,14.5L327.2,14.5L327.2,14.5L327.2,14.5 M327.1,19.3v-4.7 M326.6,19.4h-0.4 M323.8,19.4L323.8,19.4
	L323.8,19.4L323.8,19.4L323.8,19.4L323.8,19.4L323.8,19.4L323.8,19.4L323.8,19.4 M323.8,19.3L323.8,19.3 M323.7,19.4h-1.9
	 M323.7,19.4L323.7,19.4L323.7,19.4L323.7,19.4L323.7,19.4L323.7,19.4v-0.1l0,0l0,0 M321.8,19.3h1.9 M321.8,19.4L321.8,19.4
	L321.8,19.4L321.8,19.4L321.8,19.4L321.8,19.4v-0.1l0,0l0,0 M328.1,19.3L328.1,19.3L328.1,19.3L328.1,19.3v0.1l0,0l0,0l0,0l0,0l0,0
	 M328.5,19.4H328 M328.5,19.4L328.5,19.4L328.5,19.4L328.5,19.4L328.5,19.4L328.5,19.4v-0.1l0,0l0,0 M325.1,19.4L325.1,19.4
	L325.1,19.4L325.1,19.4L325.1,19.4L325.1,19.4L325.1,19.4L325.1,19.4L325.1,19.4 M325.2,19.3L325.2,19.3L325.2,19.3L325.2,19.3
	L325.2,19.3L325.2,19.3L325.2,19.3L325.2,19.3L325.2,19.3 M325.1,19.4L325.1,19.4 M328.5,14.5L328.5,14.5L328.5,14.5L328.5,14.5
	L328.5,14.5L328.5,14.5L328.5,14.5L328.5,14.5L328.5,14.5 M328.5,19.3L328.5,19.3L328.5,19.3L328.5,19.3L328.5,19.3L328.5,19.3
	L328.5,19.3L328.5,19.3L328.5,19.3 M328.5,14.5v4.7 M327.6,19.4L327.6,19.4L327.6,19.4L327.6,19.4L327.6,19.4L327.6,19.4L327.6,19.4
	L327.6,19.4L327.6,19.4 M327.6,19.3L327.6,19.3 M324.6,14.5h-0.3 M324.6,19.3v-4.7 M326.6,19.4L326.6,19.4L326.6,19.4L326.6,19.4
	L326.6,19.4L326.6,19.4v-0.1l0,0l0,0 M326.7,19.4L326.7,19.4L326.7,19.4L326.7,19.4L326.7,19.4L326.7,19.4L326.7,19.4L326.7,19.4
	L326.7,19.4 M326.6,19.3L326.6,19.3 M326.1,19.4L326.1,19.4L326.1,19.4L326.1,19.4L326.1,19.4L326.1,19.4L326.1,19.4L326.1,19.4
	L326.1,19.4 M326.2,19.3L326.2,19.3L326.2,19.3L326.2,19.3v0.1l0,0l0,0l0,0l0,0l0,0 M326.1,19.4L326.1,19.4 M326.5,14.5L326.5,14.5
	L326.5,14.5L326.5,14.5L326.5,14.5L326.5,14.5L326.5,14.5L326.5,14.5L326.5,14.5 M326.6,19.3L326.6,19.3L326.6,19.3L326.6,19.3
	L326.6,19.3L326.6,19.3L326.6,19.3L326.6,19.3L326.6,19.3 M326.6,14.5v4.7 M329.1,19.3h0.3 M329.1,19.3L329.1,19.3L329.1,19.3
	L329.1,19.3v0.1l0,0l0,0l0,0l0,0l0,0 M329.4,19.4H329 M327.6,19.4h-0.5 M327.6,19.4L327.6,19.4L327.6,19.4L327.6,19.4L327.6,19.4
	L327.6,19.4v-0.1l0,0l0,0 M326.5,14.5h-0.3 M326.2,19.3h0.3 M326.5,19.3v-4.7 M326.1,19.3L326.1,19.3L326.1,19.3L326.1,19.3
	L326.1,19.3L326.1,19.3L326.1,19.3L326.1,19.3L326.1,19.3 M326.2,14.5v4.7 M326.2,14.5L326.2,14.5L326.2,14.5L326.2,14.5L326.2,14.5
	L326.2,14.5L326.2,14.5L326.2,14.5L326.2,14.5 M326.1,19.3v-4.7 M327.5,14.5L327.5,14.5L327.5,14.5L327.5,14.5L327.5,14.5
	L327.5,14.5L327.5,14.5L327.5,14.5L327.5,14.5 M327.6,19.3L327.6,19.3L327.6,19.3L327.6,19.3L327.6,19.3L327.6,19.3L327.6,19.3
	L327.6,19.3L327.6,19.3 M327.6,14.5v4.7 M323.7,14.5L323.7,14.5L323.7,14.5L323.7,14.5L323.7,14.5L323.7,14.5L323.7,14.5L323.7,14.5
	L323.7,14.5 M323.7,19.3v-4.7 M323.8,19.3L323.8,19.3L323.8,19.3L323.8,19.3L323.8,19.3L323.8,19.3L323.8,19.3L323.8,19.3
	L323.8,19.3 M323.8,14.5v4.7 M328.5,14.5h-0.3 M328.1,14.5v4.7 M328.1,19.3h0.3 M328.5,19.3v-4.7 M324.3,14.5v4.7 M324.3,14.5
	L324.3,14.5L324.3,14.5L324.3,14.5L324.3,14.5L324.3,14.5L324.3,14.5L324.3,14.5L324.3,14.5 M324.2,19.3v-4.7 M324.2,19.4
	L324.2,19.4L324.2,19.4L324.2,19.4L324.2,19.4L324.2,19.4L324.2,19.4L324.2,19.4L324.2,19.4 M324.2,19.3L324.2,19.3L324.2,19.3
	L324.2,19.3L324.2,19.3L324.2,19.3L324.2,19.3L324.2,19.3L324.2,19.3 M324.2,19.4L324.2,19.4 M325.2,19.3h0.3 M325.2,19.3
	L325.2,19.3L325.2,19.3L325.2,19.3v0.1l0,0l0,0l0,0l0,0 M325.6,19.4h-0.4 M325.6,19.4L325.6,19.4L325.6,19.4L325.6,19.4L325.6,19.4
	L325.6,19.4v-0.1l0,0l0,0 M324.3,19.3h0.3 M324.3,19.3L324.3,19.3L324.3,19.3L324.3,19.3v0.1l0,0l0,0l0,0l0,0 M324.7,19.4h-0.4
	 M324.7,19.4L324.7,19.4L324.7,19.4L324.7,19.4L324.7,19.4L324.7,19.4v-0.1l0,0l0,0 M327,19.4L327,19.4L327,19.4L327,19.4L327,19.4
	L327,19.4L327,19.4L327,19.4L327,19.4 M327.2,19.3L327.2,19.3L327.2,19.3L327.2,19.3v0.1l0,0l0,0l0,0l0,0l0,0 M327.1,19.3
	L327.1,19.3L327.1,19.3L327.1,19.3L327.1,19.3L327.1,19.3L327.1,19.3L327.1,19.3L327.1,19.3 M327,19.4L327,19.4 M327.5,14.5h-0.3
	 M327.2,14.5v4.7 M327.2,19.3h0.3 M327.5,19.3v-4.7 M329.5,14.5L329.5,14.5L329.5,14.5L329.5,14.5L329.5,14.5L329.5,14.5L329.5,14.5
	L329.5,14.5L329.5,14.5 M329.5,14.5L329.5,14.5L329.5,14.5L329.5,14.5L329.5,14.5L329.5,14.5L329.5,14.5L329.5,14.5L329.5,14.5
	 M329.5,14.5L329.5,14.5L329.5,14.5L329.5,14.5L329.5,14.5L329.5,14.5L329.5,14.5 M329.4,14.5L329.4,14.5L329.4,14.5L329.4,14.5
	L329.4,14.5L329.4,14.5L329.4,14.5L329.4,14.5L329.4,14.5 M329.4,14.5L329.4,14.5L329.4,14.5v-0.1l0,0l0,0l0,0 M329.4,14.4
	L329.4,14.4L329.4,14.4L329.4,14.4L329.4,14.4L329.4,14.4L329.4,14.4h0.1l0,0 M329.4,14.5L329.4,14.5L329.4,14.5L329.4,14.5v-0.1
	l0,0l0,0l0,0l0,0 M329.5,19.3L329.5,19.3L329.5,19.3L329.5,19.3L329.5,19.3L329.5,19.3L329.5,19.3L329.5,19.3L329.5,19.3
	 M329.5,19.4L329.5,19.4L329.5,19.4L329.5,19.4L329.5,19.4L329.5,19.4L329.5,19.4L329.5,19.4L329.5,19.4 M329.5,19.3L329.5,19.3
	L329.5,19.3L329.5,19.3L329.5,19.3L329.5,19.3 M329.5,19.4L329.5,19.4L329.5,19.4L329.5,19.4L329.5,19.4L329.5,19.4L329.5,19.4h-0.1
	l0,0 M329.5,19.4L329.5,19.4L329.5,19.4L329.5,19.4l-0.1-0.1l0,0 M329.4,19.3L329.4,19.3L329.4,19.3L329.4,19.3L329.4,19.3
	L329.4,19.3L329.4,19.3L329.4,19.3L329.4,19.3 M329.4,19.3L329.4,19.3L329.4,19.3L329.4,19.3v0.1l0,0l0,0l0,0l0,0 M5.7,26.6
	L5.7,26.6 M340.1,26.6L340.1,26.6 M340.3,26.5l4.2-2.6 M1.4,24l4.2,2.5 M344.5,24l0.3-0.2l0.2-0.3 M0.9,23.5l0.2,0.3L1.4,24
	 M0.6,22.9l0.1,0.3l0.2,0.2 M345,23.4l0.1-0.3l0.1-0.3 M111.4,9.9L111.4,9.9 M106.7,9.9L106.7,9.9 M45.4,9.9L45.4,9.9 M40.7,9.9
	L40.7,9.9 M314.2,9.9L314.2,9.9 M309.5,9.9L309.5,9.9 M100.8,9.9L100.8,9.9 M96.1,9.9L96.1,9.9 M126.1,9.9L126.1,9.9 M121.4,9.9
	L121.4,9.9 M238.4,9.9L238.4,9.9 M233.7,9.9L233.7,9.9 M206.1,9.9L206.1,9.9 M201.4,9.9L201.4,9.9 M195.6,9.9L195.6,9.9 M190.9,9.9
	L190.9,9.9 M185.1,9.9L185.1,9.9 M180.4,9.9L180.4,9.9 M90.3,9.9L90.3,9.9 M85.6,9.9L85.6,9.9 M34.9,9.9L34.9,9.9 M30.2,9.9
	L30.2,9.9 M136.6,9.9L136.6,9.9 M131.9,9.9L131.9,9.9 M152.8,9.9L152.8,9.9 M148.1,9.9L148.1,9.9 M322.8,9.9L322.8,9.9 M24.3,9.9
	L24.3,9.9 M19.6,9.9L19.6,9.9 M13.8,9.9h0.1 M9.1,9.9h0.1 M275.6,9.9L275.6,9.9 M270.9,9.9L270.9,9.9 M163.5,9.9L163.5,9.9
	 M68.1,9.9L68.1,9.9 M216.9,9.9L216.9,9.9 M52.6,9.9L52.6,9.9 M305.6,1.1v1 M310.5,2.2v-1 M306.2,0.7h-0.3l-0.2,0.1l-0.1,0.1v0V1
	v0.1 M310.5,1.2L310.5,1.2V1l-0.1-0.1l-0.1-0.1l-0.2-0.1h-0.3 M250.3,2.2h-0.1h-0.1H250l-0.1,0.1l0,0.1v0.1v0.1v0.1 M249.8,2.7
	l-0.2,6.7 M260.5,9.4l-0.1-5.1 M249.6,9.4v0.1v0.1v0.1l-0.1,0.1l-0.1,0.1h-0.1h-0.1h-0.1 M288.9,2.2h-0.1h-0.1h-0.1l-0.1,0.1l0,0.1
	v0.1v0.1v0.1 M288.4,2.7l-0.2,6.7 M299.1,9.4L299,4.3 M288.2,9.4v0.1v0.1v0.1l-0.1,0.1L288,9.9h-0.1h-0.1h-0.1 M336.5,2.7L336.5,2.7
	V2.5V2.4l-0.1-0.1l-0.1-0.1h-0.1h-0.1H336 M326.5,2.2h-0.1h-0.1h-0.1l-0.1,0.1L326,2.4v0.1v0.1v0.1 M325.9,2.7l-0.2,6.7 M336.7,9.4
	l-0.2-6.7 M337.2,9.9h-0.1H337h-0.1l-0.1-0.1l-0.1-0.1V9.6V9.5V9.4 M325.8,9.4v0.1v0.1v0.1l-0.1,0.1l-0.1,0.1h-0.1h-0.1h-0.1
	 M313.3,2.7L313.3,2.7V2.5V2.4l-0.1-0.1l-0.1-0.1H313h-0.1h-0.1 M303.3,2.2h-0.1h-0.1H303l-0.1,0.1v0.1v0.1v0.1v0.1 M302.8,2.7
	l-0.2,6.7 M313.4,5l-0.1-2.3 M302.6,9.4v0.1v0.1v0.1l-0.1,0.1l-0.1,0.1h-0.1h-0.1h-0.1 M321.4,26.8l1.3,0.3l1.3,0.2l1.3,0.1h1.3h1.3
	l1.3-0.1l1.3-0.2l1.3-0.3 M331.9,26.8L331.9,26.8L331.9,26.8L331.9,26.8L331.9,26.8L331.9,26.8L331.9,26.8L331.9,26.8L331.9,26.8
	 M321.3,26.7L321.3,26.7L321.3,26.7L321.3,26.7L321.3,26.7L321.3,26.7L321.3,26.7L321.3,26.7L321.3,26.7 M13.9,26.8l1.3,0.3l1.3,0.2
	l1.3,0.1h1.3h1.3l1.3-0.1l1.3-0.2l1.3-0.3 M24.5,26.8L24.5,26.8L24.5,26.8L24.5,26.8L24.5,26.8L24.5,26.8L24.5,26.8L24.5,26.8
	L24.5,26.8 M13.9,26.7L13.9,26.7L13.9,26.7L13.9,26.7L13.9,26.7L13.9,26.7L13.9,26.7L13.9,26.7L13.9,26.7"/>
</svg>
